<?xml version="1.0" standalone="yes"?>

<svg version="1.1" viewBox="0.0 0.0 960.0 540.0" fill="none" stroke="none" stroke-linecap="square" stroke-miterlimit="10" xmlns="http://www.w3.org/2000/svg" xmlns:xlink="http://www.w3.org/1999/xlink"><clipPath id="g270f91f7b_00.0"><path d="m0 0l960.0 0l0 540.0l-960.0 0l0 -540.0z" clip-rule="nonzero"></path></clipPath><g clip-path="url(#g270f91f7b_00.0)"><path fill="#ffffff" d="m0 0l960.0 0l0 540.0l-960.0 0z" fill-rule="nonzero"></path><path fill="#000000" fill-opacity="0.0" d="m72.0 166.23016l816.0 0l0 121.76376l-816.0 0z" fill-rule="nonzero"></path><path fill="#000000" d="m321.8125 263.43393l0 -45.8125l13.84375 0l8.3125 31.25l8.21875 -31.25l13.875 0l0 45.8125l-8.59375 0l0 -36.0625l-9.09375 36.0625l-8.90625 0l-9.0625 -36.0625l0 36.0625l-8.59375 0zm59.9375 -23.0625l-7.96875 -1.4375q1.34375 -4.8125 4.625 -7.125q3.28125 -2.3125 9.75 -2.3125q5.875 0 8.75 1.390625q2.875 1.390625 4.046875 3.53125q1.171875 2.140625 1.171875 7.859375l-0.09375 10.25q0 4.375 0.421875 6.453125q0.421875 2.078125 1.578125 4.453125l-8.6875 0q-0.34375 -0.875 -0.84375 -2.59375q-0.21875 -0.78125 -0.3125 -1.03125q-2.25 2.1875 -4.8125 3.28125q-2.5625 1.09375 -5.46875 1.09375q-5.125 0 -8.078125 -2.78125q-2.953125 -2.78125 -2.953125 -7.03125q0 -2.8125 1.34375 -5.015625q1.34375 -2.203125 3.765625 -3.375q2.421875 -1.171875 6.984375 -2.046875q6.15625 -1.15625 8.53125 -2.15625l0 -0.875q0 -2.53125 -1.25 -3.609375q-1.25 -1.078125 -4.71875 -1.078125q-2.34375 0 -3.65625 0.921875q-1.3125 0.921875 -2.125 3.234375zm11.75 7.125q-1.6875 0.5625 -5.34375 1.34375q-3.65625 0.78125 -4.78125 1.53125q-1.71875 1.21875 -1.71875 3.09375q0 1.84375 1.375 3.1875q1.375 1.34375 3.5 1.34375q2.375 0 4.53125 -1.5625q1.59375 -1.1875 2.09375 -2.90625q0.34375 -1.125 0.34375 -4.28125l0 -1.75zm16.9375 -17.25l8.78125 0l0 12.15625l12.5625 0l0 -12.15625l8.8125 0l0 33.1875l-8.8125 0l0 -13.9375l-12.5625 0l0 13.9375l-8.78125 0l0 -33.1875zm38.78125 0l8.4375 0l0 20.84375l13.5 -20.84375l8.625 0l0 33.1875l-8.4375 0l0 -21.21875l-13.6875 21.21875l-8.4375 0l0 -33.1875zm58.65625 -12.625l8.71875 0l0 16.84375q1.59375 -2.46875 3.8125 -3.703125q2.21875 -1.234375 5.0625 -1.234375q5.34375 0 8.734375 5.171875q3.390625 5.171875 3.390625 12.359375q0 7.21875 -3.796875 12.171875q-3.796875 4.953125 -8.984375 4.953125q-2.34375 0 -4.40625 -1.171875q-2.0625 -1.171875 -3.8125 -3.484375l0 16.53125l-8.71875 0l0 -16.53125q-1.90625 2.3125 -4.078125 3.484375q-2.171875 1.171875 -4.609375 1.171875q-5.375 0 -8.875 -4.96875q-3.5 -4.96875 -3.5 -12.5q0 -7.46875 4.0 -12.34375q4.0 -4.875 8.65625 -4.875q2.53125 0 4.625 1.1875q2.09375 1.1875 3.78125 3.5625l0 -16.625zm-5.875 18.59375q-2.4375 0 -4.265625 2.921875q-1.828125 2.921875 -1.828125 7.703125q0 4.8125 1.703125 7.71875q1.703125 2.90625 4.234375 2.90625q2.5625 0 4.34375 -2.90625q1.78125 -2.90625 1.78125 -7.9375q0 -5.46875 -1.9375 -7.9375q-1.9375 -2.46875 -4.03125 -2.46875zm20.53125 0.0625q-2.6875 0 -4.375 3.140625q-1.6875 3.140625 -1.6875 7.859375q0 4.71875 1.796875 7.484375q1.796875 2.765625 4.265625 2.765625q2.46875 0 4.25 -3.125q1.78125 -3.125 1.78125 -7.375q0 -4.53125 -1.625 -7.640625q-1.625 -3.109375 -4.40625 -3.109375zm41.46875 16.59375l8.75 1.46875q-1.6875 4.8125 -5.328125 7.328125q-3.640625 2.515625 -9.109375 2.515625q-8.65625 0 -12.8125 -5.65625q-3.28125 -4.53125 -3.28125 -11.4375q0 -8.25 4.3125 -12.921875q4.3125 -4.671875 10.90625 -4.671875q7.40625 0 11.6875 4.890625q4.28125 4.890625 4.09375 14.984375l-22.0 0q0.09375 3.90625 2.125 6.078125q2.03125 2.171875 5.0625 2.171875q2.0625 0 3.46875 -1.125q1.40625 -1.125 2.125 -3.625zm0.5 -8.875q-0.09375 -3.8125 -1.96875 -5.796875q-1.875 -1.984375 -4.5625 -1.984375q-2.875 0 -4.75 2.09375q-1.875 2.09375 -1.84375 5.6875l13.125 0zm44.8125 -3.9375l-8.65625 1.5625q-0.4375 -2.59375 -1.984375 -3.90625q-1.546875 -1.3125 -4.015625 -1.3125q-3.28125 0 -5.234375 2.265625q-1.953125 2.265625 -1.953125 7.578125q0 5.90625 1.984375 8.34375q1.984375 2.4375 5.328125 2.4375q2.5 0 4.09375 -1.421875q1.59375 -1.421875 2.25 -4.890625l8.625 1.46875q-1.34375 5.9375 -5.15625 8.96875q-3.8125 3.03125 -10.21875 3.03125q-7.28125 0 -11.609375 -4.59375q-4.328125 -4.59375 -4.328125 -12.71875q0 -8.21875 4.34375 -12.796875q4.34375 -4.578125 11.75 -4.578125q6.0625 0 9.640625 2.609375q3.578125 2.609375 5.140625 7.953125zm2.71875 -9.8125l30.03125 0l0 7.09375l-10.625 0l0 26.09375l-8.78125 0l0 -26.09375l-10.625 0l0 -7.09375z" fill-rule="nonzero"></path><path fill="#000000" fill-opacity="0.0" d="m72.0 298.16833l816.0 0l0 82.39371l-816.0 0z" fill-rule="nonzero"></path><path fill="#666666" d="m84.125 316.92773l22.515625 0l0 28.640625l-3.796875 0l0 -25.25l-14.921875 0l0 25.25l-3.796875 0l0 -28.640625zm28.265625 36.59375l0 -28.703125l3.203125 0l0 2.703125q1.125 -1.578125 2.546875 -2.375q1.4375 -0.796875 3.46875 -0.796875q2.65625 0 4.6875 1.375q2.03125 1.359375 3.0625 3.859375q1.03125 2.484375 1.03125 5.453125q0 3.1875 -1.140625 5.734375q-1.140625 2.546875 -3.328125 3.90625q-2.171875 1.359375 -4.5625 1.359375q-1.765625 0 -3.171875 -0.734375q-1.390625 -0.75 -2.28125 -1.890625l0 10.109375l-3.515625 0zm3.1875 -18.203125q0 4.0 1.609375 5.921875q1.625 1.90625 3.9375 1.90625q2.34375 0 4.0 -1.984375q1.671875 -1.984375 1.671875 -6.140625q0 -3.96875 -1.625 -5.9375q-1.625 -1.96875 -3.890625 -1.96875q-2.25 0 -3.984375 2.09375q-1.71875 2.09375 -1.71875 6.109375zm19.058594 -10.5l3.515625 0l0 15.828125l9.75 -15.828125l3.78125 0l0 20.75l-3.515625 0l0 -15.71875l-9.75 15.71875l-3.78125 0l0 -20.75zm22.359375 0l3.515625 0l0 8.640625l9.75 0l0 -8.640625l3.515625 0l0 20.75l-3.515625 0l0 -9.203125l-9.75 0l0 9.203125l-3.515625 0l0 -20.75zm22.136719 0l3.515625 0l0 17.859375l9.71875 0l0 -17.859375l3.515625 0l0 17.859375l2.265625 0l0 8.765625l-2.890625 0l0 -5.875l-16.125 0l0 -20.75zm22.847656 0l3.515625 0l0 15.828125l9.75 -15.828125l3.78125 0l0 20.75l-3.515625 0l0 -15.71875l-9.75 15.71875l-3.78125 0l0 -20.75zm22.359375 0l16.375 0l0 20.75l-3.515625 0l0 -17.828125l-9.34375 0l0 17.828125l-3.515625 0l0 -20.75zm41.39453 0l3.515625 0l0 20.75l-3.515625 0l0 -20.75zm-19.671875 0l3.515625 0l0 8.109375l4.453125 0q4.359375 0 6.703125 1.6875q2.359375 1.6875 2.359375 4.65625q0 2.609375 -1.96875 4.453125q-1.953125 1.84375 -6.28125 1.84375l-8.78125 0l0 -20.75zm3.515625 17.859375l3.6875 0q3.34375 0 4.765625 -0.8125q1.421875 -0.828125 1.421875 -2.5625q0 -1.359375 -1.0625 -2.40625q-1.046875 -1.0625 -4.65625 -1.0625l-4.15625 0l0 6.84375zm36.597656 2.890625l0 -28.640625l5.703125 0l6.78125 20.28125q0.9375 2.828125 1.359375 4.234375q0.5 -1.5625 1.53125 -4.59375l6.859375 -19.921875l5.09375 0l0 28.640625l-3.65625 0l0 -23.96875l-8.3125 23.96875l-3.421875 0l-8.28125 -24.375l0 24.375l-3.65625 0zm46.523438 -2.5625q-1.953125 1.65625 -3.765625 2.34375q-1.796875 0.6875 -3.875 0.6875q-3.40625 0 -5.25 -1.671875q-1.828125 -1.671875 -1.828125 -4.265625q0 -1.53125 0.6875 -2.78125q0.6875 -1.265625 1.8125 -2.015625q1.125 -0.765625 2.53125 -1.15625q1.03125 -0.28125 3.125 -0.53125q4.265625 -0.515625 6.265625 -1.21875q0.03125 -0.71875 0.03125 -0.90625q0 -2.15625 -1.0 -3.03125q-1.34375 -1.1875 -4.0 -1.1875q-2.484375 0 -3.671875 0.875q-1.171875 0.859375 -1.75 3.0625l-3.4375 -0.46875q0.46875 -2.203125 1.546875 -3.5625q1.078125 -1.359375 3.109375 -2.09375q2.03125 -0.734375 4.703125 -0.734375q2.65625 0 4.3125 0.625q1.671875 0.625 2.453125 1.578125q0.78125 0.953125 1.09375 2.390625q0.171875 0.90625 0.171875 3.25l0 4.6875q0 4.890625 0.21875 6.203125q0.234375 1.296875 0.890625 2.484375l-3.671875 0q-0.546875 -1.09375 -0.703125 -2.5625zm-0.296875 -7.84375q-1.90625 0.78125 -5.734375 1.328125q-2.171875 0.3125 -3.078125 0.703125q-0.890625 0.390625 -1.375 1.140625q-0.484375 0.75 -0.484375 1.671875q0 1.40625 1.0625 2.34375q1.0625 0.9375 3.109375 0.9375q2.03125 0 3.609375 -0.890625q1.59375 -0.890625 2.328125 -2.4375q0.5625 -1.1875 0.5625 -3.515625l0 -1.28125zm9.027344 -10.34375l3.515625 0l0 8.640625l9.75 0l0 -8.640625l3.515625 0l0 20.75l-3.515625 0l0 -9.203125l-9.75 0l0 9.203125l-3.515625 0l0 -20.75zm22.074219 0l3.515625 0l0 15.828125l9.75 -15.828125l3.78125 0l0 20.75l-3.515625 0l0 -15.71875l-9.75 15.71875l-3.78125 0l0 -20.75zm34.40625 -7.890625l3.515625 0l0 9.90625q1.09375 -1.25 2.40625 -1.859375q1.3125 -0.625 2.8125 -0.625q3.6875 0 5.84375 3.078125q2.171875 3.078125 2.171875 7.75q0 4.859375 -2.328125 7.859375q-2.328125 3.0 -5.78125 3.0q-1.140625 0 -2.3125 -0.359375q-1.171875 -0.34375 -2.8125 -1.90625l0 9.75l-3.515625 0l0 -9.75q-1.046875 1.125 -2.328125 1.703125q-1.28125 0.5625 -2.765625 0.5625q-3.265625 0 -5.703125 -2.859375q-2.4375 -2.859375 -2.4375 -8.203125q0 -4.5 2.203125 -7.5625q2.203125 -3.0625 5.9375 -3.0625q1.5625 0 2.828125 0.625q1.28125 0.609375 2.265625 1.859375l0 -9.90625zm3.5 18.34375q0 4.6875 1.28125 6.296875q1.296875 1.609375 3.234375 1.609375q2.140625 0 3.65625 -1.96875q1.515625 -1.984375 1.515625 -6.171875q0 -3.9375 -1.40625 -5.875q-1.390625 -1.9375 -3.578125 -1.9375q-2.34375 0 -3.53125 2.015625q-1.171875 2.015625 -1.171875 6.03125zm-13.15625 -0.390625q0 4.390625 1.46875 6.328125q1.46875 1.9375 3.65625 1.9375q2.296875 0 3.421875 -1.921875q1.140625 -1.921875 1.140625 -5.78125q0 -4.09375 -1.203125 -6.140625q-1.1875 -2.0625 -3.59375 -2.0625q-2.15625 0 -3.53125 2.015625q-1.359375 2.0 -1.359375 5.625zm44.70703 4.0l3.625 0.453125q-0.859375 3.1875 -3.1875 4.953125q-2.3125 1.75 -5.9375 1.75q-4.546875 0 -7.21875 -2.796875q-2.65625 -2.8125 -2.65625 -7.875q0 -5.234375 2.6875 -8.125q2.703125 -2.890625 7.0 -2.890625q4.15625 0 6.796875 2.84375q2.640625 2.828125 2.640625 7.96875q0 0.3125 -0.03125 0.9375l-15.46875 0q0.203125 3.40625 1.9375 5.234375q1.734375 1.8125 4.34375 1.8125q1.921875 0 3.28125 -1.015625q1.375 -1.015625 2.1875 -3.25zm-11.546875 -5.671875l11.578125 0q-0.234375 -2.625 -1.328125 -3.9375q-1.671875 -2.03125 -4.359375 -2.03125q-2.421875 0 -4.078125 1.625q-1.640625 1.625 -1.8125 4.34375zm33.121094 4.765625l3.453125 0.4375q-0.5625 3.578125 -2.90625 5.609375q-2.328125 2.015625 -5.71875 2.015625q-4.265625 0 -6.859375 -2.78125q-2.578125 -2.78125 -2.578125 -7.984375q0 -3.359375 1.109375 -5.875q1.125 -2.515625 3.390625 -3.78125q2.28125 -1.265625 4.953125 -1.265625q3.375 0 5.515625 1.71875q2.15625 1.703125 2.765625 4.84375l-3.421875 0.53125q-0.484375 -2.09375 -1.734375 -3.140625q-1.234375 -1.0625 -2.984375 -1.0625q-2.65625 0 -4.328125 1.90625q-1.65625 1.90625 -1.65625 6.03125q0 4.171875 1.59375 6.078125q1.609375 1.890625 4.1875 1.890625q2.078125 0 3.453125 -1.265625q1.390625 -1.28125 1.765625 -3.90625zm4.578125 -13.15625l16.84375 0l0 2.921875l-6.671875 0l0 17.828125l-3.5 0l0 -17.828125l-6.671875 0l0 -2.921875zm33.742188 18.1875q-1.953125 1.65625 -3.765625 2.34375q-1.796875 0.6875 -3.875 0.6875q-3.40625 0 -5.25 -1.671875q-1.828125 -1.671875 -1.828125 -4.265625q0 -1.53125 0.6875 -2.78125q0.6875 -1.265625 1.8125 -2.015625q1.125 -0.765625 2.53125 -1.15625q1.03125 -0.28125 3.125 -0.53125q4.265625 -0.515625 6.265625 -1.21875q0.03125 -0.71875 0.03125 -0.90625q0 -2.15625 -1.0 -3.03125q-1.34375 -1.1875 -4.0 -1.1875q-2.484375 0 -3.671875 0.875q-1.171875 0.859375 -1.75 3.0625l-3.4375 -0.46875q0.46875 -2.203125 1.546875 -3.5625q1.078125 -1.359375 3.109375 -2.09375q2.03125 -0.734375 4.703125 -0.734375q2.65625 0 4.3125 0.625q1.671875 0.625 2.453125 1.578125q0.78125 0.953125 1.09375 2.390625q0.171875 0.90625 0.171875 3.25l0 4.6875q0 4.890625 0.21875 6.203125q0.234375 1.296875 0.890625 2.484375l-3.671875 0q-0.546875 -1.09375 -0.703125 -2.5625zm-0.296875 -7.84375q-1.90625 0.78125 -5.734375 1.328125q-2.171875 0.3125 -3.078125 0.703125q-0.890625 0.390625 -1.375 1.140625q-0.484375 0.75 -0.484375 1.671875q0 1.40625 1.0625 2.34375q1.0625 0.9375 3.109375 0.9375q2.03125 0 3.609375 -0.890625q1.59375 -0.890625 2.328125 -2.4375q0.5625 -1.1875 0.5625 -3.515625l0 -1.28125zm9.980469 -6.328125l0 -4.015625l4.015625 0l0 4.015625l-4.015625 0zm0 16.734375l0 -4.0l4.015625 0l0 4.0l-4.015625 0z" fill-rule="nonzero"></path><path fill="#666666" d="m93.37891 384.97458l0 -3.53125l10.8125 0l0 3.53125l-10.8125 0zm24.496094 -1.78125q0 -5.765625 3.203125 -8.53125q2.671875 -2.3125 6.53125 -2.3125q4.265625 0 6.984375 2.8125q2.71875 2.796875 2.71875 7.734375q0 4.015625 -1.203125 6.3125q-1.203125 2.28125 -3.5 3.5625q-2.296875 1.265625 -5.0 1.265625q-4.359375 0 -7.046875 -2.796875q-2.6875 -2.796875 -2.6875 -8.046875zm3.609375 0q0 3.984375 1.734375 5.96875q1.75 1.984375 4.390625 1.984375q2.609375 0 4.34375 -1.984375q1.75 -2.0 1.75 -6.078125q0 -3.859375 -1.75 -5.828125q-1.75 -1.984375 -4.34375 -1.984375q-2.640625 0 -4.390625 1.96875q-1.734375 1.96875 -1.734375 5.953125zm18.058594 -10.375l16.84375 0l0 2.921875l-6.671875 0l0 17.828125l-3.5 0l0 -17.828125l-6.671875 0l0 -2.921875zm20.195312 0l3.515625 0l0 8.96875q1.671875 0 2.34375 -0.640625q0.671875 -0.640625 1.984375 -3.75q1.03125 -2.46875 1.671875 -3.25q0.65625 -0.78125 1.484375 -1.046875q0.84375 -0.28125 2.703125 -0.28125l0.703125 0l0 2.921875l-0.96875 -0.03125q-1.390625 0 -1.78125 0.421875q-0.40625 0.421875 -1.25 2.546875q-0.796875 2.03125 -1.46875 2.8125q-0.65625 0.78125 -2.046875 1.4375q2.265625 0.59375 4.453125 4.21875l3.84375 6.421875l-3.859375 0l-3.75 -6.421875q-1.15625 -1.9375 -2.015625 -2.546875q-0.859375 -0.625 -2.046875 -0.625l0 9.59375l-3.515625 0l0 -20.75zm17.515625 28.703125l0 -28.703125l3.203125 0l0 2.703125q1.125 -1.578125 2.546875 -2.375q1.4375 -0.796875 3.46875 -0.796875q2.65625 0 4.6875 1.375q2.03125 1.359375 3.0625 3.859375q1.03125 2.484375 1.03125 5.453125q0 3.1875 -1.140625 5.734375q-1.140625 2.546875 -3.328125 3.90625q-2.171875 1.359375 -4.5625 1.359375q-1.765625 0 -3.171875 -0.734375q-1.390625 -0.75 -2.28125 -1.890625l0 10.109375l-3.515625 0zm3.1875 -18.203125q0 4.0 1.609375 5.921875q1.625 1.90625 3.9375 1.90625q2.34375 0 4.0 -1.984375q1.671875 -1.984375 1.671875 -6.140625q0 -3.96875 -1.625 -5.9375q-1.625 -1.96875 -3.890625 -1.96875q-2.25 0 -3.984375 2.09375q-1.71875 2.09375 -1.71875 6.109375zm38.808594 -10.5l3.515625 0l0 20.75l-3.515625 0l0 -20.75zm-19.671875 0l3.515625 0l0 8.109375l4.453125 0q4.359375 0 6.703125 1.6875q2.359375 1.6875 2.359375 4.65625q0 2.609375 -1.96875 4.453125q-1.953125 1.84375 -6.28125 1.84375l-8.78125 0l0 -20.75zm3.515625 17.859375l3.6875 0q3.34375 0 4.765625 -0.8125q1.421875 -0.828125 1.421875 -2.5625q0 -1.359375 -1.0625 -2.40625q-1.046875 -1.0625 -4.65625 -1.0625l-4.15625 0l0 6.84375zm23.265625 -17.859375l16.84375 0l0 2.921875l-6.671875 0l0 17.828125l-3.5 0l0 -17.828125l-6.671875 0l0 -2.921875zm18.898438 10.375q0 -5.765625 3.203125 -8.53125q2.671875 -2.3125 6.53125 -2.3125q4.265625 0 6.984375 2.8125q2.71875 2.796875 2.71875 7.734375q0 4.015625 -1.203125 6.3125q-1.203125 2.28125 -3.5 3.5625q-2.296875 1.265625 -5.0 1.265625q-4.359375 0 -7.046875 -2.796875q-2.6875 -2.796875 -2.6875 -8.046875zm3.609375 0q0 3.984375 1.734375 5.96875q1.75 1.984375 4.390625 1.984375q2.609375 0 4.34375 -1.984375q1.75 -2.0 1.75 -6.078125q0 -3.859375 -1.75 -5.828125q-1.75 -1.984375 -4.34375 -1.984375q-2.640625 0 -4.390625 1.96875q-1.734375 1.96875 -1.734375 5.953125zm33.48047 2.78125l3.453125 0.4375q-0.5625 3.578125 -2.90625 5.609375q-2.328125 2.015625 -5.71875 2.015625q-4.265625 0 -6.859375 -2.78125q-2.578125 -2.78125 -2.578125 -7.984375q0 -3.359375 1.109375 -5.875q1.125 -2.515625 3.390625 -3.78125q2.28125 -1.265625 4.953125 -1.265625q3.375 0 5.515625 1.71875q2.15625 1.703125 2.765625 4.84375l-3.421875 0.53125q-0.484375 -2.09375 -1.734375 -3.140625q-1.234375 -1.0625 -2.984375 -1.0625q-2.65625 0 -4.328125 1.90625q-1.65625 1.90625 -1.65625 6.03125q0 4.171875 1.59375 6.078125q1.609375 1.890625 4.1875 1.890625q2.078125 0 3.453125 -1.265625q1.390625 -1.28125 1.765625 -3.90625zm4.578125 -13.15625l16.84375 0l0 2.921875l-6.671875 0l0 17.828125l-3.5 0l0 -17.828125l-6.671875 0l0 -2.921875zm20.148438 0l3.515625 0l0 8.109375l4.453125 0q4.359375 0 6.703125 1.6875q2.359375 1.6875 2.359375 4.65625q0 2.609375 -1.96875 4.453125q-1.953125 1.84375 -6.265625 1.84375l-8.796875 0l0 -20.75zm3.515625 17.859375l3.6875 0q3.34375 0 4.765625 -0.8125q1.4375 -0.828125 1.4375 -2.5625q0 -1.359375 -1.0625 -2.40625q-1.046875 -1.0625 -4.671875 -1.0625l-4.15625 0l0 6.84375z" fill-rule="nonzero"></path><path fill="#666666" d="m93.37891 432.97458l0 -3.53125l10.8125 0l0 3.53125l-10.8125 0zm39.339844 1.0l3.453125 0.4375q-0.5625 3.578125 -2.90625 5.609375q-2.328125 2.015625 -5.71875 2.015625q-4.265625 0 -6.859375 -2.78125q-2.578125 -2.78125 -2.578125 -7.984375q0 -3.359375 1.109375 -5.875q1.125 -2.515625 3.390625 -3.78125q2.28125 -1.265625 4.953125 -1.265625q3.375 0 5.515625 1.71875q2.15625 1.703125 2.765625 4.84375l-3.421875 0.53125q-0.484375 -2.09375 -1.734375 -3.140625q-1.234375 -1.0625 -2.984375 -1.0625q-2.65625 0 -4.328125 1.90625q-1.65625 1.90625 -1.65625 6.03125q0 4.171875 1.59375 6.078125q1.609375 1.890625 4.1875 1.890625q2.078125 0 3.453125 -1.265625q1.390625 -1.28125 1.765625 -3.90625zm5.15625 -2.78125q0 -5.765625 3.203125 -8.53125q2.671875 -2.3125 6.53125 -2.3125q4.265625 0 6.984375 2.8125q2.71875 2.796875 2.71875 7.734375q0 4.015625 -1.203125 6.3125q-1.203125 2.28125 -3.5 3.5625q-2.296875 1.265625 -5.0 1.265625q-4.359375 0 -7.046875 -2.796875q-2.6875 -2.796875 -2.6875 -8.046875zm3.609375 0q0 3.984375 1.734375 5.96875q1.75 1.984375 4.390625 1.984375q2.609375 0 4.34375 -1.984375q1.75 -2.0 1.75 -6.078125q0 -3.859375 -1.75 -5.828125q-1.75 -1.984375 -4.34375 -1.984375q-2.640625 0 -4.390625 1.96875q-1.734375 1.96875 -1.734375 5.953125zm18.058594 -10.375l16.84375 0l0 2.921875l-6.671875 0l0 17.828125l-3.5 0l0 -17.828125l-6.671875 0l0 -2.921875zm20.226562 0l8.109375 0q2.984375 0 4.4375 0.5q1.453125 0.5 2.5 1.828125q1.046875 1.328125 1.046875 3.1875q0 1.484375 -0.625 2.59375q-0.609375 1.09375 -1.828125 1.84375q1.453125 0.484375 2.421875 1.828125q0.96875 1.328125 0.96875 3.171875q-0.1875 2.9375 -2.109375 4.375q-1.90625 1.421875 -5.5625 1.421875l-9.359375 0l0 -20.75zm3.515625 8.734375l3.75 0q2.25 0 3.078125 -0.234375q0.84375 -0.234375 1.5 -0.9375q0.671875 -0.71875 0.671875 -1.71875q0 -1.640625 -1.15625 -2.28125q-1.15625 -0.640625 -3.96875 -0.640625l-3.875 0l0 5.8125zm0 9.125l4.625 0q3.0 0 4.109375 -0.6875q1.109375 -0.703125 1.171875 -2.40625q0 -0.984375 -0.65625 -1.828125q-0.640625 -0.859375 -1.671875 -1.078125q-1.03125 -0.234375 -3.3125 -0.234375l-4.265625 0l0 6.234375zm16.40625 -7.484375q0 -5.765625 3.203125 -8.53125q2.671875 -2.3125 6.53125 -2.3125q4.265625 0 6.984375 2.8125q2.71875 2.796875 2.71875 7.734375q0 4.015625 -1.203125 6.3125q-1.203125 2.28125 -3.5 3.5625q-2.296875 1.265625 -5.0 1.265625q-4.359375 0 -7.046875 -2.796875q-2.6875 -2.796875 -2.6875 -8.046875zm3.609375 0q0 3.984375 1.734375 5.96875q1.75 1.984375 4.390625 1.984375q2.609375 0 4.34375 -1.984375q1.75 -2.0 1.75 -6.078125q0 -3.859375 -1.75 -5.828125q-1.75 -1.984375 -4.34375 -1.984375q-2.640625 0 -4.390625 1.96875q-1.734375 1.96875 -1.734375 5.953125zm19.949219 18.328125l0 -28.703125l3.203125 0l0 2.703125q1.125 -1.578125 2.546875 -2.375q1.4375 -0.796875 3.46875 -0.796875q2.65625 0 4.6875 1.375q2.03125 1.359375 3.0625 3.859375q1.03125 2.484375 1.03125 5.453125q0 3.1875 -1.140625 5.734375q-1.140625 2.546875 -3.328125 3.90625q-2.171875 1.359375 -4.5625 1.359375q-1.765625 0 -3.171875 -0.734375q-1.390625 -0.75 -2.28125 -1.890625l0 10.109375l-3.515625 0zm3.1875 -18.203125q0 4.0 1.609375 5.921875q1.625 1.90625 3.9375 1.90625q2.34375 0 4.0 -1.984375q1.671875 -1.984375 1.671875 -6.140625q0 -3.96875 -1.625 -5.9375q-1.625 -1.96875 -3.890625 -1.96875q-2.25 0 -3.984375 2.09375q-1.71875 2.09375 -1.71875 6.109375zm17.761719 -10.5l3.515625 0l0 3.9375q0 2.53125 0.296875 3.671875q0.3125 1.140625 1.46875 2.0q1.15625 0.84375 2.890625 0.84375q1.984375 0 5.15625 -1.046875l0 -9.40625l3.515625 0l0 20.75l-3.515625 0l0 -8.359375q-3.25 1.015625 -6.0625 1.015625q-2.359375 0 -4.171875 -1.203125q-1.796875 -1.203125 -2.453125 -2.9375q-0.640625 -1.734375 -0.640625 -3.828125l0 -5.4375zm36.339844 14.0625l3.625 0.453125q-0.859375 3.1875 -3.1875 4.953125q-2.3125 1.75 -5.9375 1.75q-4.546875 0 -7.21875 -2.796875q-2.65625 -2.8125 -2.65625 -7.875q0 -5.234375 2.6875 -8.125q2.703125 -2.890625 7.0 -2.890625q4.15625 0 6.796875 2.84375q2.640625 2.828125 2.640625 7.96875q0 0.3125 -0.03125 0.9375l-15.46875 0q0.203125 3.40625 1.9375 5.234375q1.734375 1.8125 4.34375 1.8125q1.921875 0 3.28125 -1.015625q1.375 -1.015625 2.1875 -3.25zm-11.546875 -5.671875l11.578125 0q-0.234375 -2.625 -1.328125 -3.9375q-1.671875 -2.03125 -4.359375 -2.03125q-2.421875 0 -4.078125 1.625q-1.640625 1.625 -1.8125 4.34375zm33.121094 4.765625l3.453125 0.4375q-0.5625 3.578125 -2.90625 5.609375q-2.328125 2.015625 -5.71875 2.015625q-4.265625 0 -6.859375 -2.78125q-2.578125 -2.78125 -2.578125 -7.984375q0 -3.359375 1.109375 -5.875q1.125 -2.515625 3.390625 -3.78125q2.28125 -1.265625 4.953125 -1.265625q3.375 0 5.515625 1.71875q2.15625 1.703125 2.765625 4.84375l-3.421875 0.53125q-0.484375 -2.09375 -1.734375 -3.140625q-1.234375 -1.0625 -2.984375 -1.0625q-2.65625 0 -4.328125 1.90625q-1.65625 1.90625 -1.65625 6.03125q0 4.171875 1.59375 6.078125q1.609375 1.890625 4.1875 1.890625q2.078125 0 3.453125 -1.265625q1.390625 -1.28125 1.765625 -3.90625zm4.578125 -13.15625l16.84375 0l0 2.921875l-6.671875 0l0 17.828125l-3.5 0l0 -17.828125l-6.671875 0l0 -2.921875zm20.226562 0l8.109375 0q2.984375 0 4.4375 0.5q1.453125 0.5 2.5 1.828125q1.046875 1.328125 1.046875 3.1875q0 1.484375 -0.625 2.59375q-0.609375 1.09375 -1.828125 1.84375q1.453125 0.484375 2.421875 1.828125q0.96875 1.328125 0.96875 3.171875q-0.1875 2.9375 -2.109375 4.375q-1.90625 1.421875 -5.5625 1.421875l-9.359375 0l0 -20.75zm3.515625 8.734375l3.75 0q2.25 0 3.078125 -0.234375q0.84375 -0.234375 1.5 -0.9375q0.671875 -0.71875 0.671875 -1.71875q0 -1.640625 -1.15625 -2.28125q-1.15625 -0.640625 -3.96875 -0.640625l-3.875 0l0 5.8125zm0 9.125l4.625 0q3.0 0 4.109375 -0.6875q1.109375 -0.703125 1.171875 -2.40625q0 -0.984375 -0.65625 -1.828125q-0.640625 -0.859375 -1.671875 -1.078125q-1.03125 -0.234375 -3.3125 -0.234375l-4.265625 0l0 6.234375zm16.40625 -7.484375q0 -5.765625 3.203125 -8.53125q2.671875 -2.3125 6.53125 -2.3125q4.265625 0 6.984375 2.8125q2.71875 2.796875 2.71875 7.734375q0 4.015625 -1.203125 6.3125q-1.203125 2.28125 -3.5 3.5625q-2.296875 1.265625 -5.0 1.265625q-4.359375 0 -7.046875 -2.796875q-2.6875 -2.796875 -2.6875 -8.046875zm3.609375 0q0 3.984375 1.734375 5.96875q1.75 1.984375 4.390625 1.984375q2.609375 0 4.34375 -1.984375q1.75 -2.0 1.75 -6.078125q0 -3.859375 -1.75 -5.828125q-1.75 -1.984375 -4.34375 -1.984375q-2.640625 0 -4.390625 1.96875q-1.734375 1.96875 -1.734375 5.953125z" fill-rule="nonzero"></path><path fill="#666666" d="m93.37891 480.97458l0 -3.53125l10.8125 0l0 3.53125l-10.8125 0zm25.808594 16.546875l0 -28.703125l3.203125 0l0 2.703125q1.125 -1.578125 2.546875 -2.375q1.4375 -0.796875 3.46875 -0.796875q2.65625 0 4.6875 1.375q2.03125 1.359375 3.0625 3.859375q1.03125 2.484375 1.03125 5.453125q0 3.1875 -1.140625 5.734375q-1.140625 2.546875 -3.328125 3.90625q-2.171875 1.359375 -4.5625 1.359375q-1.765625 0 -3.171875 -0.734375q-1.390625 -0.75 -2.28125 -1.890625l0 10.109375l-3.515625 0zm3.1875 -18.203125q0 4.0 1.609375 5.921875q1.625 1.90625 3.9375 1.90625q2.34375 0 4.0 -1.984375q1.671875 -1.984375 1.671875 -6.140625q0 -3.96875 -1.625 -5.9375q-1.625 -1.96875 -3.890625 -1.96875q-2.25 0 -3.984375 2.09375q-1.71875 2.09375 -1.71875 6.109375zm33.26172 3.5625l3.625 0.453125q-0.859375 3.1875 -3.1875 4.953125q-2.3125 1.75 -5.9375 1.75q-4.546875 0 -7.21875 -2.796875q-2.65625 -2.8125 -2.65625 -7.875q0 -5.234375 2.6875 -8.125q2.703125 -2.890625 7.0 -2.890625q4.15625 0 6.796875 2.84375q2.640625 2.828125 2.640625 7.96875q0 0.3125 -0.03125 0.9375l-15.46875 0q0.203125 3.40625 1.9375 5.234375q1.734375 1.8125 4.34375 1.8125q1.921875 0 3.28125 -1.015625q1.375 -1.015625 2.1875 -3.25zm-11.546875 -5.671875l11.578125 0q-0.234375 -2.625 -1.328125 -3.9375q-1.671875 -2.03125 -4.359375 -2.03125q-2.421875 0 -4.078125 1.625q-1.640625 1.625 -1.8125 4.34375zm19.589844 -8.390625l3.515625 0l0 15.828125l9.75 -15.828125l3.78125 0l0 20.75l-3.515625 0l0 -15.71875l-9.75 15.71875l-3.78125 0l0 -20.75zm12.40625 -7.84375l2.390625 0q-0.28125 2.4375 -1.78125 3.75q-1.5 1.3125 -3.96875 1.3125q-2.5 0 -4.0 -1.296875q-1.5 -1.3125 -1.78125 -3.765625l2.390625 0q0.28125 1.328125 1.09375 1.984375q0.8125 0.65625 2.171875 0.65625q1.578125 0 2.390625 -0.640625q0.8125 -0.640625 1.09375 -2.0zm8.046875 7.84375l16.84375 0l0 2.921875l-6.671875 0l0 17.828125l-3.5 0l0 -17.828125l-6.671875 0l0 -2.921875zm20.210938 0l3.515625 0l0 15.828125l9.75 -15.828125l3.78125 0l0 20.75l-3.515625 0l0 -15.71875l-9.75 15.71875l-3.78125 0l0 -20.75zm22.359375 0l3.515625 0l0 8.640625l9.75 0l0 -8.640625l3.515625 0l0 20.75l-3.515625 0l0 -9.203125l-9.75 0l0 9.203125l-3.515625 0l0 -20.75zm22.089844 0l11.9375 0l0 2.921875l-8.421875 0l0 17.828125l-3.515625 0l0 -20.75zm13.261719 10.375q0 -5.765625 3.203125 -8.53125q2.671875 -2.3125 6.53125 -2.3125q4.265625 0 6.984375 2.8125q2.71875 2.796875 2.71875 7.734375q0 4.015625 -1.203125 6.3125q-1.203125 2.28125 -3.5 3.5625q-2.296875 1.265625 -5.0 1.265625q-4.359375 0 -7.046875 -2.796875q-2.6875 -2.796875 -2.6875 -8.046875zm3.609375 0q0 3.984375 1.734375 5.96875q1.75 1.984375 4.390625 1.984375q2.609375 0 4.34375 -1.984375q1.75 -2.0 1.75 -6.078125q0 -3.859375 -1.75 -5.828125q-1.75 -1.984375 -4.34375 -1.984375q-2.640625 0 -4.390625 1.96875q-1.734375 1.96875 -1.734375 5.953125zm19.964844 -10.375l8.109375 0q2.984375 0 4.4375 0.5q1.453125 0.5 2.5 1.828125q1.046875 1.328125 1.046875 3.1875q0 1.484375 -0.625 2.59375q-0.609375 1.09375 -1.828125 1.84375q1.453125 0.484375 2.421875 1.828125q0.96875 1.328125 0.96875 3.171875q-0.1875 2.9375 -2.109375 4.375q-1.90625 1.421875 -5.5625 1.421875l-9.359375 0l0 -20.75zm3.515625 8.734375l3.75 0q2.25 0 3.078125 -0.234375q0.84375 -0.234375 1.5 -0.9375q0.671875 -0.71875 0.671875 -1.71875q0 -1.640625 -1.15625 -2.28125q-1.15625 -0.640625 -3.96875 -0.640625l-3.875 0l0 5.8125zm0 9.125l4.625 0q3.0 0 4.109375 -0.6875q1.109375 -0.703125 1.171875 -2.40625q0 -0.984375 -0.65625 -1.828125q-0.640625 -0.859375 -1.671875 -1.078125q-1.03125 -0.234375 -3.3125 -0.234375l-4.265625 0l0 6.234375zm31.25 0.328125q-1.953125 1.65625 -3.765625 2.34375q-1.796875 0.6875 -3.875 0.6875q-3.40625 0 -5.25 -1.671875q-1.828125 -1.671875 -1.828125 -4.265625q0 -1.53125 0.6875 -2.78125q0.6875 -1.265625 1.8125 -2.015625q1.125 -0.765625 2.53125 -1.15625q1.03125 -0.28125 3.125 -0.53125q4.265625 -0.515625 6.265625 -1.21875q0.03125 -0.71875 0.03125 -0.90625q0 -2.15625 -1.0 -3.03125q-1.34375 -1.1875 -4.0 -1.1875q-2.484375 0 -3.671875 0.875q-1.171875 0.859375 -1.75 3.0625l-3.4375 -0.46875q0.46875 -2.203125 1.546875 -3.5625q1.078125 -1.359375 3.109375 -2.09375q2.03125 -0.734375 4.703125 -0.734375q2.65625 0 4.3125 0.625q1.671875 0.625 2.453125 1.578125q0.78125 0.953125 1.09375 2.390625q0.171875 0.90625 0.171875 3.25l0 4.6875q0 4.890625 0.21875 6.203125q0.234375 1.296875 0.890625 2.484375l-3.671875 0q-0.546875 -1.09375 -0.703125 -2.5625zm-0.296875 -7.84375q-1.90625 0.78125 -5.734375 1.328125q-2.171875 0.3125 -3.078125 0.703125q-0.890625 0.390625 -1.375 1.140625q-0.484375 0.75 -0.484375 1.671875q0 1.40625 1.0625 2.34375q1.0625 0.9375 3.109375 0.9375q2.03125 0 3.609375 -0.890625q1.59375 -0.890625 2.328125 -2.4375q0.5625 -1.1875 0.5625 -3.515625l0 -1.28125zm9.027344 -10.34375l3.515625 0l0 8.640625l9.75 0l0 -8.640625l3.515625 0l0 20.75l-3.515625 0l0 -9.203125l-9.75 0l0 9.203125l-3.515625 0l0 -20.75zm22.074219 0l3.515625 0l0 15.828125l9.75 -15.828125l3.78125 0l0 20.75l-3.515625 0l0 -15.71875l-9.75 15.71875l-3.78125 0l0 -20.75zm36.546875 14.0625l3.625 0.453125q-0.859375 3.1875 -3.1875 4.953125q-2.3125 1.75 -5.9375 1.75q-4.546875 0 -7.21875 -2.796875q-2.65625 -2.8125 -2.65625 -7.875q0 -5.234375 2.6875 -8.125q2.703125 -2.890625 7.0 -2.890625q4.15625 0 6.796875 2.84375q2.640625 2.828125 2.640625 7.96875q0 0.3125 -0.03125 0.9375l-15.46875 0q0.203125 3.40625 1.9375 5.234375q1.734375 1.8125 4.34375 1.8125q1.921875 0 3.28125 -1.015625q1.375 -1.015625 2.1875 -3.25zm-11.546875 -5.671875l11.578125 0q-0.234375 -2.625 -1.328125 -3.9375q-1.671875 -2.03125 -4.359375 -2.03125q-2.421875 0 -4.078125 1.625q-1.640625 1.625 -1.8125 4.34375z" fill-rule="nonzero"></path><path fill="#000000" fill-opacity="0.0" d="m383.7743 31.396326l551.8425 0l0 82.3937l-551.8425 0z" fill-rule="nonzero"></path><path fill="#666666" d="m395.8993 50.155697l22.515625 0l0 28.640629l-3.796875 0l0 -25.250004l-14.921875 0l0 25.250004l-3.796875 0l0 -28.640629zm28.265625 36.593754l0 -28.703129l3.203125 0l0 2.703125q1.125 -1.578125 2.546875 -2.375q1.4375 -0.796875 3.46875 -0.796875q2.65625 0 4.6875 1.375q2.03125 1.359375 3.0625 3.859375q1.03125 2.4843788 1.03125 5.453129q0 3.1875 -1.140625 5.734375q-1.140625 2.546875 -3.328125 3.90625q-2.171875 1.359375 -4.5625 1.359375q-1.765625 0 -3.171875 -0.734375q-1.390625 -0.75 -2.28125 -1.890625l0 10.109375l-3.515625 0zm3.1875 -18.203125q0 4.0 1.609375 5.921875q1.625 1.90625 3.9375 1.90625q2.34375 0 4.0 -1.984375q1.671875 -1.984375 1.671875 -6.140625q0 -3.96875 -1.625 -5.937504q-1.625 -1.96875 -3.890625 -1.96875q-2.25 0 -3.984375 2.09375q-1.71875 2.0937538 -1.71875 6.109379zm17.746094 -0.125q0 -5.765629 3.203125 -8.531254q2.671875 -2.3125 6.53125 -2.3125q4.265625 0 6.984375 2.8125q2.71875 2.796875 2.71875 7.734379q0 4.015625 -1.203125 6.3125q-1.203125 2.28125 -3.5 3.5625q-2.296875 1.265625 -5.0 1.265625q-4.359375 0 -7.046875 -2.796875q-2.6875 -2.796875 -2.6875 -8.046875zm3.609375 0q0 3.984375 1.734375 5.96875q1.75 1.984375 4.390625 1.984375q2.609375 0 4.34375 -1.984375q1.75 -2.0 1.75 -6.078125q0 -3.859375 -1.75 -5.828129q-1.75 -1.984375 -4.34375 -1.984375q-2.640625 0 -4.390625 1.96875q-1.734375 1.9687538 -1.734375 5.953129zm34.152344 3.6875l3.625 0.453125q-0.859375 3.1875 -3.1875 4.953125q-2.3125 1.75 -5.9375 1.75q-4.546875 0 -7.21875 -2.796875q-2.65625 -2.8125 -2.65625 -7.875q0 -5.234379 2.6875 -8.125004q2.703125 -2.890625 7.0 -2.890625q4.15625 0 6.796875 2.84375q2.640625 2.828125 2.640625 7.968754q0 0.3125 -0.03125 0.9375l-15.46875 0q0.203125 3.40625 1.9375 5.234375q1.734375 1.8125 4.34375 1.8125q1.921875 0 3.28125 -1.015625q1.375 -1.015625 2.1875 -3.25zm-11.546875 -5.671875l11.578125 0q-0.234375 -2.6250038 -1.328125 -3.9375038q-1.671875 -2.03125 -4.359375 -2.03125q-2.421875 0 -4.078125 1.625q-1.640625 1.625 -1.8125 4.343754zm19.574219 -8.390629l3.515625 0l0 8.968754q1.671875 0 2.34375 -0.640625q0.671875 -0.640625 1.984375 -3.7500038q1.03125 -2.46875 1.671875 -3.25q0.65625 -0.78125 1.484375 -1.046875q0.84375 -0.28125 2.703125 -0.28125l0.703125 0l0 2.921875l-0.96875 -0.03125q-1.390625 0 -1.78125 0.421875q-0.40625 0.421875 -1.25 2.546875q-0.796875 2.0312538 -1.46875 2.8125038q-0.65625 0.78125 -2.046875 1.4375q2.265625 0.59375 4.453125 4.21875l3.84375 6.421875l-3.859375 0l-3.75 -6.421875q-1.15625 -1.9375 -2.015625 -2.546875q-0.859375 -0.625 -2.046875 -0.625l0 9.59375l-3.515625 0l0 -20.750004zm15.625 0l16.84375 0l0 2.921875l-6.671875 0l0 17.828129l-3.5 0l0 -17.828129l-6.671875 0l0 -2.921875zm34.07422 -3.078125l0 4.078125l-3.765625 0l0 -3.21875q0 -2.625 0.625 -3.796875q0.8125 -1.5625 2.59375 -2.359375l0.859375 1.375q-1.078125 0.4375 -1.59375 1.328125q-0.5 0.890625 -0.546875 2.59375l1.828125 0zm6.0625 0l0 4.078125l-3.78125 0l0 -3.21875q0 -2.625 0.625 -3.796875q0.828125 -1.5625 2.609375 -2.359375l0.859375 1.375q-1.078125 0.4375 -1.59375 1.328125q-0.5 0.890625 -0.5625 2.59375l1.84375 0zm4.8359375 23.828129l0 -28.640629l5.703125 0l6.78125 20.281254q0.9375 2.828125 1.359375 4.234375q0.5 -1.5625 1.53125 -4.59375l6.859375 -19.921879l5.09375 0l0 28.640629l-3.65625 0l0 -23.968754l-8.3125 23.968754l-3.421875 0l-8.28125 -24.375004l0 24.375004l-3.65625 0zm46.523438 -2.5625q-1.953125 1.65625 -3.765625 2.34375q-1.796875 0.6875 -3.875 0.6875q-3.40625 0 -5.25 -1.671875q-1.828125 -1.671875 -1.828125 -4.265625q0 -1.53125 0.6875 -2.78125q0.6875 -1.265625 1.8125 -2.015625q1.125 -0.765625 2.53125 -1.15625q1.03125 -0.28125 3.125 -0.53125q4.265625 -0.515625 6.265625 -1.21875q0.03125 -0.71875 0.03125 -0.90625q0 -2.1562538 -1.0 -3.0312538q-1.34375 -1.1875 -4.0 -1.1875q-2.484375 0 -3.671875 0.875q-1.171875 0.859375 -1.75 3.0625038l-3.4375 -0.4687538q0.46875 -2.203125 1.546875 -3.5625q1.078125 -1.359375 3.109375 -2.09375q2.03125 -0.734375 4.703125 -0.734375q2.65625 0 4.3125 0.625q1.671875 0.625 2.453125 1.578125q0.78125 0.953125 1.09375 2.390625q0.171875 0.90625 0.171875 3.2500038l0 4.6875q0 4.890625 0.21875 6.203125q0.234375 1.296875 0.890625 2.484375l-3.671875 0q-0.546875 -1.09375 -0.703125 -2.5625zm-0.296875 -7.84375q-1.90625 0.78125 -5.734375 1.328125q-2.171875 0.3125 -3.078125 0.703125q-0.890625 0.390625 -1.375 1.140625q-0.484375 0.75 -0.484375 1.671875q0 1.40625 1.0625 2.34375q1.0625 0.9375 3.109375 0.9375q2.03125 0 3.609375 -0.890625q1.59375 -0.890625 2.328125 -2.4375q0.5625 -1.1875 0.5625 -3.515625l0 -1.28125zm9.027344 -10.343754l3.515625 0l0 8.640629l9.75 0l0 -8.640629l3.515625 0l0 20.750004l-3.515625 0l0 -9.203125l-9.75 0l0 9.203125l-3.515625 0l0 -20.750004zm22.074219 0l3.515625 0l0 15.828129l9.75 -15.828129l3.78125 0l0 20.750004l-3.515625 0l0 -15.718754l-9.75 15.718754l-3.78125 0l0 -20.750004zm34.40625 -7.890625l3.515625 0l0 9.90625q1.09375 -1.25 2.40625 -1.859375q1.3125 -0.625 2.8125 -0.625q3.6875 0 5.84375 3.078125q2.171875 3.078125 2.171875 7.750004q0 4.859375 -2.328125 7.859375q-2.328125 3.0 -5.78125 3.0q-1.140625 0 -2.3125 -0.359375q-1.171875 -0.34375 -2.8125 -1.90625l0 9.75l-3.515625 0l0 -9.75q-1.046875 1.125 -2.328125 1.703125q-1.28125 0.5625 -2.765625 0.5625q-3.265625 0 -5.703125 -2.859375q-2.4375 -2.859375 -2.4375 -8.203125q0 -4.500004 2.203125 -7.562504q2.203125 -3.0625 5.9375 -3.0625q1.5625 0 2.828125 0.625q1.28125 0.609375 2.265625 1.859375l0 -9.90625zm3.5 18.343754q0 4.6875 1.28125 6.296875q1.296875 1.609375 3.234375 1.609375q2.140625 0 3.65625 -1.96875q1.515625 -1.984375 1.515625 -6.171875q0 -3.9375 -1.40625 -5.875004q-1.390625 -1.9375 -3.578125 -1.9375q-2.34375 0 -3.53125 2.015625q-1.171875 2.0156288 -1.171875 6.031254zm-13.15625 -0.390625q0 4.390625 1.46875 6.328125q1.46875 1.9375 3.65625 1.9375q2.296875 0 3.421875 -1.921875q1.140625 -1.921875 1.140625 -5.78125q0 -4.09375 -1.203125 -6.140629q-1.1875 -2.0625 -3.59375 -2.0625q-2.15625 0 -3.53125 2.015625q-1.359375 2.0000038 -1.359375 5.625004zm44.70703 4.0l3.625 0.453125q-0.859375 3.1875 -3.1875 4.953125q-2.3125 1.75 -5.9375 1.75q-4.546875 0 -7.21875 -2.796875q-2.65625 -2.8125 -2.65625 -7.875q0 -5.234379 2.6875 -8.125004q2.703125 -2.890625 7.0 -2.890625q4.15625 0 6.796875 2.84375q2.640625 2.828125 2.640625 7.968754q0 0.3125 -0.03125 0.9375l-15.46875 0q0.203125 3.40625 1.9375 5.234375q1.734375 1.8125 4.34375 1.8125q1.921875 0 3.28125 -1.015625q1.375 -1.015625 2.1875 -3.25zm-11.546875 -5.671875l11.578125 0q-0.234375 -2.6250038 -1.328125 -3.9375038q-1.671875 -2.03125 -4.359375 -2.03125q-2.421875 0 -4.078125 1.625q-1.640625 1.625 -1.8125 4.343754zm33.121094 4.765625l3.453125 0.4375q-0.5625 3.578125 -2.90625 5.609375q-2.328125 2.015625 -5.71875 2.015625q-4.265625 0 -6.859375 -2.78125q-2.578125 -2.78125 -2.578125 -7.984375q0 -3.359375 1.109375 -5.875004q1.125 -2.515625 3.390625 -3.78125q2.28125 -1.265625 4.953125 -1.265625q3.375 0 5.515625 1.71875q2.15625 1.703125 2.765625 4.843754l-3.421875 0.53125q-0.484375 -2.0937538 -1.734375 -3.1406288q-1.234375 -1.0625 -2.984375 -1.0625q-2.65625 0 -4.328125 1.90625q-1.65625 1.9062538 -1.65625 6.031254q0 4.171875 1.59375 6.078125q1.609375 1.890625 4.1875 1.890625q2.078125 0 3.453125 -1.265625q1.390625 -1.28125 1.765625 -3.90625zm4.578125 -13.156254l16.84375 0l0 2.921875l-6.671875 0l0 17.828129l-3.5 0l0 -17.828129l-6.671875 0l0 -2.921875z" fill-rule="nonzero"></path><path fill="#666666" d="m392.97742 98.15569l3.828125 0l9.328125 17.546875l8.171875 -17.546875l3.765625 0l-10.75 22.265625q-2.0 4.1875 -3.296875 5.484375q-1.28125 1.28125 -3.6875 1.28125q-1.46875 0 -3.59375 -0.6875l0 -3.234375q1.515625 0.875 3.21875 0.875q1.390625 0 2.390625 -0.890625q1.015625 -0.890625 2.21875 -4.046875l-11.59375 -21.046875zm27.832031 7.890625l3.515625 0l0 8.96875q1.671875 0 2.34375 -0.640625q0.671875 -0.640625 1.984375 -3.75q1.03125 -2.46875 1.671875 -3.25q0.65625 -0.78125 1.484375 -1.046875q0.84375 -0.28125 2.703125 -0.28125l0.703125 0l0 2.921875l-0.96875 -0.03125q-1.390625 0 -1.78125 0.421875q-0.40625 0.421875 -1.25 2.546875q-0.796875 2.03125 -1.46875 2.8125q-0.65625 0.78125 -2.046875 1.4375q2.265625 0.59375 4.453125 4.21875l3.84375 6.421875l-3.859375 0l-3.75 -6.421875q-1.15625 -1.9375 -2.015625 -2.546875q-0.859375 -0.625 -2.046875 -0.625l0 9.59375l-3.515625 0l0 -20.75zm17.515625 28.703133l0 -28.703133l3.203125 0l0 2.703125q1.125 -1.578125 2.546875 -2.375q1.4375 -0.796875 3.46875 -0.796875q2.65625 0 4.6875 1.375q2.03125 1.359375 3.0625 3.859375q1.03125 2.484375 1.03125 5.453125q0 3.1875 -1.140625 5.734375q-1.140625 2.546875 -3.328125 3.90625q-2.171875 1.359375 -4.5625 1.359375q-1.765625 0 -3.171875 -0.734375q-1.390625 -0.75 -2.28125 -1.890625l0 10.109383l-3.515625 0zm3.1875 -18.203133q0 4.0 1.609375 5.921875q1.625 1.90625 3.9375 1.90625q2.34375 0 4.0 -1.984375q1.671875 -1.984375 1.671875 -6.140625q0 -3.96875 -1.625 -5.9375q-1.625 -1.96875 -3.890625 -1.96875q-2.25 0 -3.984375 2.09375q-1.71875 2.09375 -1.71875 6.109375zm32.589844 7.6875q-1.953125 1.65625 -3.765625 2.34375q-1.796875 0.6875 -3.875 0.6875q-3.40625 0 -5.25 -1.671875q-1.828125 -1.671875 -1.828125 -4.265625q0 -1.53125 0.6875 -2.78125q0.6875 -1.265625 1.8125 -2.015625q1.125 -0.765625 2.53125 -1.15625q1.03125 -0.28125 3.125 -0.53125q4.265625 -0.515625 6.265625 -1.21875q0.03125 -0.71875 0.03125 -0.90625q0 -2.15625 -1.0 -3.03125q-1.34375 -1.1875 -4.0 -1.1875q-2.484375 0 -3.671875 0.875q-1.171875 0.859375 -1.75 3.0625l-3.4375 -0.46875q0.46875 -2.203125 1.546875 -3.5625q1.078125 -1.359375 3.109375 -2.09375q2.03125 -0.734375 4.703125 -0.734375q2.65625 0 4.3125 0.625q1.671875 0.625 2.453125 1.578125q0.78125 0.953125 1.09375 2.390625q0.171875 0.90625 0.171875 3.25l0 4.6875q0 4.890625 0.21875 6.203125q0.234375 1.296875 0.890625 2.484375l-3.671875 0q-0.546875 -1.09375 -0.703125 -2.5625zm-0.296875 -7.84375q-1.90625 0.78125 -5.734375 1.328125q-2.171875 0.3125 -3.078125 0.703125q-0.890625 0.390625 -1.375 1.140625q-0.484375 0.75 -0.484375 1.671875q0 1.40625 1.0625 2.34375q1.0625 0.9375 3.109375 0.9375q2.03125 0 3.609375 -0.890625q1.59375 -0.890625 2.328125 -2.4375q0.5625 -1.1875 0.5625 -3.515625l0 -1.28125zm9.011719 -10.34375l3.515625 0l0 15.828125l9.75 -15.828125l3.78125 0l0 20.75l-3.515625 0l0 -15.71875l-9.75 15.71875l-3.78125 0l0 -20.75zm22.359375 0l3.515625 0l0 8.640625l9.75 0l0 -8.640625l3.515625 0l0 20.75l-3.515625 0l0 -9.203125l-9.75 0l0 9.203125l-3.515625 0l0 -20.75zm41.82422 0l3.515625 0l0 20.75l-3.515625 0l0 -20.75zm-19.671875 0l3.515625 0l0 8.109375l4.453125 0q4.359375 0 6.703125 1.6875q2.359375 1.6875 2.359375 4.65625q0 2.609375 -1.96875 4.453125q-1.953125 1.84375 -6.28125 1.84375l-8.78125 0l0 -20.75zm3.515625 17.859375l3.6875 0q3.34375 0 4.765625 -0.8125q1.421875 -0.828125 1.421875 -2.5625q0 -1.359375 -1.0625 -2.40625q-1.046875 -1.0625 -4.65625 -1.0625l-4.15625 0l0 6.84375zm24.21875 -21.953125l0 -4.078125l3.765625 0l0 3.21875q0 2.609375 -0.609375 3.765625q-0.828125 1.578125 -2.609375 2.390625l-0.859375 -1.390625q1.046875 -0.4375 1.5625 -1.359375q0.53125 -0.921875 0.578125 -2.546875l-1.828125 0zm6.046875 0l0 -4.078125l3.78125 0l0 3.21875q0 2.609375 -0.609375 3.765625q-0.84375 1.578125 -2.625 2.390625l-0.859375 -1.390625q1.0625 -0.4375 1.578125 -1.359375q0.515625 -0.921875 0.578125 -2.546875l-1.84375 0z" fill-rule="nonzero"></path></g></svg>

