<?xml version="1.0" standalone="yes"?>

<svg version="1.1" viewBox="0.0 0.0 960.0 540.0" fill="none" stroke="none" stroke-linecap="square" stroke-miterlimit="10" xmlns="http://www.w3.org/2000/svg" xmlns:xlink="http://www.w3.org/1999/xlink"><clipPath id="g2b8db08d9_047.0"><path d="m0 0l960.0 0l0 540.0l-960.0 0l0 -540.0z" clip-rule="nonzero"></path></clipPath><g clip-path="url(#g2b8db08d9_047.0)"><path fill="#ffffff" d="m0 0l960.0 0l0 540.0l-960.0 0z" fill-rule="nonzero"></path><path fill="#cccccc" d="m633.18896 56.4147l280.9134 0l0 327.90552l-280.9134 0z" fill-rule="nonzero"></path><path stroke="#666666" stroke-width="2.0" stroke-linejoin="round" stroke-linecap="butt" d="m633.18896 56.4147l280.9134 0l0 327.90552l-280.9134 0z" fill-rule="nonzero"></path><path fill="#ffd966" d="m222.08408 281.17212l-103.175446 0l-20.635582 -20.63559l0 -143.77386l123.81103 0z" fill-rule="nonzero"></path><path stroke="#666666" stroke-width="2.0" stroke-linejoin="round" stroke-linecap="butt" d="m222.08408 281.17212l-103.175446 0l-20.635582 -20.63559l0 -143.77386l123.81103 0z" fill-rule="nonzero"></path><path fill="#000000" fill-opacity="0.0" d="m58.73581 56.4147l210.17322 0l0 39.527554l-210.17322 0z" fill-rule="nonzero"></path><path fill="#000000" d="m81.4231 75.50657l0 1.609375l5.0625 0q-0.109375 2.296875 -1.28125 3.625q-1.15625 1.3125 -2.984375 1.3125q-3.25 0 -4.078125 -3.453125l-1.734375 0.453125q1.171875 4.515625 5.671875 4.515625q3.21875 0 4.796875 -2.078125q1.578125 -2.078125 1.46875 -5.109375q0 -1.84375 -0.703125 -3.375q-0.703125 -1.53125 -2.15625 -2.515625q-1.4375 -0.984375 -3.4375 -0.984375q-2.109375 0 -3.546875 1.046875q-1.421875 1.046875 -1.921875 2.90625l1.765625 0.46875q0.765625 -2.84375 3.71875 -2.84375q1.984375 0 3.109375 1.203125q1.125 1.1875 1.234375 3.21875l-4.984375 0zm8.84668 -2.03125l1.65625 0l0 4.265625q0.8125 0 1.125 -0.296875q0.3125 -0.3125 0.9375 -1.796875q0.5 -1.15625 0.796875 -1.53125q0.3125 -0.375 0.703125 -0.5q0.40625 -0.140625 1.28125 -0.140625l0.34375 0l0 1.390625l-0.46875 -0.015625q-0.65625 0 -0.84375 0.203125q-0.1875 0.203125 -0.59375 1.21875q-0.375 0.953125 -0.703125 1.328125q-0.3125 0.375 -0.96875 0.671875q1.078125 0.296875 2.125 2.015625l1.828125 3.046875l-1.84375 0l-1.78125 -3.046875q-0.546875 -0.921875 -0.953125 -1.21875q-0.40625 -0.296875 -0.984375 -0.296875l0 4.5625l-1.65625 0l0 -9.859375zm7.5371094 4.9375q0 -2.734375 1.53125 -4.0625q1.265625 -1.09375 3.09375 -1.09375q2.03125 0 3.3125 1.34375q1.296875 1.328125 1.296875 3.671875q0 1.90625 -0.578125 3.0q-0.5625 1.078125 -1.65625 1.6875q-1.078125 0.59375 -2.375 0.59375q-2.0625 0 -3.34375 -1.328125q-1.28125 -1.328125 -1.28125 -3.8125zm1.71875 0q0 1.890625 0.828125 2.828125q0.828125 0.9375 2.078125 0.9375q1.25 0 2.0625 -0.9375q0.828125 -0.953125 0.828125 -2.890625q0 -1.828125 -0.828125 -2.765625q-0.828125 -0.9375 -2.0625 -0.9375q-1.25 0 -2.078125 0.9375q-0.828125 0.9375 -0.828125 2.828125zm9.297592 -4.9375l1.671875 0l0 4.109375l4.625 0l0 -4.109375l1.671875 0l0 9.859375l-1.671875 0l0 -4.375l-4.625 0l0 4.375l-1.671875 0l0 -9.859375zm9.662216 4.9375q0 -2.734375 1.53125 -4.0625q1.265625 -1.09375 3.09375 -1.09375q2.03125 0 3.3125 1.34375q1.296875 1.328125 1.296875 3.671875q0 1.90625 -0.578125 3.0q-0.5625 1.078125 -1.65625 1.6875q-1.078125 0.59375 -2.375 0.59375q-2.0625 0 -3.34375 -1.328125q-1.28125 -1.328125 -1.28125 -3.8125zm1.71875 0q0 1.890625 0.828125 2.828125q0.828125 0.9375 2.078125 0.9375q1.25 0 2.0625 -0.9375q0.828125 -0.953125 0.828125 -2.890625q0 -1.828125 -0.828125 -2.765625q-0.828125 -0.9375 -2.0625 -0.9375q-1.25 0 -2.078125 0.9375q-0.828125 0.9375 -0.828125 2.828125zm9.32885 -4.9375l2.59375 0l2.59375 7.890625l2.875 -7.890625l2.40625 0l0 9.859375l-1.671875 0l0 -7.9375l-2.90625 7.9375l-1.5 0l-2.75 -8.3125l0 8.3125l-1.640625 0l0 -9.859375zm12.779297 0l1.671875 0l0 7.515625l4.625 -7.515625l1.8125 0l0 9.859375l-1.671875 0l0 -7.46875l-4.640625 7.46875l-1.796875 0l0 -9.859375zm10.421265 0l1.65625 0l0 4.265625q0.8125 0 1.125 -0.296875q0.3125 -0.3125 0.9375 -1.796875q0.5 -1.15625 0.796875 -1.53125q0.3125 -0.375 0.703125 -0.5q0.40625 -0.140625 1.28125 -0.140625l0.34375 0l0 1.390625l-0.46875 -0.015625q-0.65625 0 -0.84375 0.203125q-0.1875 0.203125 -0.59375 1.21875q-0.375 0.953125 -0.703125 1.328125q-0.3125 0.375 -0.96875 0.671875q1.078125 0.296875 2.125 2.015625l1.828125 3.046875l-1.84375 0l-1.78125 -3.046875q-0.546875 -0.921875 -0.953125 -1.21875q-0.40625 -0.296875 -0.984375 -0.296875l0 4.5625l-1.65625 0l0 -9.859375zm14.599609 8.640625q-0.9375 0.796875 -1.796875 1.125q-0.859375 0.3125 -1.84375 0.3125q-1.609375 0 -2.484375 -0.78125q-0.875 -0.796875 -0.875 -2.03125q0 -0.734375 0.328125 -1.328125q0.328125 -0.59375 0.859375 -0.953125q0.53125 -0.359375 1.203125 -0.546875q0.5 -0.140625 1.484375 -0.25q2.03125 -0.25 2.984375 -0.578125q0 -0.34375 0 -0.4375q0 -1.015625 -0.46875 -1.4375q-0.640625 -0.5625 -1.90625 -0.5625q-1.171875 0 -1.734375 0.40625q-0.5625 0.40625 -0.828125 1.46875l-1.640625 -0.234375q0.234375 -1.046875 0.734375 -1.6875q0.515625 -0.640625 1.46875 -0.984375q0.96875 -0.359375 2.25 -0.359375q1.265625 0 2.046875 0.296875q0.78125 0.296875 1.15625 0.75q0.375 0.453125 0.515625 1.140625q0.09375 0.421875 0.09375 1.53125l0 2.234375q0 2.328125 0.09375 2.953125q0.109375 0.609375 0.4375 1.171875l-1.75 0q-0.265625 -0.515625 -0.328125 -1.21875zm-0.140625 -3.71875q-0.90625 0.359375 -2.734375 0.625q-1.03125 0.140625 -1.453125 0.328125q-0.421875 0.1875 -0.65625 0.546875q-0.234375 0.359375 -0.234375 0.796875q0 0.671875 0.5 1.125q0.515625 0.4375 1.484375 0.4375q0.96875 0 1.71875 -0.421875q0.75 -0.4375 1.109375 -1.15625q0.265625 -0.578125 0.265625 -1.671875l0 -0.609375zm9.262146 -4.921875l1.671875 0l0 7.515625l4.625 -7.515625l1.8125 0l0 9.859375l-1.671875 0l0 -7.46875l-4.640625 7.46875l-1.796875 0l0 -9.859375zm15.901428 -3.734375l8.828125 0l0 1.59375l-7.03125 0l0 4.203125l3.25 0q1.796875 0 2.859375 0.34375q1.0625 0.34375 1.703125 1.296875q0.640625 0.9375 0.640625 2.203125q0 1.03125 -0.46875 1.9375q-0.453125 0.890625 -1.359375 1.453125q-0.90625 0.5625 -3.09375 0.5625l-5.328125 0l0 -13.59375zm1.796875 12.0625l3.609375 0q1.453125 0 2.171875 -0.59375q0.734375 -0.59375 0.734375 -1.78125q0 -0.84375 -0.421875 -1.40625q-0.40625 -0.5625 -1.15625 -0.75q-0.734375 -0.1875 -2.53125 -0.1875l-2.40625 0l0 4.71875zm10.149414 -8.328125l1.671875 0l0 7.515625l4.625 -7.515625l1.8125 0l0 9.859375l-1.671875 0l0 -7.46875l-4.640625 7.46875l-1.796875 0l0 -9.859375zm12.608765 5.40625l0 -1.3125q1.046875 0 1.4375 -0.078125q0.390625 -0.078125 0.734375 -0.4375q0.34375 -0.375 0.34375 -0.9375q0 -0.671875 -0.453125 -1.078125q-0.453125 -0.40625 -1.171875 -0.40625q-1.40625 0 -1.96875 1.65625l-1.59375 -0.25q0.75 -2.78125 3.578125 -2.78125q1.578125 0 2.46875 0.875q0.90625 0.859375 0.90625 2.046875q0 1.203125 -1.171875 1.921875q0.75 0.40625 1.109375 1.03125q0.375 0.609375 0.375 1.453125q0 1.328125 -0.96875 2.15625q-0.953125 0.8125 -2.6875 0.8125q-3.375 0 -3.90625 -3.0l1.5625 -0.328125q0.21875 0.953125 0.859375 1.46875q0.65625 0.515625 1.5 0.515625q0.84375 0 1.40625 -0.46875q0.5625 -0.484375 0.5625 -1.234375q0 -0.5625 -0.359375 -0.984375q-0.34375 -0.4375 -0.75 -0.546875q-0.390625 -0.109375 -1.4375 -0.109375q-0.078125 0 -0.375 0.015625zm6.381958 -5.40625l1.671875 0l0 4.109375l4.625 0l0 -4.109375l1.671875 0l0 9.859375l-1.671875 0l0 -4.375l-4.625 0l0 4.375l-1.671875 0l0 -9.859375zm17.0372 6.6875l1.71875 0.21875q-0.40625 1.5 -1.515625 2.34375q-1.09375 0.828125 -2.8125 0.828125q-2.15625 0 -3.421875 -1.328125q-1.265625 -1.328125 -1.265625 -3.734375q0 -2.484375 1.265625 -3.859375q1.28125 -1.375 3.328125 -1.375q1.984375 0 3.234375 1.34375q1.25 1.34375 1.25 3.796875q0 0.140625 -0.015625 0.4375l-7.34375 0q0.09375 1.625 0.921875 2.484375q0.828125 0.859375 2.0625 0.859375q0.90625 0 1.546875 -0.46875q0.65625 -0.484375 1.046875 -1.546875zm-5.484375 -2.703125l5.5 0q-0.109375 -1.234375 -0.625 -1.859375q-0.796875 -0.96875 -2.078125 -0.96875q-1.140625 0 -1.9375 0.78125q-0.78125 0.765625 -0.859375 2.046875zm15.547607 2.265625l1.640625 0.21875q-0.265625 1.6875 -1.375 2.65625q-1.109375 0.953125 -2.734375 0.953125q-2.015625 0 -3.25 -1.3125q-1.21875 -1.328125 -1.21875 -3.796875q0 -1.59375 0.515625 -2.78125q0.53125 -1.203125 1.609375 -1.796875q1.09375 -0.609375 2.359375 -0.609375q1.609375 0 2.625 0.8125q1.015625 0.8125 1.3125 2.3125l-1.625 0.25q-0.234375 -1.0 -0.828125 -1.5q-0.59375 -0.5 -1.421875 -0.5q-1.265625 0 -2.0625 0.90625q-0.78125 0.90625 -0.78125 2.859375q0 1.984375 0.765625 2.890625q0.765625 0.890625 1.984375 0.890625q0.984375 0 1.640625 -0.59375q0.65625 -0.609375 0.84375 -1.859375z" fill-rule="nonzero"></path><path fill="#000000" d="m124.448044 95.47532l5.703125 0q1.75 0 2.625 0.640625q0.875 0.640625 0.875 1.9375q0 0.828125 -0.484375 1.4375q-0.46875 0.609375 -1.1875 0.8125q1.015625 0.25 1.515625 0.9375q0.5 0.6875 0.5 1.5q0 1.15625 -0.84375 1.875q-0.84375 0.71875 -2.5 0.71875l-6.203125 0l0 -9.859375zm2.625 4.09375l1.6875 0q1.203125 0 1.75 -0.296875q0.546875 -0.3125 0.546875 -0.96875q0 -0.625 -0.515625 -0.890625q-0.5 -0.265625 -1.78125 -0.265625l-1.6875 0l0 2.421875zm0 4.09375l2.0625 0q1.109375 0 1.609375 -0.265625q0.515625 -0.265625 0.515625 -0.96875q0 -0.71875 -0.578125 -0.984375q-0.578125 -0.28125 -2.265625 -0.28125l-1.34375 0l0 2.5zm14.515732 -1.46875l2.609375 0.4375q-0.5 1.4375 -1.59375 2.1875q-1.078125 0.734375 -2.703125 0.734375q-2.5625 0 -3.796875 -1.671875q-0.96875 -1.34375 -0.96875 -3.40625q0 -2.4375 1.265625 -3.828125q1.28125 -1.390625 3.25 -1.390625q2.1875 0 3.453125 1.453125q1.28125 1.453125 1.234375 4.453125l-6.53125 0q0.015625 1.15625 0.625 1.8125q0.609375 0.640625 1.5 0.640625q0.609375 0 1.03125 -0.328125q0.421875 -0.34375 0.625 -1.09375zm0.15625 -2.625q-0.03125 -1.140625 -0.59375 -1.71875q-0.546875 -0.59375 -1.34375 -0.59375q-0.859375 0 -1.40625 0.625q-0.5625 0.609375 -0.546875 1.6875l3.890625 0zm4.453842 -4.09375l2.421875 0l0 1.453125q0.46875 -0.734375 1.28125 -1.203125q0.8125 -0.46875 1.796875 -0.46875q1.703125 0 2.90625 1.34375q1.203125 1.34375 1.203125 3.75q0 2.46875 -1.21875 3.84375q-1.203125 1.359375 -2.921875 1.359375q-0.8125 0 -1.484375 -0.3125q-0.65625 -0.328125 -1.390625 -1.125l0 4.96875l-2.59375 0l0 -13.609375zm2.578125 4.765625q0 1.65625 0.65625 2.453125q0.65625 0.796875 1.59375 0.796875q0.921875 0 1.515625 -0.71875q0.609375 -0.734375 0.609375 -2.40625q0 -1.546875 -0.625 -2.296875q-0.625 -0.75 -1.53125 -0.75q-0.96875 0 -1.59375 0.734375q-0.625 0.734375 -0.625 2.1875zm17.474106 -1.84375l-2.5625 0.46875q-0.140625 -0.78125 -0.59375 -1.171875q-0.453125 -0.390625 -1.1875 -0.390625q-0.984375 0 -1.5625 0.671875q-0.578125 0.671875 -0.578125 2.25q0 1.765625 0.578125 2.484375q0.59375 0.71875 1.59375 0.71875q0.75 0 1.21875 -0.421875q0.46875 -0.421875 0.671875 -1.453125l2.546875 0.4375q-0.390625 1.765625 -1.53125 2.671875q-1.125 0.890625 -3.03125 0.890625q-2.15625 0 -3.453125 -1.359375q-1.28125 -1.359375 -1.28125 -3.78125q0 -2.4375 1.296875 -3.796875q1.296875 -1.359375 3.484375 -1.359375q1.796875 0 2.859375 0.78125q1.0625 0.765625 1.53125 2.359375zm1.7194672 -2.921875l2.5 0l0 6.1875l4.015625 -6.1875l2.5625 0l0 9.859375l-2.5 0l0 -6.296875l-4.078125 6.296875l-2.5 0l0 -9.859375zm19.984482 0l0 9.859375l-2.59375 0l0 -4.09375l-0.234375 0q-0.859375 0 -1.25 0.21875q-0.390625 0.21875 -0.875 0.921875l-0.15625 0.203125l-1.71875 2.75l-3.03125 0l1.859375 -2.859375q0.796875 -1.21875 1.453125 -1.40625q-1.09375 -0.0625 -1.78125 -0.828125q-0.671875 -0.765625 -0.671875 -1.953125q0 -0.953125 0.4375 -1.625q0.453125 -0.6875 1.203125 -0.9375q0.75 -0.25 2.21875 -0.25l5.140625 0zm-2.59375 1.6875l-1.859375 0q-1.03125 0 -1.453125 0.296875q-0.421875 0.28125 -0.421875 0.96875q0 0.671875 0.46875 0.96875q0.484375 0.296875 1.5625 0.296875l1.703125 0l0 -2.53125zm18.459778 5.75l0 2.421875l-9.140625 0q0.15625 -1.375 0.890625 -2.59375q0.75 -1.234375 2.9375 -3.265625q1.765625 -1.640625 2.15625 -2.234375q0.546875 -0.796875 0.546875 -1.59375q0 -0.875 -0.46875 -1.34375q-0.46875 -0.46875 -1.296875 -0.46875q-0.8125 0 -1.296875 0.5q-0.484375 0.484375 -0.5625 1.625l-2.59375 -0.25q0.234375 -2.15625 1.453125 -3.09375q1.21875 -0.9375 3.0625 -0.9375q2.015625 0 3.15625 1.09375q1.15625 1.078125 1.15625 2.6875q0 0.921875 -0.328125 1.75q-0.328125 0.828125 -1.046875 1.734375q-0.46875 0.609375 -1.703125 1.75q-1.234375 1.125 -1.5625 1.5q-0.328125 0.359375 -0.53125 0.71875l5.171875 0z" fill-rule="nonzero"></path><path fill="#000000" fill-opacity="0.0" d="m224.74016 6.4986877l516.063 0l0 58.267715l-516.063 0z" fill-rule="nonzero"></path><path fill="#000000" d="m342.39664 23.312439l18.015625 0l0 22.90625l-3.046875 0l0 -20.203125l-11.9375 0l0 20.203125l-3.03125 0l0 -22.90625zm22.484375 29.296875l-0.3125 -2.640625q0.921875 0.25 1.609375 0.25q0.9375 0 1.5 -0.3125q0.5625 -0.3125 0.921875 -0.875q0.265625 -0.421875 0.859375 -2.09375q0.078125 -0.234375 0.25 -0.6875l-6.296875 -16.625l3.03125 0l3.453125 9.609375q0.671875 1.828125 1.203125 3.84375q0.484375 -1.9375 1.15625 -3.78125l3.546875 -9.671875l2.8125 0l-6.3125 16.875q-1.015625 2.734375 -1.578125 3.765625q-0.75 1.390625 -1.71875 2.03125q-0.96875 0.65625 -2.3125 0.65625q-0.8125 0 -1.8125 -0.34375zm28.28125 -29.84375l2.484375 0.03125q-0.171875 1.671875 -0.75 2.328125q-0.5625 0.65625 -1.46875 0.84375q-0.890625 0.1875 -3.515625 0.1875q-3.484375 0 -4.75 0.671875q-1.265625 0.671875 -1.828125 2.15625q-0.546875 1.46875 -0.609375 3.796875q1.0625 -1.578125 2.484375 -2.359375q1.421875 -0.796875 3.203125 -0.796875q3.265625 0 5.40625 2.25q2.140625 2.234375 2.140625 6.0625q0 2.90625 -1.078125 4.765625q-1.078125 1.859375 -2.5625 2.875q-1.46875 1.015625 -4.015625 1.015625q-2.953125 0 -4.59375 -1.34375q-1.640625 -1.359375 -2.515625 -3.46875q-0.875 -2.109375 -0.875 -7.34375q0 -6.578125 2.21875 -8.859375q2.234375 -2.28125 6.859375 -2.28125q2.875 0 3.265625 -0.09375q0.390625 -0.09375 0.5 -0.4375zm-0.140625 15.09375q0 -2.59375 -1.234375 -4.25q-1.21875 -1.65625 -3.453125 -1.65625q-2.328125 0 -3.59375 1.75q-1.265625 1.75 -1.265625 4.671875q0 2.890625 1.390625 4.421875q1.40625 1.53125 3.453125 1.53125q2.09375 0 3.390625 -1.765625q1.3125 -1.78125 1.3125 -4.703125zm7.6875 -8.234375l13.0625 0l0 16.59375l-2.796875 0l0 -14.265625l-7.453125 0l0 8.265625q0 2.890625 -0.1875 3.8125q-0.1875 0.921875 -1.03125 1.609375q-0.84375 0.6875 -2.4375 0.6875q-0.984375 0 -2.265625 -0.125l0 -2.34375l1.234375 0q0.875 0 1.25 -0.171875q0.375 -0.1875 0.5 -0.578125q0.125 -0.390625 0.125 -2.546875l0 -10.9375zm17.296875 0l2.8125 0l0 12.65625l7.796875 -12.65625l3.03125 0l0 16.59375l-2.8125 0l0 -12.578125l-7.796875 12.578125l-3.03125 0l0 -16.59375zm17.859375 0l2.8125 0l0 7.171875q1.34375 0 1.875 -0.515625q0.546875 -0.515625 1.59375 -3.0q0.828125 -1.96875 1.34375 -2.59375q0.515625 -0.625 1.1875 -0.84375q0.671875 -0.21875 2.15625 -0.21875l0.5625 0l0 2.328125l-0.78125 -0.015625q-1.109375 0 -1.421875 0.328125q-0.328125 0.34375 -1.0 2.046875q-0.640625 1.625 -1.171875 2.25q-0.53125 0.625 -1.640625 1.140625q1.8125 0.484375 3.5625 3.375l3.078125 5.140625l-3.09375 0l-3.0 -5.140625q-0.921875 -1.546875 -1.609375 -2.03125q-0.6875 -0.5 -1.640625 -0.5l0 7.671875l-2.8125 0l0 -16.59375zm24.84375 14.546875q-1.5625 1.328125 -3.015625 1.875q-1.4375 0.546875 -3.09375 0.546875q-2.734375 0 -4.203125 -1.328125q-1.46875 -1.34375 -1.46875 -3.421875q0 -1.21875 0.546875 -2.21875q0.5625 -1.015625 1.453125 -1.625q0.90625 -0.609375 2.03125 -0.921875q0.828125 -0.21875 2.5 -0.421875q3.40625 -0.40625 5.015625 -0.96875q0.015625 -0.578125 0.015625 -0.734375q0 -1.71875 -0.796875 -2.421875q-1.078125 -0.953125 -3.203125 -0.953125q-1.984375 0 -2.9375 0.703125q-0.9375 0.6875 -1.390625 2.453125l-2.75 -0.375q0.375 -1.765625 1.234375 -2.84375q0.859375 -1.09375 2.484375 -1.671875q1.625 -0.59375 3.765625 -0.59375q2.125 0 3.453125 0.5q1.328125 0.5 1.953125 1.265625q0.625 0.75 0.875 1.90625q0.140625 0.71875 0.140625 2.59375l0 3.75q0 3.921875 0.171875 4.96875q0.1875 1.03125 0.71875 1.984375l-2.9375 0q-0.4375 -0.875 -0.5625 -2.046875zm-0.234375 -6.28125q-1.53125 0.625 -4.59375 1.0625q-1.734375 0.25 -2.453125 0.5625q-0.71875 0.3125 -1.109375 0.921875q-0.390625 0.59375 -0.390625 1.328125q0 1.125 0.84375 1.875q0.859375 0.75 2.5 0.75q1.625 0 2.890625 -0.703125q1.265625 -0.71875 1.859375 -1.953125q0.453125 -0.953125 0.453125 -2.8125l0 -1.03125zm7.25 -8.265625l2.8125 0l0 14.28125l7.78125 0l0 -14.28125l2.8125 0l0 14.28125l1.8125 0l0 7.015625l-2.3125 0l0 -4.703125l-12.90625 0l0 -16.59375zm18.28125 0l2.8125 0l0 12.65625l7.796875 -12.65625l3.03125 0l0 16.59375l-2.8125 0l0 -12.578125l-7.796875 12.578125l-3.03125 0l0 -16.59375zm30.93753 0l0 16.59375l-2.796875 0l0 -6.46875l-1.625 0q-1.4844055 0 -2.2187805 0.390625q-0.71875 0.375 -2.109375 2.453125l-2.453125 3.625l-3.484375 0l3.03125 -4.46875q1.390625 -2.046875 2.765625 -2.3125q-2.40625 -0.328125 -3.578125 -1.734375q-1.15625 -1.40625 -1.15625 -3.234375q0 -2.15625 1.515625 -3.5q1.53125 -1.34375 4.421875 -1.34375l7.6875305 0zm-2.796875 2.328125l-4.0000305 0q-2.515625 0 -3.25 0.78125q-0.71875 0.78125 -0.71875 1.828125q0 1.484375 1.0625 2.1875q1.078125 0.6875 3.796875 0.6875l3.1094055 0l0 -5.484375zm26.78125 8.1875l2.765625 0.359375q-0.453125 2.859375 -2.328125 4.484375q-1.859375 1.609375 -4.578125 1.609375q-3.40625 0 -5.484375 -2.21875q-2.0625 -2.234375 -2.0625 -6.390625q0 -2.6875 0.890625 -4.703125q0.890625 -2.015625 2.703125 -3.015625q1.828125 -1.015625 3.96875 -1.015625q2.703125 0 4.421875 1.375q1.71875 1.359375 2.203125 3.875l-2.734375 0.421875q-0.390625 -1.671875 -1.390625 -2.515625q-0.984375 -0.84375 -2.390625 -0.84375q-2.125 0 -3.453125 1.53125q-1.328125 1.515625 -1.328125 4.8125q0 3.34375 1.28125 4.859375q1.28125 1.515625 3.34375 1.515625q1.65625 0 2.765625 -1.015625q1.109375 -1.015625 1.40625 -3.125zm3.65625 -10.515625l13.484375 0l0 2.328125l-5.34375 0l0 14.265625l-2.796875 0l0 -14.265625l-5.34375 0l0 -2.328125zm27.0 14.546875q-1.5625 1.328125 -3.015625 1.875q-1.4375 0.546875 -3.09375 0.546875q-2.734375 0 -4.203125 -1.328125q-1.46875 -1.34375 -1.46875 -3.421875q0 -1.21875 0.546875 -2.21875q0.5625 -1.015625 1.453125 -1.625q0.90625 -0.609375 2.03125 -0.921875q0.828125 -0.21875 2.5 -0.421875q3.40625 -0.40625 5.015625 -0.96875q0.015625 -0.578125 0.015625 -0.734375q0 -1.71875 -0.796875 -2.421875q-1.078125 -0.953125 -3.203125 -0.953125q-1.984375 0 -2.9375 0.703125q-0.9375 0.6875 -1.390625 2.453125l-2.75 -0.375q0.375 -1.765625 1.234375 -2.84375q0.859375 -1.09375 2.484375 -1.671875q1.625 -0.59375 3.765625 -0.59375q2.125 0 3.453125 0.5q1.328125 0.5 1.953125 1.265625q0.625 0.75 0.875 1.90625q0.140625 0.71875 0.140625 2.59375l0 3.75q0 3.921875 0.171875 4.96875q0.1875 1.03125 0.71875 1.984375l-2.9375 0q-0.4375 -0.875 -0.5625 -2.046875zm-0.234375 -6.28125q-1.53125 0.625 -4.59375 1.0625q-1.734375 0.25 -2.453125 0.5625q-0.71875 0.3125 -1.109375 0.921875q-0.390625 0.59375 -0.390625 1.328125q0 1.125 0.84375 1.875q0.859375 0.75 2.5 0.75q1.625 0 2.890625 -0.703125q1.265625 -0.71875 1.859375 -1.953125q0.453125 -0.953125 0.453125 -2.8125l0 -1.03125zm5.6875 -8.265625l13.484375 0l0 2.328125l-5.34375 0l0 14.265625l-2.796875 0l0 -14.265625l-5.34375 0l0 -2.328125zm16.125 0l2.8125 0l0 6.484375l3.5625 0q3.484375 0 5.359375 1.359375q1.890625 1.34375 1.890625 3.71875q0 2.078125 -1.578125 3.5625q-1.5625 1.46875 -5.015625 1.46875l-7.03125 0l0 -16.59375zm2.8125 14.28125l2.953125 0q2.671875 0 3.8125 -0.65625q1.140625 -0.65625 1.140625 -2.046875q0 -1.078125 -0.84375 -1.921875q-0.84375 -0.84375 -3.734375 -0.84375l-3.328125 0l0 5.46875zm13.90625 -14.28125l2.8125 0l0 12.65625l7.796875 -12.65625l3.03125 0l0 16.59375l-2.8125 0l0 -12.578125l-7.796875 12.578125l-3.03125 0l0 -16.59375z" fill-rule="nonzero"></path><path fill="#00ff00" d="m242.22354 181.65663l9.875961 0l0 -9.875961l9.29689 0l0 9.875961l9.875946 0l0 9.29689l-9.875946 0l0 9.875961l-9.29689 0l0 -9.875961l-9.875961 0z" fill-rule="nonzero"></path><path stroke="#666666" stroke-width="2.0" stroke-linejoin="round" stroke-linecap="butt" d="m242.22354 181.65663l9.875961 0l0 -9.875961l9.29689 0l0 9.875961l9.875946 0l0 9.29689l-9.875946 0l0 9.875961l-9.29689 0l0 -9.875961l-9.875961 0z" fill-rule="nonzero"></path><path fill="#ff0000" d="m243.32793 214.40088l6.2995453 -6.4802856l7.1204834 6.9218903l7.120453 -6.9218903l6.2995605 6.4802856l-6.9371643 6.743683l6.9371643 6.743683l-6.2995605 6.4802856l-7.120453 -6.9218903l-7.1204834 6.9218903l-6.2995453 -6.4802856l6.937149 -6.743683z" fill-rule="nonzero"></path><path stroke="#666666" stroke-width="2.0" stroke-linejoin="round" stroke-linecap="butt" d="m243.32793 214.40088l6.2995453 -6.4802856l7.1204834 6.9218903l7.120453 -6.9218903l6.2995605 6.4802856l-6.9371643 6.743683l6.9371643 6.743683l-6.2995605 6.4802856l-7.120453 -6.9218903l-7.1204834 6.9218903l-6.2995453 -6.4802856l6.937149 -6.743683z" fill-rule="nonzero"></path><path fill="#000000" fill-opacity="0.0" d="m12.624672 443.10782l0 0c0 -32.467377 38.743233 -58.787415 86.53543 -58.787415l0 0c47.7922 0 86.53544 26.320038 86.53544 58.787415l0 0c0 32.467377 -38.74324 58.787384 -86.53544 58.787384l0 0c-47.7922 0 -86.53543 -26.320007 -86.53543 -58.787384z" fill-rule="nonzero"></path><path stroke="#666666" stroke-width="2.0" stroke-linejoin="round" stroke-linecap="butt" d="m12.624672 443.10782l0 0c0 -32.467377 38.743233 -58.787415 86.53543 -58.787415l0 0c47.7922 0 86.53544 26.320038 86.53544 58.787415l0 0c0 32.467377 -38.74324 58.787384 -86.53544 58.787384l0 0c-47.7922 0 -86.53543 -26.320007 -86.53543 -58.787384z" fill-rule="nonzero"></path><path fill="#cccccc" d="m52.55643 424.89786l0 0c0 -8.619141 6.987179 -15.606323 15.606297 -15.606323c8.619125 0 15.6063 6.9871826 15.6063 15.606323c0 8.61911 -6.987175 15.606293 -15.6063 15.606293c-8.619118 0 -15.606297 -6.9871826 -15.606297 -15.606293z" fill-rule="nonzero"></path><path fill="#a3a3a3" d="m61.537277 420.2304c0 -0.89782715 0.7278328 -1.6256714 1.6256561 -1.6256714c0.89782715 0 1.6256561 0.72784424 1.6256561 1.6256714c0 0.89782715 -0.727829 1.6256409 -1.6256561 1.6256409c-0.89782333 0 -1.6256561 -0.7278137 -1.6256561 -1.6256409m9.999596 0c0 -0.89782715 0.727829 -1.6256714 1.6256561 -1.6256714c0.8978195 0 1.6256561 0.72784424 1.6256561 1.6256714c0 0.89782715 -0.7278366 1.6256409 -1.6256561 1.6256409c-0.89782715 0 -1.6256561 -0.7278137 -1.6256561 -1.6256409" fill-rule="nonzero"></path><path fill="#000000" fill-opacity="0.0" d="m59.704014 431.70386q8.458714 5.8092957 16.897678 0" fill-rule="nonzero"></path><path fill="#000000" fill-opacity="0.0" d="m52.55643 424.89786l0 0c0 -8.619141 6.987179 -15.606323 15.606297 -15.606323c8.619125 0 15.6063 6.9871826 15.6063 15.606323c0 8.61911 -6.987175 15.606293 -15.6063 15.606293c-8.619118 0 -15.606297 -6.9871826 -15.606297 -15.606293z" fill-rule="nonzero"></path><path stroke="#666666" stroke-width="2.0" stroke-linejoin="round" stroke-linecap="butt" d="m61.537277 420.2304c0 -0.89782715 0.7278328 -1.6256714 1.6256561 -1.6256714c0.89782715 0 1.6256561 0.72784424 1.6256561 1.6256714c0 0.89782715 -0.727829 1.6256409 -1.6256561 1.6256409c-0.89782333 0 -1.6256561 -0.7278137 -1.6256561 -1.6256409m9.999596 0c0 -0.89782715 0.727829 -1.6256714 1.6256561 -1.6256714c0.8978195 0 1.6256561 0.72784424 1.6256561 1.6256714c0 0.89782715 -0.7278366 1.6256409 -1.6256561 1.6256409c-0.89782715 0 -1.6256561 -0.7278137 -1.6256561 -1.6256409" fill-rule="nonzero"></path><path stroke="#666666" stroke-width="2.0" stroke-linejoin="round" stroke-linecap="butt" d="m59.704014 431.70386q8.458714 5.8092957 16.897678 0" fill-rule="nonzero"></path><path stroke="#666666" stroke-width="2.0" stroke-linejoin="round" stroke-linecap="butt" d="m52.55643 424.89786l0 0c0 -8.619141 6.987179 -15.606323 15.606297 -15.606323c8.619125 0 15.6063 6.9871826 15.6063 15.606323c0 8.61911 -6.987175 15.606293 -15.6063 15.606293c-8.619118 0 -15.606297 -6.9871826 -15.606297 -15.606293z" fill-rule="nonzero"></path><path fill="#cccccc" d="m83.76989 467.23227l0 0c0 -8.61911 6.987175 -15.606293 15.6063 -15.606293c8.619118 0 15.6063 6.9871826 15.6063 15.606293c0 8.619141 -6.9871826 15.606323 -15.6063 15.606323c-8.619125 0 -15.6063 -6.9871826 -15.6063 -15.606323z" fill-rule="nonzero"></path><path fill="#a3a3a3" d="m92.75074 462.56485c0 -0.89782715 0.727829 -1.6256714 1.6256561 -1.6256714c0.8978195 0 1.6256561 0.72784424 1.6256561 1.6256714c0 0.89782715 -0.7278366 1.6256409 -1.6256561 1.6256409c-0.89782715 0 -1.6256561 -0.7278137 -1.6256561 -1.6256409m9.999588 0c0 -0.89782715 0.727829 -1.6256714 1.6256561 -1.6256714c0.89782715 0 1.6256561 0.72784424 1.6256561 1.6256714c0 0.89782715 -0.727829 1.6256409 -1.6256561 1.6256409c-0.89782715 0 -1.6256561 -0.7278137 -1.6256561 -1.6256409" fill-rule="nonzero"></path><path fill="#000000" fill-opacity="0.0" d="m90.91747 474.0383q8.458717 5.8092957 16.897682 0" fill-rule="nonzero"></path><path fill="#000000" fill-opacity="0.0" d="m83.76989 467.23227l0 0c0 -8.61911 6.987175 -15.606293 15.6063 -15.606293c8.619118 0 15.6063 6.9871826 15.6063 15.606293c0 8.619141 -6.9871826 15.606323 -15.6063 15.606323c-8.619125 0 -15.6063 -6.9871826 -15.6063 -15.606323z" fill-rule="nonzero"></path><path stroke="#666666" stroke-width="2.0" stroke-linejoin="round" stroke-linecap="butt" d="m92.75074 462.56485c0 -0.89782715 0.727829 -1.6256714 1.6256561 -1.6256714c0.8978195 0 1.6256561 0.72784424 1.6256561 1.6256714c0 0.89782715 -0.7278366 1.6256409 -1.6256561 1.6256409c-0.89782715 0 -1.6256561 -0.7278137 -1.6256561 -1.6256409m9.999588 0c0 -0.89782715 0.727829 -1.6256714 1.6256561 -1.6256714c0.89782715 0 1.6256561 0.72784424 1.6256561 1.6256714c0 0.89782715 -0.727829 1.6256409 -1.6256561 1.6256409c-0.89782715 0 -1.6256561 -0.7278137 -1.6256561 -1.6256409" fill-rule="nonzero"></path><path stroke="#666666" stroke-width="2.0" stroke-linejoin="round" stroke-linecap="butt" d="m90.91747 474.0383q8.458717 5.8092957 16.897682 0" fill-rule="nonzero"></path><path stroke="#666666" stroke-width="2.0" stroke-linejoin="round" stroke-linecap="butt" d="m83.76989 467.23227l0 0c0 -8.61911 6.987175 -15.606293 15.6063 -15.606293c8.619118 0 15.6063 6.9871826 15.6063 15.606293c0 8.619141 -6.9871826 15.606323 -15.6063 15.606323c-8.619125 0 -15.6063 -6.9871826 -15.6063 -15.606323z" fill-rule="nonzero"></path><path fill="#cccccc" d="m115.37533 424.89786l0 0c0 -8.619141 6.987175 -15.606323 15.6063 -15.606323c8.619125 0 15.606293 6.9871826 15.606293 15.606323c0 8.61911 -6.9871674 15.606293 -15.606293 15.606293c-8.619125 0 -15.6063 -6.9871826 -15.6063 -15.606293z" fill-rule="nonzero"></path><path fill="#a3a3a3" d="m124.35618 420.2304c0 -0.89782715 0.727829 -1.6256714 1.6256561 -1.6256714c0.8978195 0 1.6256561 0.72784424 1.6256561 1.6256714c0 0.89782715 -0.7278366 1.6256409 -1.6256561 1.6256409c-0.89782715 0 -1.6256561 -0.7278137 -1.6256561 -1.6256409m9.999596 0c0 -0.89782715 0.727829 -1.6256714 1.6256561 -1.6256714c0.8978119 0 1.6256561 0.72784424 1.6256561 1.6256714c0 0.89782715 -0.72784424 1.6256409 -1.6256561 1.6256409c-0.89782715 0 -1.6256561 -0.7278137 -1.6256561 -1.6256409" fill-rule="nonzero"></path><path fill="#000000" fill-opacity="0.0" d="m122.52291 431.70386q8.458717 5.8092957 16.897682 0" fill-rule="nonzero"></path><path fill="#000000" fill-opacity="0.0" d="m115.37533 424.89786l0 0c0 -8.619141 6.987175 -15.606323 15.6063 -15.606323c8.619125 0 15.606293 6.9871826 15.606293 15.606323c0 8.61911 -6.9871674 15.606293 -15.606293 15.606293c-8.619125 0 -15.6063 -6.9871826 -15.6063 -15.606293z" fill-rule="nonzero"></path><path stroke="#666666" stroke-width="2.0" stroke-linejoin="round" stroke-linecap="butt" d="m124.35618 420.2304c0 -0.89782715 0.727829 -1.6256714 1.6256561 -1.6256714c0.8978195 0 1.6256561 0.72784424 1.6256561 1.6256714c0 0.89782715 -0.7278366 1.6256409 -1.6256561 1.6256409c-0.89782715 0 -1.6256561 -0.7278137 -1.6256561 -1.6256409m9.999596 0c0 -0.89782715 0.727829 -1.6256714 1.6256561 -1.6256714c0.8978119 0 1.6256561 0.72784424 1.6256561 1.6256714c0 0.89782715 -0.72784424 1.6256409 -1.6256561 1.6256409c-0.89782715 0 -1.6256561 -0.7278137 -1.6256561 -1.6256409" fill-rule="nonzero"></path><path stroke="#666666" stroke-width="2.0" stroke-linejoin="round" stroke-linecap="butt" d="m122.52291 431.70386q8.458717 5.8092957 16.897682 0" fill-rule="nonzero"></path><path stroke="#666666" stroke-width="2.0" stroke-linejoin="round" stroke-linecap="butt" d="m115.37533 424.89786l0 0c0 -8.619141 6.987175 -15.606323 15.6063 -15.606323c8.619125 0 15.606293 6.9871826 15.606293 15.606323c0 8.61911 -6.9871674 15.606293 -15.606293 15.606293c-8.619125 0 -15.6063 -6.9871826 -15.6063 -15.606293z" fill-rule="nonzero"></path><path fill="#000000" fill-opacity="0.0" d="m21.272966 501.89523l164.40945 0l0 39.527557l-164.40945 0z" fill-rule="nonzero"></path><path fill="#000000" d="m59.85868 522.19025q0 -3.390625 1.8125 -5.296875q1.828125 -1.921875 4.703125 -1.921875q1.875 0 3.390625 0.90625q1.515625 0.890625 2.296875 2.5q0.796875 1.609375 0.796875 3.65625q0 2.0625 -0.84375 3.703125q-0.828125 1.625 -2.359375 2.46875q-1.53125 0.84375 -3.296875 0.84375q-1.921875 0 -3.4375 -0.921875q-1.5 -0.9375 -2.28125 -2.53125q-0.78125 -1.609375 -0.78125 -3.40625zm1.859375 0.03125q0 2.453125 1.3125 3.875q1.328125 1.40625 3.3125 1.40625q2.03125 0 3.34375 -1.421875q1.3125 -1.4375 1.3125 -4.0625q0 -1.65625 -0.5625 -2.890625q-0.546875 -1.234375 -1.640625 -1.921875q-1.078125 -0.6875 -2.421875 -0.6875q-1.90625 0 -3.28125 1.3125q-1.375 1.3125 -1.375 4.390625zm20.198929 -7.328125l1.484375 0.015625q-0.109375 0.984375 -0.453125 1.375q-0.328125 0.390625 -0.875 0.515625q-0.53125 0.109375 -2.078125 0.109375q-2.078125 0 -2.828125 0.40625q-0.75 0.390625 -1.078125 1.265625q-0.328125 0.875 -0.375 2.25q0.640625 -0.9375 1.484375 -1.40625q0.84375 -0.46875 1.90625 -0.46875q1.9375 0 3.203125 1.34375q1.265625 1.328125 1.265625 3.59375q0 1.734375 -0.640625 2.84375q-0.640625 1.09375 -1.515625 1.703125q-0.875 0.59375 -2.390625 0.59375q-1.75 0 -2.71875 -0.796875q-0.96875 -0.796875 -1.5 -2.046875q-0.515625 -1.265625 -0.515625 -4.375q0 -3.90625 1.3125 -5.25q1.328125 -1.359375 4.078125 -1.359375q1.703125 0 1.9375 -0.046875q0.234375 -0.0625 0.296875 -0.265625zm-0.078125 8.953125q0 -1.53125 -0.734375 -2.515625q-0.71875 -0.984375 -2.046875 -0.984375q-1.390625 0 -2.140625 1.046875q-0.75 1.03125 -0.75 2.765625q0 1.71875 0.828125 2.625q0.828125 0.90625 2.046875 0.90625q1.25 0 2.015625 -1.046875q0.78125 -1.0625 0.78125 -2.796875zm3.607315 -4.890625l1.671875 0l0 8.484375l3.796875 0l0 -8.484375l1.671875 0l0 8.484375l3.8125 0l0 -8.484375l1.65625 0l0 8.484375l1.109375 0l0 4.171875l-1.390625 0l0 -2.796875l-12.328125 0l0 -9.859375zm22.037003 6.6875l1.71875 0.21875q-0.40625 1.5 -1.515625 2.34375q-1.09375 0.828125 -2.8125 0.828125q-2.15625 0 -3.421875 -1.328125q-1.265625 -1.328125 -1.265625 -3.734375q0 -2.484375 1.265625 -3.859375q1.28125 -1.375 3.328125 -1.375q1.984375 0 3.234375 1.34375q1.25 1.34375 1.25 3.796875q0 0.140625 -0.015625 0.4375l-7.34375 0q0.09375 1.625 0.921875 2.484375q0.828125 0.859375 2.0625 0.859375q0.90625 0 1.546875 -0.46875q0.65625 -0.484375 1.046875 -1.546875zm-5.484375 -2.703125l5.5 0q-0.109375 -1.234375 -0.625 -1.859375q-0.796875 -0.96875 -2.078125 -0.96875q-1.140625 0 -1.9375 0.78125q-0.78125 0.765625 -0.859375 2.046875zm15.547592 2.265625l1.640625 0.21875q-0.265625 1.6875 -1.375 2.65625q-1.109375 0.953125 -2.734375 0.953125q-2.015625 0 -3.25 -1.3125q-1.21875 -1.328125 -1.21875 -3.796875q0 -1.59375 0.515625 -2.78125q0.53125 -1.203125 1.609375 -1.796875q1.09375 -0.609375 2.359375 -0.609375q1.609375 0 2.625 0.8125q1.015625 0.8125 1.3125 2.3125l-1.625 0.25q-0.234375 -1.0 -0.828125 -1.5q-0.59375 -0.5 -1.421875 -0.5q-1.265625 0 -2.0625 0.90625q-0.78125 0.90625 -0.78125 2.859375q0 1.984375 0.765625 2.890625q0.765625 0.890625 1.984375 0.890625q0.984375 0 1.640625 -0.59375q0.65625 -0.609375 0.84375 -1.859375zm2.0 -6.25l8.0 0l0 1.390625l-3.171875 0l0 8.46875l-1.65625 0l0 -8.46875l-3.171875 0l0 -1.390625zm9.450966 0l3.84375 0q1.421875 0 2.109375 0.25q0.6875 0.234375 1.1875 0.859375q0.5 0.625 0.5 1.515625q0 0.703125 -0.296875 1.234375q-0.28125 0.515625 -0.875 0.875q0.703125 0.21875 1.15625 0.859375q0.46875 0.640625 0.46875 1.515625q-0.09375 1.390625 -1.015625 2.078125q-0.90625 0.671875 -2.640625 0.671875l-4.4375 0l0 -9.859375zm1.671875 4.15625l1.78125 0q1.0625 0 1.453125 -0.109375q0.40625 -0.109375 0.71875 -0.453125q0.3125 -0.34375 0.3125 -0.8125q0 -0.78125 -0.546875 -1.078125q-0.546875 -0.3125 -1.890625 -0.3125l-1.828125 0l0 2.765625zm0 4.328125l2.1875 0q1.421875 0 1.953125 -0.328125q0.53125 -0.328125 0.5625 -1.140625q0 -0.46875 -0.3125 -0.875q-0.3125 -0.40625 -0.796875 -0.5q-0.484375 -0.109375 -1.578125 -0.109375l-2.015625 0l0 2.953125zm7.598633 -3.546875q0 -2.734375 1.53125 -4.0625q1.265625 -1.09375 3.09375 -1.09375q2.03125 0 3.3125 1.34375q1.296875 1.328125 1.296875 3.671875q0 1.90625 -0.578125 3.0q-0.5625 1.078125 -1.65625 1.6875q-1.078125 0.59375 -2.375 0.59375q-2.0625 0 -3.34375 -1.328125q-1.28125 -1.328125 -1.28125 -3.8125zm1.71875 0q0 1.890625 0.828125 2.828125q0.828125 0.9375 2.078125 0.9375q1.25 0 2.0625 -0.9375q0.828125 -0.953125 0.828125 -2.890625q0 -1.828125 -0.828125 -2.765625q-0.828125 -0.9375 -2.0625 -0.9375q-1.25 0 -2.078125 0.9375q-0.828125 0.9375 -0.828125 2.828125z" fill-rule="nonzero"></path><path fill="#cccccc" d="m199.1984 438.48352l50.10904 0l0 -161.97015l-7.325485 0l15.427109 -24.787216l15.427124 24.787216l-7.3255005 0l0 178.1734l-66.31229 0z" fill-rule="nonzero"></path><path stroke="#666666" stroke-width="2.0" stroke-linejoin="round" stroke-linecap="butt" d="m199.1984 438.48352l50.10904 0l0 -161.97015l-7.325485 0l15.427109 -24.787216l15.427124 24.787216l-7.3255005 0l0 178.1734l-66.31229 0z" fill-rule="nonzero"></path><path fill="#000000" fill-opacity="0.0" d="m281.33072 200.19948l145.25983 0l0 41.889755l-145.25983 0z" fill-rule="nonzero"></path><path fill="#000000" d="m317.02847 220.41635q0 -2.421875 0.5 -3.890625q0.5 -1.46875 1.46875 -2.265625q0.984375 -0.796875 2.46875 -0.796875q1.09375 0 1.921875 0.4375q0.828125 0.4375 1.359375 1.28125q0.546875 0.828125 0.84375 2.015625q0.3125 1.1875 0.3125 3.21875q0 2.390625 -0.5 3.859375q-0.484375 1.46875 -1.46875 2.28125q-0.96875 0.796875 -2.46875 0.796875q-1.96875 0 -3.078125 -1.40625q-1.359375 -1.703125 -1.359375 -5.53125zm1.71875 0q0 3.34375 0.78125 4.453125q0.796875 1.109375 1.9375 1.109375q1.15625 0 1.9375 -1.109375q0.78125 -1.125 0.78125 -4.453125q0 -3.359375 -0.78125 -4.46875q-0.78125 -1.109375 -1.953125 -1.109375q-1.15625 0 -1.828125 0.984375q-0.875 1.234375 -0.875 4.59375zm13.699646 -3.15625l1.671875 0l0 1.875q0 1.203125 0.140625 1.75q0.140625 0.53125 0.6875 0.9375q0.546875 0.40625 1.375 0.40625q0.953125 0 2.453125 -0.5l0 -4.46875l1.671875 0l0 9.859375l-1.671875 0l0 -3.96875q-1.546875 0.484375 -2.875 0.484375q-1.125 0 -1.984375 -0.5625q-0.859375 -0.578125 -1.171875 -1.40625q-0.296875 -0.828125 -0.296875 -1.828125l0 -2.578125zm17.079224 6.6875l1.71875 0.21875q-0.40625 1.5 -1.515625 2.34375q-1.09375 0.828125 -2.8125 0.828125q-2.15625 0 -3.421875 -1.328125q-1.265625 -1.328125 -1.265625 -3.734375q0 -2.484375 1.265625 -3.859375q1.28125 -1.375 3.328125 -1.375q1.984375 0 3.234375 1.34375q1.25 1.34375 1.25 3.796875q0 0.140625 -0.015625 0.4375l-7.34375 0q0.09375 1.625 0.921875 2.484375q0.828125 0.859375 2.0625 0.859375q0.90625 0 1.546875 -0.46875q0.65625 -0.484375 1.046875 -1.546875zm-5.484375 -2.703125l5.5 0q-0.109375 -1.234375 -0.625 -1.859375q-0.796875 -0.96875 -2.078125 -0.96875q-1.140625 0 -1.9375 0.78125q-0.78125 0.765625 -0.859375 2.046875zm9.922577 -3.984375l7.765625 0l0 9.859375l-1.65625 0l0 -8.46875l-4.4375 0l0 4.90625q0 1.71875 -0.109375 2.265625q-0.109375 0.546875 -0.609375 0.953125q-0.5 0.40625 -1.453125 0.40625q-0.578125 0 -1.34375 -0.078125l0 -1.390625l0.734375 0q0.515625 0 0.734375 -0.09375q0.234375 -0.109375 0.296875 -0.34375q0.078125 -0.234375 0.078125 -1.515625l0 -6.5zm9.448364 4.9375q0 -2.734375 1.53125 -4.0625q1.265625 -1.09375 3.09375 -1.09375q2.03125 0 3.3125 1.34375q1.296875 1.328125 1.296875 3.671875q0 1.90625 -0.578125 3.0q-0.5625 1.078125 -1.65625 1.6875q-1.078125 0.59375 -2.375 0.59375q-2.0625 0 -3.34375 -1.328125q-1.28125 -1.328125 -1.28125 -3.8125zm1.71875 0q0 1.890625 0.828125 2.828125q0.828125 0.9375 2.078125 0.9375q1.25 0 2.0625 -0.9375q0.828125 -0.953125 0.828125 -2.890625q0 -1.828125 -0.828125 -2.765625q-0.828125 -0.9375 -2.0625 -0.9375q-1.25 0 -2.078125 0.9375q-0.828125 0.9375 -0.828125 2.828125zm9.297577 -4.9375l3.84375 0q1.421875 0 2.109375 0.25q0.6875 0.234375 1.1875 0.859375q0.5 0.625 0.5 1.515625q0 0.703125 -0.296875 1.234375q-0.28125 0.515625 -0.875 0.875q0.703125 0.21875 1.15625 0.859375q0.46875 0.640625 0.46875 1.515625q-0.09375 1.390625 -1.015625 2.078125q-0.90625 0.671875 -2.640625 0.671875l-4.4375 0l0 -9.859375zm1.671875 4.15625l1.78125 0q1.0625 0 1.453125 -0.109375q0.40625 -0.109375 0.71875 -0.453125q0.3125 -0.34375 0.3125 -0.8125q0 -0.78125 -0.546875 -1.078125q-0.546875 -0.3125 -1.890625 -0.3125l-1.828125 0l0 2.765625zm0 4.328125l2.1875 0q1.421875 0 1.953125 -0.328125q0.53125 -0.328125 0.5625 -1.140625q0 -0.46875 -0.3125 -0.875q-0.3125 -0.40625 -0.796875 -0.5q-0.484375 -0.109375 -1.578125 -0.109375l-2.015625 0l0 2.953125zm14.973633 -1.796875l1.71875 0.21875q-0.40625 1.5 -1.515625 2.34375q-1.09375 0.828125 -2.8125 0.828125q-2.15625 0 -3.421875 -1.328125q-1.265625 -1.328125 -1.265625 -3.734375q0 -2.484375 1.265625 -3.859375q1.28125 -1.375 3.328125 -1.375q1.984375 0 3.234375 1.34375q1.25 1.34375 1.25 3.796875q0 0.140625 -0.015625 0.4375l-7.34375 0q0.09375 1.625 0.921875 2.484375q0.828125 0.859375 2.0625 0.859375q0.90625 0 1.546875 -0.46875q0.65625 -0.484375 1.046875 -1.546875zm-5.484375 -2.703125l5.5 0q-0.109375 -1.234375 -0.625 -1.859375q-0.796875 -0.96875 -2.078125 -0.96875q-1.140625 0 -1.9375 0.78125q-0.78125 0.765625 -0.859375 2.046875zm9.110107 -3.984375l1.65625 0l0 4.265625q0.8125 0 1.125 -0.296875q0.3125 -0.3125 0.9375 -1.796875q0.5 -1.15625 0.796875 -1.53125q0.3125 -0.375 0.703125 -0.5q0.40625 -0.140625 1.28125 -0.140625l0.34375 0l0 1.390625l-0.46875 -0.015625q-0.65625 0 -0.84375 0.203125q-0.1875 0.203125 -0.59375 1.21875q-0.375 0.953125 -0.703125 1.328125q-0.3125 0.375 -0.96875 0.671875q1.078125 0.296875 2.125 2.015625l1.828125 3.046875l-1.84375 0l-1.78125 -3.046875q-0.546875 -0.921875 -0.953125 -1.21875q-0.40625 -0.296875 -0.984375 -0.296875l0 4.5625l-1.65625 0l0 -9.859375z" fill-rule="nonzero"></path><path fill="#000000" fill-opacity="0.0" d="m281.33072 165.35957l145.25983 0l0 41.88977l-145.25983 0z" fill-rule="nonzero"></path><path fill="#000000" d="m291.17447 188.77957l2.59375 -0.265625q0.109375 0.875 0.65625 1.390625q0.546875 0.515625 1.265625 0.515625q0.8125 0 1.375 -0.65625q0.578125 -0.671875 0.578125 -2.0q0 -1.25 -0.5625 -1.875q-0.5625 -0.625 -1.46875 -0.625q-1.109375 0 -2.0 0.984375l-2.125 -0.3125l1.34375 -7.078125l6.890625 0l0 2.453125l-4.921875 0l-0.40625 2.296875q0.875 -0.421875 1.78125 -0.421875q1.734375 0 2.9375 1.265625q1.203125 1.25 1.203125 3.265625q0 1.671875 -0.96875 3.0q-1.328125 1.796875 -3.6875 1.796875q-1.875 0 -3.0625 -1.015625q-1.1875 -1.015625 -1.421875 -2.71875zm14.750702 -10.15625q1.96875 0 3.078125 1.40625q1.328125 1.671875 1.328125 5.546875q0 3.859375 -1.328125 5.546875q-1.109375 1.390625 -3.078125 1.390625q-1.984375 0 -3.203125 -1.53125q-1.21875 -1.53125 -1.21875 -5.4375q0 -3.84375 1.34375 -5.53125q1.09375 -1.390625 3.078125 -1.390625zm0 2.15625q-0.484375 0 -0.859375 0.3125q-0.359375 0.296875 -0.5625 1.078125q-0.265625 1.015625 -0.265625 3.40625q0 2.390625 0.234375 3.28125q0.25 0.890625 0.609375 1.1875q0.359375 0.296875 0.84375 0.296875q0.46875 0 0.828125 -0.296875q0.375 -0.296875 0.59375 -1.078125q0.265625 -1.0 0.265625 -3.390625q0 -2.390625 -0.25 -3.28125q-0.234375 -0.90625 -0.609375 -1.203125q-0.359375 -0.3125 -0.828125 -0.3125zm10.375732 -2.15625q1.96875 0 3.078125 1.40625q1.328125 1.671875 1.328125 5.546875q0 3.859375 -1.328125 5.546875q-1.109375 1.390625 -3.078125 1.390625q-1.984375 0 -3.203125 -1.53125q-1.21875 -1.53125 -1.21875 -5.4375q0 -3.84375 1.34375 -5.53125q1.09375 -1.390625 3.078125 -1.390625zm0 2.15625q-0.484375 0 -0.859375 0.3125q-0.359375 0.296875 -0.5625 1.078125q-0.265625 1.015625 -0.265625 3.40625q0 2.390625 0.234375 3.28125q0.25 0.890625 0.609375 1.1875q0.359375 0.296875 0.84375 0.296875q0.46875 0 0.828125 -0.296875q0.375 -0.296875 0.59375 -1.078125q0.265625 -1.0 0.265625 -3.390625q0 -2.390625 -0.25 -3.28125q-0.234375 -0.90625 -0.609375 -1.203125q-0.359375 -0.3125 -0.828125 -0.3125zm11.402771 1.640625l2.625 0l0 2.359375q0 0.8125 0.140625 1.203125q0.15625 0.390625 0.625 0.6875q0.46875 0.28125 1.171875 0.28125q0.703125 0 1.5625 -0.328125l0 -4.203125l2.609375 0l0 9.859375l-2.609375 0l0 -3.9375q-1.515625 0.40625 -2.3125 0.40625q-1.203125 0 -2.15625 -0.515625q-0.953125 -0.515625 -1.3125 -1.3125q-0.34375 -0.796875 -0.34375 -2.140625l0 -2.359375zm16.831177 6.71875l2.609375 0.4375q-0.5 1.4375 -1.59375 2.1875q-1.078125 0.734375 -2.703125 0.734375q-2.5625 0 -3.796875 -1.671875q-0.96875 -1.34375 -0.96875 -3.40625q0 -2.4375 1.265625 -3.828125q1.28125 -1.390625 3.25 -1.390625q2.1875 0 3.453125 1.453125q1.28125 1.453125 1.234375 4.453125l-6.53125 0q0.015625 1.15625 0.625 1.8125q0.609375 0.640625 1.5 0.640625q0.609375 0 1.03125 -0.328125q0.421875 -0.34375 0.625 -1.09375zm0.15625 -2.625q-0.03125 -1.140625 -0.59375 -1.71875q-0.546875 -0.59375 -1.34375 -0.59375q-0.859375 0 -1.40625 0.625q-0.5625 0.609375 -0.546875 1.6875l3.890625 0zm5.2194824 -4.09375l8.734375 0l0 9.859375l-2.59375 0l0 -7.734375l-3.5625 0l0 4.421875q0 1.6875 -0.390625 2.375q-0.375 0.671875 -0.859375 0.890625q-0.46875 0.21875 -1.515625 0.21875q-0.625 0 -1.640625 -0.171875l0 -1.921875q0.078125 0 0.4375 0.015625q0.40625 0.03125 0.625 0.03125q0.53125 0 0.640625 -0.34375q0.125 -0.34375 0.125 -1.9375l0 -5.703125zm10.554565 4.796875q0 -1.296875 0.640625 -2.515625q0.640625 -1.21875 1.8125 -1.859375q1.171875 -0.640625 2.609375 -0.640625q2.25 0 3.671875 1.453125q1.421875 1.453125 1.421875 3.671875q0 2.234375 -1.4375 3.703125q-1.4375 1.46875 -3.625 1.46875q-1.359375 0 -2.59375 -0.609375q-1.21875 -0.609375 -1.859375 -1.796875q-0.640625 -1.1875 -0.640625 -2.875zm2.671875 0.140625q0 1.46875 0.6875 2.25q0.703125 0.765625 1.71875 0.765625q1.015625 0 1.703125 -0.765625q0.703125 -0.78125 0.703125 -2.265625q0 -1.453125 -0.703125 -2.234375q-0.6875 -0.78125 -1.703125 -0.78125q-1.015625 0 -1.71875 0.78125q-0.6875 0.78125 -0.6875 2.25zm9.349121 -4.9375l5.703125 0q1.75 0 2.625 0.640625q0.875 0.640625 0.875 1.9375q0 0.828125 -0.484375 1.4375q-0.46875 0.609375 -1.1875 0.8125q1.015625 0.25 1.515625 0.9375q0.5 0.6875 0.5 1.5q0 1.15625 -0.84375 1.875q-0.84375 0.71875 -2.5 0.71875l-6.203125 0l0 -9.859375zm2.625 4.09375l1.6875 0q1.203125 0 1.75 -0.296875q0.546875 -0.3125 0.546875 -0.96875q0 -0.625 -0.515625 -0.890625q-0.5 -0.265625 -1.78125 -0.265625l-1.6875 0l0 2.421875zm0 4.09375l2.0625 0q1.109375 0 1.609375 -0.265625q0.515625 -0.265625 0.515625 -0.96875q0 -0.71875 -0.578125 -0.984375q-0.578125 -0.28125 -2.265625 -0.28125l-1.34375 0l0 2.5zm14.515717 -1.46875l2.609375 0.4375q-0.5 1.4375 -1.59375 2.1875q-1.078125 0.734375 -2.703125 0.734375q-2.5625 0 -3.796875 -1.671875q-0.96875 -1.34375 -0.96875 -3.40625q0 -2.4375 1.265625 -3.828125q1.28125 -1.390625 3.25 -1.390625q2.1875 0 3.453125 1.453125q1.28125 1.453125 1.234375 4.453125l-6.53125 0q0.015625 1.15625 0.625 1.8125q0.609375 0.640625 1.5 0.640625q0.609375 0 1.03125 -0.328125q0.421875 -0.34375 0.625 -1.09375zm0.15625 -2.625q-0.03125 -1.140625 -0.59375 -1.71875q-0.546875 -0.59375 -1.34375 -0.59375q-0.859375 0 -1.40625 0.625q-0.5625 0.609375 -0.546875 1.6875l3.890625 0zm4.4226074 -4.09375l2.59375 0l0 4.03125q0.65625 -0.078125 0.921875 -0.390625q0.265625 -0.328125 0.640625 -1.421875q0.5 -1.453125 1.09375 -1.875q0.59375 -0.40625 1.5625 -0.40625q0.296875 0 1.03125 0.046875l0.015625 1.734375q-1.03125 0 -1.328125 0.1875q-0.28125 0.203125 -0.609375 1.21875q-0.46875 1.359375 -1.3125 1.671875q1.234375 0.34375 2.078125 2.15625q0.046875 0.078125 0.109375 0.1875l1.453125 2.71875l-2.796875 0l-1.296875 -2.84375q-0.40625 -0.875 -0.703125 -1.109375q-0.28125 -0.25 -0.859375 -0.25l0 4.203125l-2.59375 0l0 -9.859375z" fill-rule="nonzero"></path><path fill="#000000" fill-opacity="0.0" d="m414.38583 81.40945l149.95273 -0.03149414l0 63.874016l-149.95273 0.03149414z" fill-rule="nonzero"></path><path stroke="#00ff00" stroke-width="2.0" stroke-linejoin="round" stroke-linecap="butt" d="m414.38583 81.40945l149.95273 -0.03149414l0 63.874016l-149.95273 0.03149414z" fill-rule="nonzero"></path><path fill="#000000" d="m432.3454 106.66893l10.703125 -0.002243042l0 13.59375l-1.8125 3.8146973E-4l0 -12.0l-7.09375 0.0014877319l0 12.0l-1.796875 3.7384033E-4l0 -13.59375zm13.09668 17.387878l-0.171875 -1.5624619q0.546875 0.14051056 0.953125 0.140419q0.546875 -1.1444092E-4 0.875 -0.1876831q0.34375 -0.18756866 0.5625 -0.51573944q0.15625 -0.25003052 0.5 -1.2501068q0.046875 -0.14063263 0.15625 -0.40628052l-3.734375 -9.874214l1.796875 -3.8146973E-4l2.046875 5.7183228q0.40625 1.0780411 0.71875 2.2810974q0.28125 -1.156311 0.6875 -2.250145l2.09375 -5.7504425l1.671875 -3.5095215E-4l-3.75 10.032043q-0.59375 1.6251221 -0.9375 2.2345657q-0.4375 0.82821655 -1.015625 1.2033386q-0.578125 0.39074707 -1.375 0.39091492q-0.484375 1.0681152E-4 -1.078125 -0.20289612zm16.625 -17.722244l1.484375 0.015312195q-0.109375 0.9843979 -0.453125 1.3750992q-0.328125 0.39069366 -0.875 0.5158081q-0.53125 0.10948181 -2.078125 0.109809875q-2.078125 4.348755E-4 -2.828125 0.4068451q-0.75 0.39078522 -1.078125 1.2658539q-0.328125 0.87506866 -0.375 2.2500763q0.640625 -0.9376373 1.484375 -1.4065628q0.84375 -0.46892548 1.90625 -0.46914673q1.9375 -4.119873E-4 3.203125 1.343071q1.265625 1.3278656 1.265625 3.5934906q0 1.734375 -0.640625 2.8438797q-0.640625 1.0938873 -1.515625 1.7034454q-0.875 0.5939331 -2.390625 0.59425354q-1.75 3.6621094E-4 -2.71875 -0.7963028q-0.96875 -0.79667664 -1.5 -2.0465622q-0.515625 -1.2655182 -0.515625 -4.374893q0 -3.90625 1.3125 -5.2502747q1.328125 -1.3596573 4.078125 -1.3602295q1.703125 -3.5858154E-4 1.9375 -0.047286987q0.234375 -0.06254578 0.296875 -0.26568604zm-0.078125 8.95314q0 -1.53125 -0.734375 -2.5154648q-0.71875 -0.98423004 -2.046875 -0.98394775q-1.390625 2.89917E-4 -2.140625 1.0473251q-0.75 1.0314026 -0.75 2.7657776q0 1.71875 0.828125 2.6248322q0.828125 0.9060745 2.046875 0.9058151q1.25 -2.593994E-4 2.015625 -1.0472946q0.78125 -1.0626678 0.78125 -2.7970428zm4.3573 -4.8915405l7.765625 -0.001625061l0 9.859375l-1.65625 3.4332275E-4l0 -8.46875l-4.4375 9.3078613E-4l0 4.90625q0 1.71875 -0.109375 2.265648q-0.109375 0.5468979 -0.609375 0.9532547q-0.5 0.4063568 -1.453125 0.40655518q-0.578125 1.2207031E-4 -1.34375 -0.07784271l0 -1.390625l0.734375 -1.5258789E-4q0.515625 -1.0681152E-4 0.734375 -0.09390259q0.234375 -0.109428406 0.296875 -0.34381104q0.078125 -0.23439789 0.078125 -1.5156479l0 -6.5zm10.073364 -0.0021133423l1.671875 -3.5095215E-4l0 7.515625l4.625 -7.516594l1.8125 -3.8146973E-4l0 9.859375l-1.671875 3.5095215E-4l0 -7.46875l-4.640625 7.4697266l-1.796875 3.7384033E-4l0 -9.859375zm10.421265 -0.0021896362l1.65625 -3.4332275E-4l0 4.265625q0.8125 -1.7547607E-4 1.125 -0.2971115q0.3125 -0.31256866 0.9375 -1.7970734q0.5 -1.1563568 0.796875 -1.5314178q0.3125 -0.37506866 0.703125 -0.5001526q0.40625 -0.14070892 1.28125 -0.14089203l0.34375 -6.866455E-5l0 1.390625l-0.46875 -0.015525818q-0.65625 1.373291E-4 -0.84375 0.20330048q-0.1875 0.20316315 -0.59375 1.2188721q-0.375 0.9532089 -0.703125 1.3282776q-0.3125 0.37506104 -0.96875 0.67207336q1.078125 0.29665375 2.125 2.0151825l1.828125 3.046486l-1.84375 3.8909912E-4l-1.78125 -3.0465012q-0.546875 -0.92176056 -0.953125 -1.2185516q-0.40625 -0.29678345 -0.984375 -0.29666138l0 4.5625l-1.65625 3.4332275E-4l0 -9.859375zm7.5371094 4.9359207q0 -2.734375 1.53125 -4.062828q1.265625 -1.0940094 3.09375 -1.0943985q2.03125 -4.272461E-4 3.3125 1.3430557q1.296875 1.3278503 1.296875 3.6716003q0 1.90625 -0.578125 3.000122q-0.5625 1.0782471 -1.65625 1.687851q-1.078125 0.5939789 -2.375 0.5942459q-2.0625 4.348755E-4 -3.34375 -1.3274231q-1.28125 -1.3278503 -1.28125 -3.8122253zm1.71875 -3.6621094E-4q0 1.890625 0.828125 2.8279572q0.828125 0.9373245 2.078125 0.9370575q1.25 -2.593994E-4 2.0625 -0.93792725q0.828125 -0.9533005 0.828125 -2.8908005q0 -1.828125 -0.828125 -2.7654495q-0.828125 -0.93733215 -2.0625 -0.93707275q-1.25 2.670288E-4 -2.078125 0.9379425q-0.828125 0.93766785 -0.828125 2.8282928zm9.297577 -4.939453l3.84375 -8.010864E-4q1.421875 -3.0517578E-4 2.109375 0.24954987q0.6875305 0.23423767 1.1875305 0.85913086q0.5 0.6248932 0.5 1.5155182q0 0.703125 -0.296875 1.234436q-0.28125 0.51568604 -0.8750305 0.8751831q0.7031555 0.21860504 1.1562805 0.85913086q0.46875 0.64053345 0.46875 1.5155334q-0.09375 1.3906403 -1.015625 2.0783386q-0.9062805 0.6720581 -2.6406555 0.6724243l-4.4375 9.3078613E-4l0 -9.859375zm1.671875 4.155899l1.78125 -3.7384033E-4q1.0625 -2.2125244E-4 1.453125 -0.109680176q0.40625 -0.10945892 0.71875 -0.45326996q0.3125 -0.34381866 0.3125 -0.81256866q0 -0.78125 -0.546875 -1.0780106q-0.546875 -0.31238556 -1.890625 -0.31210327l-1.828125 3.8146973E-4l0 2.765625zm0 4.328125l2.1875 -4.5776367E-4q1.421875 -2.975464E-4 1.953125 -0.328537q0.53125 -0.3282318 0.5625 -1.1407394q0 -0.46875 -0.3125 -0.87493896q-0.3125 -0.40618134 -0.796875 -0.49983215q-0.484375 -0.10926819 -1.578125 -0.10903931l-2.015625 4.196167E-4l0 2.953125zm14.661163 0.15317535q-0.9375 0.79707336 -1.796875 1.1253738q-0.859375 0.3126831 -1.84375 0.3128891q-1.609375 3.3569336E-4 -2.484375 -0.7807312q-0.875 -0.7966919 -0.875 -2.031067q0 -0.734375 0.328125 -1.3281937q0.328125 -0.59381866 0.859375 -0.9533005q0.53125 -0.35948944 1.203125 -0.54712677q0.5 -0.14073181 1.484375 -0.2503128q2.03125 -0.25042725 2.984375 -0.5787506q0 -0.34375 0 -0.4375q0 -1.015625 -0.46875 -1.4374084q-0.640625 -0.5623627 -1.90625 -0.56209564q-1.171875 2.4414062E-4 -1.734375 0.4066162q-0.5625 0.40636444 -0.828125 1.4689255l-1.640625 -0.23403168q0.234375 -1.0469284 0.734375 -1.6876602q0.515625 -0.6407318 1.46875 -0.9846802q0.96875 -0.359581 2.25 -0.35984802q1.265625 -2.670288E-4 2.046875 0.29644775q0.78125 0.29670715 1.15625 0.74975586q0.375 0.4530487 0.515625 1.1405182q0.09375 0.4218521 0.09375 1.5312271l0 2.234375q0 2.328125 0.09375 2.9531097q0.109375 0.6093521 0.4375 1.1717834l-1.75 3.6621094E-4q-0.265625 -0.5155716 -0.328125 -1.2186813zm-0.140625 -3.7187195q-0.90625 0.35956573 -2.734375 0.6255722q-1.03125 0.14083862 -1.453125 0.32843018q-0.421875 0.18758392 -0.65625 0.5470123q-0.234375 0.35942078 -0.234375 0.7969208q0 0.671875 0.5 1.1249008q0.515625 0.43738556 1.484375 0.4371872q0.96875 -2.0599365E-4 1.71875 -0.4222412q0.75 -0.4376526 1.109375 -1.1564789q0.265625 -0.5781784 0.265625 -1.6719284l0 -0.609375zm3.1881714 -4.9225464l8.0 -0.0016784668l0 1.390625l-3.171875 6.637573E-4l0 8.46875l-1.65625 3.5095215E-4l0 -8.468758l-3.171875 6.713867E-4l0 -1.390625zm9.404114 -0.0019760132l1.671875 -3.5095215E-4l0 3.859375l2.125 -4.5013428E-4q2.0625 -4.272461E-4 3.171875 0.81183624q1.125 0.7966385 1.125 2.2028885q0 1.234375 -0.9375 2.1095734q-0.921875 0.87519073 -2.96875 0.8756256l-4.1875 8.773804E-4l0 -9.859375zm1.671875 8.484024l1.75 -3.6621094E-4q1.59375 -3.3569336E-4 2.265625 -0.39110565q0.6875 -0.39076996 0.6875 -1.218895q0 -0.640625 -0.5 -1.1405182q-0.5 -0.4998932 -2.21875 -0.4995346l-1.984375 4.196167E-4l0 3.25zm8.969849 -2.0018845l-0.5 -7.203018l0 -3.015625l2.0625 -4.348755E-4l0 3.015625l-0.484375 7.203224l-1.078125 2.2888184E-4zm-0.4375 3.3750916l0 -1.90625l1.921875 -4.043579E-4l0 1.90625l-1.921875 4.043579E-4z" fill-rule="nonzero"></path><path fill="#cccccc" d="m426.8967 170.67455l122.03146 0l0 -15.629929l31.259888 31.259842l-31.259888 31.259842l0 -15.629913l-122.03146 0z" fill-rule="nonzero"></path><path stroke="#666666" stroke-width="2.0" stroke-linejoin="round" stroke-linecap="butt" d="m426.8967 170.67455l122.03146 0l0 -15.629929l31.259888 31.259842l-31.259888 31.259842l0 -15.629913l-122.03146 0z" fill-rule="nonzero"></path><path fill="#93c47d" d="m777.2194 293.4788l-103.175476 0l-20.63556 -20.63559l0 -143.77388l123.811035 0z" fill-rule="nonzero"></path><path stroke="#666666" stroke-width="2.0" stroke-linejoin="round" stroke-linecap="butt" d="m777.2194 293.4788l-103.175476 0l-20.63556 -20.63559l0 -143.77388l123.811035 0z" fill-rule="nonzero"></path><path fill="#6d9eeb" d="m835.55225 240.35674l-103.175415 0l-20.63562 -20.63559l0 -143.77386l123.811035 0z" fill-rule="nonzero"></path><path stroke="#666666" stroke-width="2.0" stroke-linejoin="round" stroke-linecap="butt" d="m835.55225 240.35674l-103.175415 0l-20.63562 -20.63559l0 -143.77386l123.811035 0z" fill-rule="nonzero"></path><path fill="#ffd966" d="m889.5906 329.76904l-103.175476 0l-20.63556 -20.63559l0 -143.77388l123.811035 0z" fill-rule="nonzero"></path><path stroke="#666666" stroke-width="2.0" stroke-linejoin="round" stroke-linecap="butt" d="m889.5906 329.76904l-103.175476 0l-20.63556 -20.63559l0 -143.77388l123.811035 0z" fill-rule="nonzero"></path><path fill="#000000" fill-opacity="0.0" d="m644.04724 344.3937l262.2047 0l0 31.212585l-262.2047 0z" fill-rule="nonzero"></path><path fill="#000000" d="m731.4365 371.3137l0 -13.59375l2.71875 0l3.21875 9.625q0.4375 1.34375 0.640625 2.015625q0.234375 -0.75 0.734375 -2.1875l3.25 -9.453125l2.421875 0l0 13.59375l-1.734375 0l0 -11.390625l-3.953125 11.390625l-1.625 0l-3.9375 -11.578125l0 11.578125l-1.734375 0zm21.822021 -1.21875q-0.9375 0.796875 -1.796875 1.125q-0.859375 0.3125 -1.84375 0.3125q-1.609375 0 -2.484375 -0.78125q-0.875 -0.796875 -0.875 -2.03125q0 -0.734375 0.328125 -1.328125q0.328125 -0.59375 0.859375 -0.953125q0.53125 -0.359375 1.203125 -0.546875q0.5 -0.140625 1.484375 -0.25q2.03125 -0.25 2.984375 -0.578125q0 -0.34375 0 -0.4375q0 -1.015625 -0.46875 -1.4375q-0.640625 -0.5625 -1.90625 -0.5625q-1.171875 0 -1.734375 0.40625q-0.5625 0.40625 -0.828125 1.46875l-1.640625 -0.234375q0.234375 -1.046875 0.734375 -1.6875q0.515625 -0.640625 1.46875 -0.984375q0.96875 -0.359375 2.25 -0.359375q1.265625 0 2.046875 0.296875q0.78125 0.296875 1.15625 0.75q0.375 0.453125 0.515625 1.140625q0.09375 0.421875 0.09375 1.53125l0 2.234375q0 2.328125 0.09375 2.953125q0.109375 0.609375 0.4375 1.171875l-1.75 0q-0.265625 -0.515625 -0.328125 -1.21875zm-0.140625 -3.71875q-0.90625 0.359375 -2.734375 0.625q-1.03125 0.140625 -1.453125 0.328125q-0.421875 0.1875 -0.65625 0.546875q-0.234375 0.359375 -0.234375 0.796875q0 0.671875 0.5 1.125q0.515625 0.4375 1.484375 0.4375q0.96875 0 1.71875 -0.421875q0.75 -0.4375 1.109375 -1.15625q0.265625 -0.578125 0.265625 -1.671875l0 -0.609375zm4.0944824 -4.921875l1.671875 0l0 4.109375l4.625 0l0 -4.109375l1.671875 0l0 9.859375l-1.671875 0l0 -4.375l-4.625 0l0 4.375l-1.671875 0l0 -9.859375zm10.287231 0l1.671875 0l0 7.515625l4.625 -7.515625l1.8125 0l0 9.859375l-1.671875 0l0 -7.46875l-4.640625 7.46875l-1.796875 0l0 -9.859375zm16.15564 -3.734375l1.671875 0l0 4.703125q0.515625 -0.59375 1.140625 -0.890625q0.625 -0.296875 1.34375 -0.296875q1.75 0 2.765625 1.46875q1.03125 1.453125 1.03125 3.671875q0 2.3125 -1.109375 3.734375q-1.09375 1.421875 -2.734375 1.421875q-0.546875 0 -1.109375 -0.171875q-0.546875 -0.15625 -1.328125 -0.90625l0 4.640625l-1.671875 0l0 -4.640625q-0.5 0.546875 -1.109375 0.8125q-0.609375 0.265625 -1.3125 0.265625q-1.546875 0 -2.703125 -1.359375q-1.15625 -1.359375 -1.15625 -3.890625q0 -2.140625 1.046875 -3.59375q1.046875 -1.453125 2.8125 -1.453125q0.75 0 1.34375 0.296875q0.609375 0.296875 1.078125 0.890625l0 -4.703125zm1.65625 8.703125q0 2.234375 0.609375 3.0q0.625 0.765625 1.546875 0.765625q1.015625 0 1.734375 -0.9375q0.71875 -0.953125 0.71875 -2.9375q0 -1.875 -0.671875 -2.796875q-0.65625 -0.921875 -1.703125 -0.921875q-1.109375 0 -1.671875 0.96875q-0.5625 0.953125 -0.5625 2.859375zm-6.25 -0.1875q0 2.09375 0.703125 3.015625q0.703125 0.90625 1.734375 0.90625q1.09375 0 1.625 -0.90625q0.546875 -0.921875 0.546875 -2.75q0 -1.9375 -0.578125 -2.90625q-0.5625 -0.984375 -1.703125 -0.984375q-1.03125 0 -1.6875 0.953125q-0.640625 0.953125 -0.640625 2.671875zm20.958862 1.90625l1.71875 0.21875q-0.40625 1.5 -1.515625 2.34375q-1.09375 0.828125 -2.8125 0.828125q-2.15625 0 -3.421875 -1.328125q-1.265625 -1.328125 -1.265625 -3.734375q0 -2.484375 1.265625 -3.859375q1.28125 -1.375 3.328125 -1.375q1.984375 0 3.234375 1.34375q1.25 1.34375 1.25 3.796875q0 0.140625 -0.015625 0.4375l-7.34375 0q0.09375 1.625 0.921875 2.484375q0.828125 0.859375 2.0625 0.859375q0.90625 0 1.546875 -0.46875q0.65625 -0.484375 1.046875 -1.546875zm-5.484375 -2.703125l5.5 0q-0.109375 -1.234375 -0.625 -1.859375q-0.796875 -0.96875 -2.078125 -0.96875q-1.140625 0 -1.9375 0.78125q-0.78125 0.765625 -0.859375 2.046875zm15.547607 2.265625l1.640625 0.21875q-0.265625 1.6875 -1.375 2.65625q-1.109375 0.953125 -2.734375 0.953125q-2.015625 0 -3.25 -1.3125q-1.21875 -1.328125 -1.21875 -3.796875q0 -1.59375 0.515625 -2.78125q0.53125 -1.203125 1.609375 -1.796875q1.09375 -0.609375 2.359375 -0.609375q1.609375 0 2.625 0.8125q1.015625 0.8125 1.3125 2.3125l-1.625 0.25q-0.234375 -1.0 -0.828125 -1.5q-0.59375 -0.5 -1.421875 -0.5q-1.265625 0 -2.0625 0.90625q-0.78125 0.90625 -0.78125 2.859375q0 1.984375 0.765625 2.890625q0.765625 0.890625 1.984375 0.890625q0.984375 0 1.640625 -0.59375q0.65625 -0.609375 0.84375 -1.859375zm2.0 -6.25l8.0 0l0 1.390625l-3.171875 0l0 8.46875l-1.65625 0l0 -8.46875l-3.171875 0l0 -1.390625z" fill-rule="nonzero"></path><path fill="#000000" fill-opacity="0.0" d="m713.75854 460.74014l192.5039 0l0 63.90555l-192.5039 0z" fill-rule="nonzero"></path><path fill="#000000" d="m724.2429 474.0664l10.703125 0l0 13.59375l-1.8125 0l0 -12.0l-7.09375 0l0 12.0l-1.796875 0l0 -13.59375zm13.174805 17.375l0 -13.640625l1.53125 0l0 1.28125q0.53125 -0.75 1.203125 -1.125q0.6875 -0.375 1.640625 -0.375q1.265625 0 2.234375 0.65625q0.96875 0.640625 1.453125 1.828125q0.5 1.1875 0.5 2.59375q0 1.515625 -0.546875 2.734375q-0.546875 1.203125 -1.578125 1.84375q-1.03125 0.640625 -2.171875 0.640625q-0.84375 0 -1.515625 -0.34375q-0.65625 -0.359375 -1.078125 -0.890625l0 4.796875l-1.671875 0zm1.515625 -8.65625q0 1.90625 0.765625 2.8125q0.78125 0.90625 1.875 0.90625q1.109375 0 1.890625 -0.9375q0.796875 -0.9375 0.796875 -2.921875q0 -1.875 -0.78125 -2.8125q-0.765625 -0.9375 -1.84375 -0.9375q-1.0625 0 -1.890625 1.0q-0.8125 1.0 -0.8125 2.890625zm8.235107 -0.046875q0 -2.734375 1.53125 -4.0625q1.265625 -1.09375 3.09375 -1.09375q2.03125 0 3.3125 1.34375q1.296875 1.328125 1.296875 3.671875q0 1.90625 -0.578125 3.0q-0.5625 1.078125 -1.65625 1.6875q-1.078125 0.59375 -2.375 0.59375q-2.0625 0 -3.34375 -1.328125q-1.28125 -1.328125 -1.28125 -3.8125zm1.71875 0q0 1.890625 0.828125 2.828125q0.828125 0.9375 2.078125 0.9375q1.25 0 2.0625 -0.9375q0.828125 -0.953125 0.828125 -2.890625q0 -1.828125 -0.828125 -2.765625q-0.828125 -0.9375 -2.0625 -0.9375q-1.25 0 -2.078125 0.9375q-0.828125 0.9375 -0.828125 2.828125zm10.594421 -4.9375l6.875 0l0 8.484375l1.0625 0l0 4.171875l-1.375 0l0 -2.796875l-7.75 0l0 2.796875l-1.375 0l0 -4.171875l0.875 0q1.765625 -2.390625 1.6875 -8.484375zm1.40625 1.390625q-0.1875 4.796875 -1.484375 7.09375l5.296875 0l0 -7.09375l-3.8125 0zm8.182739 -1.390625l3.84375 0q1.421875 0 2.109375 0.25q0.6875 0.234375 1.1875 0.859375q0.5 0.625 0.5 1.515625q0 0.703125 -0.296875 1.234375q-0.28125 0.515625 -0.875 0.875q0.703125 0.21875 1.15625 0.859375q0.46875 0.640625 0.46875 1.515625q-0.09375 1.390625 -1.015625 2.078125q-0.90625 0.671875 -2.640625 0.671875l-4.4375 0l0 -9.859375zm1.671875 4.15625l1.78125 0q1.0625 0 1.453125 -0.109375q0.40625 -0.109375 0.71875 -0.453125q0.3125 -0.34375 0.3125 -0.8125q0 -0.78125 -0.546875 -1.078125q-0.546875 -0.3125 -1.890625 -0.3125l-1.828125 0l0 2.765625zm0 4.328125l2.1875 0q1.421875 0 1.953125 -0.328125q0.53125 -0.328125 0.5625 -1.140625q0 -0.46875 -0.3125 -0.875q-0.3125 -0.40625 -0.796875 -0.5q-0.484375 -0.109375 -1.578125 -0.109375l-2.015625 0l0 2.953125zm8.223633 -8.484375l1.671875 0l0 7.515625l4.625 -7.515625l1.8125 0l0 9.859375l-1.671875 0l0 -7.46875l-4.640625 7.46875l-1.796875 0l0 -9.859375zm16.37439 0l0 4.265625q0.796875 0 1.125 -0.296875q0.328125 -0.3125 0.953125 -1.796875q0.578125 -1.390625 1.046875 -1.78125q0.453125 -0.390625 1.4375 -0.390625l0.625 0l0 1.390625l-0.453125 -0.015625q-0.671875 0 -0.859375 0.203125q-0.203125 0.203125 -0.59375 1.21875q-0.375 0.953125 -0.6875 1.328125q-0.3125 0.375 -0.984375 0.671875q1.09375 0.296875 2.109375 2.015625l1.84375 3.046875l-1.84375 0l-1.78125 -3.046875q-0.546875 -0.9375 -0.953125 -1.21875q-0.40625 -0.296875 -0.984375 -0.296875l0 4.5625l-1.703125 0l0 -4.5625q-0.5625 0 -0.96875 0.296875q-0.40625 0.28125 -0.953125 1.21875l-1.78125 3.046875l-1.84375 0l1.828125 -3.046875q1.046875 -1.71875 2.125 -2.015625q-0.75 -0.34375 -1.046875 -0.734375q-0.296875 -0.40625 -0.890625 -1.9375q-0.203125 -0.5 -0.421875 -0.625q-0.25 -0.125 -0.71875 -0.125q-0.125 0 -0.5 0.015625l0 -1.390625l0.234375 0q0.96875 0 1.359375 0.125q0.390625 0.109375 0.703125 0.484375q0.3125 0.375 0.8125 1.5625q0.609375 1.46875 0.921875 1.78125q0.328125 0.3125 1.140625 0.3125l0 -4.265625l1.703125 0zm13.2769165 6.6875l1.71875 0.21875q-0.40625 1.5 -1.515625 2.34375q-1.09375 0.828125 -2.8125 0.828125q-2.15625 0 -3.421875 -1.328125q-1.265625 -1.328125 -1.265625 -3.734375q0 -2.484375 1.265625 -3.859375q1.28125 -1.375 3.328125 -1.375q1.984375 0 3.234375 1.34375q1.25 1.34375 1.25 3.796875q0 0.140625 -0.015625 0.4375l-7.34375 0q0.09375 1.625 0.921875 2.484375q0.828125 0.859375 2.0625 0.859375q0.90625 0 1.546875 -0.46875q0.65625 -0.484375 1.046875 -1.546875zm-5.484375 -2.703125l5.5 0q-0.109375 -1.234375 -0.625 -1.859375q-0.796875 -0.96875 -2.078125 -0.96875q-1.140625 0 -1.9375 0.78125q-0.78125 0.765625 -0.859375 2.046875zm9.125671 -3.984375l1.671875 0l0 4.109375l4.625 0l0 -4.109375l1.671875 0l0 9.859375l-1.671875 0l0 -4.375l-4.625 0l0 4.375l-1.671875 0l0 -9.859375zm10.287231 0l1.671875 0l0 7.515625l4.625 -7.515625l1.8125 0l0 9.859375l-1.671875 0l0 -7.46875l-4.640625 7.46875l-1.796875 0l0 -9.859375zm17.171265 6.6875l1.71875 0.21875q-0.40625 1.5 -1.515625 2.34375q-1.09375 0.828125 -2.8125 0.828125q-2.15625 0 -3.421875 -1.328125q-1.265625 -1.328125 -1.265625 -3.734375q0 -2.484375 1.265625 -3.859375q1.28125 -1.375 3.328125 -1.375q1.984375 0 3.234375 1.34375q1.25 1.34375 1.25 3.796875q0 0.140625 -0.015625 0.4375l-7.34375 0q0.09375 1.625 0.921875 2.484375q0.828125 0.859375 2.0625 0.859375q0.90625 0 1.546875 -0.46875q0.65625 -0.484375 1.046875 -1.546875zm-5.484375 -2.703125l5.5 0q-0.109375 -1.234375 -0.625 -1.859375q-0.796875 -0.96875 -2.078125 -0.96875q-1.140625 0 -1.9375 0.78125q-0.78125 0.765625 -0.859375 2.046875z" fill-rule="nonzero"></path><path fill="#000000" d="m724.2273 509.66016l0 -13.59375l5.125 0q1.359375 0 2.078125 0.125q1.0 0.171875 1.671875 0.640625q0.671875 0.46875 1.078125 1.3125q0.421875 0.84375 0.421875 1.84375q0 1.734375 -1.109375 2.9375q-1.09375 1.203125 -3.984375 1.203125l-3.484375 0l0 5.53125l-1.796875 0zm1.796875 -7.140625l3.515625 0q1.75 0 2.46875 -0.640625q0.734375 -0.65625 0.734375 -1.828125q0 -0.859375 -0.4375 -1.46875q-0.421875 -0.609375 -1.125 -0.796875q-0.453125 -0.125 -1.671875 -0.125l-3.484375 0l0 4.859375zm17.177917 3.96875l1.71875 0.21875q-0.40625 1.5 -1.515625 2.34375q-1.09375 0.828125 -2.8125 0.828125q-2.15625 0 -3.421875 -1.328125q-1.265625 -1.328125 -1.265625 -3.734375q0 -2.484375 1.265625 -3.859375q1.28125 -1.375 3.328125 -1.375q1.984375 0 3.234375 1.34375q1.25 1.34375 1.25 3.796875q0 0.140625 -0.015625 0.4375l-7.34375 0q0.09375 1.625 0.921875 2.484375q0.828125 0.859375 2.0625 0.859375q0.90625 0 1.546875 -0.46875q0.65625 -0.484375 1.046875 -1.546875zm-5.484375 -2.703125l5.5 0q-0.109375 -1.234375 -0.625 -1.859375q-0.796875 -0.96875 -2.078125 -0.96875q-1.140625 0 -1.9375 0.78125q-0.78125 0.765625 -0.859375 2.046875zm15.547607 4.65625q-0.9375 0.796875 -1.796875 1.125q-0.859375 0.3125 -1.84375 0.3125q-1.609375 0 -2.484375 -0.78125q-0.875 -0.796875 -0.875 -2.03125q0 -0.734375 0.328125 -1.328125q0.328125 -0.59375 0.859375 -0.953125q0.53125 -0.359375 1.203125 -0.546875q0.5 -0.140625 1.484375 -0.25q2.03125 -0.25 2.984375 -0.578125q0 -0.34375 0 -0.4375q0 -1.015625 -0.46875 -1.4375q-0.640625 -0.5625 -1.90625 -0.5625q-1.171875 0 -1.734375 0.40625q-0.5625 0.40625 -0.828125 1.46875l-1.640625 -0.234375q0.234375 -1.046875 0.734375 -1.6875q0.515625 -0.640625 1.46875 -0.984375q0.96875 -0.359375 2.25 -0.359375q1.265625 0 2.046875 0.296875q0.78125 0.296875 1.15625 0.75q0.375 0.453125 0.515625 1.140625q0.09375 0.421875 0.09375 1.53125l0 2.234375q0 2.328125 0.09375 2.953125q0.109375 0.609375 0.4375 1.171875l-1.75 0q-0.265625 -0.515625 -0.328125 -1.21875zm-0.140625 -3.71875q-0.90625 0.359375 -2.734375 0.625q-1.03125 0.140625 -1.453125 0.328125q-0.421875 0.1875 -0.65625 0.546875q-0.234375 0.359375 -0.234375 0.796875q0 0.671875 0.5 1.125q0.515625 0.4375 1.484375 0.4375q0.96875 0 1.71875 -0.421875q0.75 -0.4375 1.109375 -1.15625q0.265625 -0.578125 0.265625 -1.671875l0 -0.609375zm4.8913574 -4.921875l7.765625 0l0 9.859375l-1.65625 0l0 -8.46875l-4.4375 0l0 4.90625q0 1.71875 -0.109375 2.265625q-0.109375 0.546875 -0.609375 0.953125q-0.5 0.40625 -1.453125 0.40625q-0.578125 0 -1.34375 -0.078125l0 -1.390625l0.734375 0q0.515625 0 0.734375 -0.09375q0.234375 -0.109375 0.296875 -0.34375q0.078125 -0.234375 0.078125 -1.515625l0 -6.5zm10.073364 0l1.671875 0l0 7.515625l4.625 -7.515625l1.8125 0l0 9.859375l-1.671875 0l0 -7.46875l-4.640625 7.46875l-1.796875 0l0 -9.859375zm12.608765 5.40625l0 -1.3125q1.046875 0 1.4375 -0.078125q0.390625 -0.078125 0.734375 -0.4375q0.34375 -0.375 0.34375 -0.9375q0 -0.671875 -0.453125 -1.078125q-0.453125 -0.40625 -1.171875 -0.40625q-1.40625 0 -1.96875 1.65625l-1.59375 -0.25q0.75 -2.78125 3.578125 -2.78125q1.578125 0 2.46875 0.875q0.90625 0.859375 0.90625 2.046875q0 1.203125 -1.171875 1.921875q0.75 0.40625 1.109375 1.03125q0.375 0.609375 0.375 1.453125q0 1.328125 -0.96875 2.15625q-0.953125 0.8125 -2.6875 0.8125q-3.375 0 -3.90625 -3.0l1.5625 -0.328125q0.21875 0.953125 0.859375 1.46875q0.65625 0.515625 1.5 0.515625q0.84375 0 1.40625 -0.46875q0.5625 -0.484375 0.5625 -1.234375q0 -0.5625 -0.359375 -0.984375q-0.34375 -0.4375 -0.75 -0.546875q-0.390625 -0.109375 -1.4375 -0.109375q-0.078125 0 -0.375 0.015625zm12.803772 3.234375q-0.9375 0.796875 -1.796875 1.125q-0.859375 0.3125 -1.84375 0.3125q-1.609375 0 -2.484375 -0.78125q-0.875 -0.796875 -0.875 -2.03125q0 -0.734375 0.328125 -1.328125q0.328125 -0.59375 0.859375 -0.953125q0.53125 -0.359375 1.203125 -0.546875q0.5 -0.140625 1.484375 -0.25q2.03125 -0.25 2.984375 -0.578125q0 -0.34375 0 -0.4375q0 -1.015625 -0.46875 -1.4375q-0.640625 -0.5625 -1.90625 -0.5625q-1.171875 0 -1.734375 0.40625q-0.5625 0.40625 -0.828125 1.46875l-1.640625 -0.234375q0.234375 -1.046875 0.734375 -1.6875q0.515625 -0.640625 1.46875 -0.984375q0.96875 -0.359375 2.25 -0.359375q1.265625 0 2.046875 0.296875q0.78125 0.296875 1.15625 0.75q0.375 0.453125 0.515625 1.140625q0.09375 0.421875 0.09375 1.53125l0 2.234375q0 2.328125 0.09375 2.953125q0.109375 0.609375 0.4375 1.171875l-1.75 0q-0.265625 -0.515625 -0.328125 -1.21875zm-0.140625 -3.71875q-0.90625 0.359375 -2.734375 0.625q-1.03125 0.140625 -1.453125 0.328125q-0.421875 0.1875 -0.65625 0.546875q-0.234375 0.359375 -0.234375 0.796875q0 0.671875 0.5 1.125q0.515625 0.4375 1.484375 0.4375q0.96875 0 1.71875 -0.421875q0.75 -0.4375 1.109375 -1.15625q0.265625 -0.578125 0.265625 -1.671875l0 -0.609375zm4.1101074 -4.921875l1.671875 0l0 8.484375l4.625 0l0 -8.484375l1.65625 0l0 8.484375l1.078125 0l0 4.171875l-1.375 0l0 -2.796875l-7.65625 0l0 -9.859375zm10.654175 0l1.671875 0l0 7.515625l4.625 -7.515625l1.8125 0l0 9.859375l-1.671875 0l0 -7.46875l-4.640625 7.46875l-1.796875 0l0 -9.859375zm18.18689 0l0 9.859375l-1.671875 0l0 -3.84375l-0.953125 0q-0.890625 0 -1.328125 0.234375q-0.421875 0.21875 -1.25 1.453125l-1.453125 2.15625l-2.078125 0l1.8125 -2.65625q0.8125 -1.21875 1.640625 -1.375q-1.4375 -0.1875 -2.125 -1.015625q-0.6875 -0.84375 -0.6875 -1.9375q0 -1.265625 0.90625 -2.0625q0.90625 -0.8125 2.609375 -0.8125l4.578125 0zm-1.671875 1.390625l-2.375 0q-1.484375 0 -1.921875 0.46875q-0.4375 0.453125 -0.4375 1.078125q0 0.875 0.640625 1.296875q0.640625 0.40625 2.25 0.40625l1.84375 0l0 -3.25z" fill-rule="nonzero"></path><path fill="#cccccc" d="m794.33856 400.44095l0 27.259827l15.629944 0l-31.259827 27.259857l-31.259888 -27.259857l15.629944 0l0 -27.259827z" fill-rule="nonzero"></path><path stroke="#666666" stroke-width="2.0" stroke-linejoin="round" stroke-linecap="butt" d="m794.33856 400.44095l0 27.259827l15.629944 0l-31.259827 27.259857l-31.259888 -27.259857l15.629944 0l0 -27.259827z" fill-rule="nonzero"></path></g></svg>

