<?xml version="1.0" standalone="yes"?>

<svg version="1.1" viewBox="0.0 0.0 960.0 540.0" fill="none" stroke="none" stroke-linecap="square" stroke-miterlimit="10" xmlns="http://www.w3.org/2000/svg" xmlns:xlink="http://www.w3.org/1999/xlink"><clipPath id="g2b8db08d9_0164.0"><path d="m0 0l960.0 0l0 540.0l-960.0 0l0 -540.0z" clip-rule="nonzero"></path></clipPath><g clip-path="url(#g2b8db08d9_0164.0)"><path fill="#ffffff" d="m0 0l960.0 0l0 540.0l-960.0 0z" fill-rule="nonzero"></path><path fill="#000000" fill-opacity="0.0" d="m327.74802 14.498688l322.55118 0l0 58.267715l-322.55118 0z" fill-rule="nonzero"></path><path fill="#000000" d="m344.04706 31.312439l14.859375 0l0 2.703125l-11.828125 0l0 7.0625l5.46875 0q3.03125 0 4.8125 0.578125q1.796875 0.578125 2.875 2.1875q1.078125 1.59375 1.078125 3.71875q0 1.734375 -0.78125 3.25q-0.765625 1.5 -2.296875 2.453125q-1.53125 0.953125 -5.21875 0.953125l-8.96875 0l0 -22.90625zm3.03125 20.328125l6.0625 0q2.453125 0 3.671875 -1.0q1.234375 -1.0 1.234375 -3.0q0 -1.421875 -0.703125 -2.375q-0.703125 -0.953125 -1.953125 -1.265625q-1.25 -0.3125 -4.265625 -0.3125l-4.046875 0l0 7.953125zm18.84375 -14.015625l13.0625 0l0 16.59375l-2.796875 0l0 -14.265625l-7.453125 0l0 8.265625q0 2.890625 -0.1875 3.8125q-0.1875 0.921875 -1.03125 1.609375q-0.84375 0.6875 -2.4375 0.6875q-0.984375 0 -2.265625 -0.125l0 -2.34375l1.234375 0q0.875 0 1.25 -0.171875q0.375 -0.1875 0.5 -0.578125q0.125 -0.390625 0.125 -2.546875l0 -10.9375zm16.25 8.296875q0 -4.609375 2.5625 -6.828125q2.140625 -1.84375 5.21875 -1.84375q3.421875 0 5.59375 2.25q2.171875 2.234375 2.171875 6.1875q0 3.203125 -0.96875 5.046875q-0.953125 1.828125 -2.796875 2.84375q-1.828125 1.015625 -4.0 1.015625q-3.484375 0 -5.640625 -2.234375q-2.140625 -2.234375 -2.140625 -6.4375zm2.890625 0q0 3.1875 1.390625 4.78125q1.390625 1.578125 3.5 1.578125q2.09375 0 3.484375 -1.59375q1.390625 -1.59375 1.390625 -4.859375q0 -3.078125 -1.40625 -4.65625q-1.390625 -1.59375 -3.46875 -1.59375q-2.109375 0 -3.5 1.578125q-1.390625 1.578125 -1.390625 4.765625zm15.96875 -8.296875l9.546875 0l0 2.328125l-6.734375 0l0 14.265625l-2.8125 0l0 -16.59375zm11.65625 0l2.8125 0l0 12.65625l7.796875 -12.65625l3.03125 0l0 16.59375l-2.8125 0l0 -12.578125l-7.796875 12.578125l-3.03125 0l0 -16.59375zm25.71875 8.296875q0 -4.609375 2.5625 -6.828125q2.140625 -1.84375 5.21875 -1.84375q3.421875 0 5.59375 2.25q2.171875 2.234375 2.171875 6.1875q0 3.203125 -0.96875 5.046875q-0.953125 1.828125 -2.796875 2.84375q-1.828125 1.015625 -4.0 1.015625q-3.484375 0 -5.640625 -2.234375q-2.140625 -2.234375 -2.140625 -6.4375zm2.890625 0q0 3.1875 1.390625 4.78125q1.390625 1.578125 3.5 1.578125q2.09375 0 3.484375 -1.59375q1.390625 -1.59375 1.390625 -4.859375q0 -3.078125 -1.40625 -4.65625q-1.390625 -1.59375 -3.46875 -1.59375q-2.109375 0 -3.5 1.578125q-1.390625 1.578125 -1.390625 4.765625zm25.109375 8.296875l0 -22.90625l4.5625 0l5.421875 16.21875q0.75 2.265625 1.09375 3.390625q0.390625 -1.25 1.21875 -3.671875l5.484375 -15.9375l4.078125 0l0 22.90625l-2.921875 0l0 -19.171875l-6.65625 19.171875l-2.734375 0l-6.625 -19.5l0 19.5l-2.921875 0zm37.21875 -2.046875q-1.5625 1.328125 -3.015625 1.875q-1.4375 0.546875 -3.09375 0.546875q-2.734375 0 -4.203125 -1.328125q-1.46875 -1.34375 -1.46875 -3.421875q0 -1.21875 0.546875 -2.21875q0.5625 -1.015625 1.453125 -1.625q0.90625 -0.609375 2.03125 -0.921875q0.828125 -0.21875 2.5 -0.421875q3.40625 -0.40625 5.015625 -0.96875q0.015625 -0.578125 0.015625 -0.734375q0 -1.71875 -0.796875 -2.421875q-1.078125 -0.953125 -3.203125 -0.953125q-1.984375 0 -2.9375 0.703125q-0.9375 0.6875 -1.390625 2.453125l-2.75 -0.375q0.375 -1.765625 1.234375 -2.84375q0.859375 -1.09375 2.484375 -1.671875q1.625 -0.59375 3.765625 -0.59375q2.125 0 3.453125 0.5q1.328125 0.5 1.953125 1.265625q0.625 0.75 0.875 1.90625q0.140625 0.71875 0.140625 2.59375l0 3.75q0 3.921875 0.171875 4.96875q0.1875 1.03125 0.71875 1.984375l-2.9375 0q-0.4375 -0.875 -0.5625 -2.046875zm-0.234375 -6.28125q-1.53125 0.625 -4.59375 1.0625q-1.734375 0.25 -2.453125 0.5625q-0.71875 0.3125 -1.109375 0.921875q-0.390625 0.59375 -0.390625 1.328125q0 1.125 0.84375 1.875q0.859375 0.75 2.5 0.75q1.625 0 2.890625 -0.703125q1.265625 -0.71875 1.859375 -1.953125q0.453125 -0.953125 0.453125 -2.8125l0 -1.03125zm7.21875 -8.265625l2.8125 0l0 6.90625l7.796875 0l0 -6.90625l2.8125 0l0 16.59375l-2.8125 0l0 -7.359375l-7.796875 0l0 7.359375l-2.8125 0l0 -16.59375zm17.65625 0l2.8125 0l0 12.65625l7.796875 -12.65625l3.03125 0l0 16.59375l-2.8125 0l0 -12.578125l-7.796875 12.578125l-3.03125 0l0 -16.59375zm27.53125 -6.3125l2.8125 0l0 7.921875q0.875 -1.0 1.921875 -1.484375q1.046875 -0.5 2.25 -0.5q2.953125 0 4.671875 2.46875q1.734375 2.453125 1.734375 6.1875q0 3.890625 -1.859375 6.296875q-1.859375 2.390625 -4.625 2.390625q-0.90625 0 -1.84375 -0.28125q-0.9375 -0.28125 -2.25 -1.53125l0 7.796875l-2.8125 0l0 -7.796875q-0.84375 0.90625 -1.875 1.359375q-1.015625 0.453125 -2.203125 0.453125q-2.609375 0 -4.5625 -2.28125q-1.953125 -2.296875 -1.953125 -6.5625q0 -3.609375 1.765625 -6.046875q1.765625 -2.453125 4.75 -2.453125q1.25 0 2.265625 0.5q1.015625 0.484375 1.8125 1.484375l0 -7.921875zm2.796875 14.671875q0 3.75 1.03125 5.046875q1.03125 1.28125 2.578125 1.28125q1.71875 0 2.921875 -1.578125q1.21875 -1.59375 1.21875 -4.9375q0 -3.15625 -1.125 -4.703125q-1.109375 -1.546875 -2.859375 -1.546875q-1.875 0 -2.828125 1.609375q-0.9375 1.609375 -0.9375 4.828125zm-10.53125 -0.3125q0 3.515625 1.171875 5.0625q1.1875 1.546875 2.9375 1.546875q1.828125 0 2.734375 -1.53125q0.90625 -1.546875 0.90625 -4.625q0 -3.28125 -0.953125 -4.921875q-0.953125 -1.640625 -2.875 -1.640625q-1.734375 0 -2.828125 1.609375q-1.09375 1.59375 -1.09375 4.5zm35.765625 3.203125l2.90625 0.359375q-0.6875 2.546875 -2.546875 3.953125q-1.859375 1.40625 -4.75 1.40625q-3.640625 0 -5.78125 -2.234375q-2.125 -2.25 -2.125 -6.296875q0 -4.1875 2.15625 -6.5q2.15625 -2.3125 5.59375 -2.3125q3.328125 0 5.4375 2.265625q2.109375 2.265625 2.109375 6.375q0 0.25 -0.015625 0.75l-12.375 0q0.15625 2.734375 1.546875 4.1875q1.390625 1.453125 3.46875 1.453125q1.546875 0 2.640625 -0.8125q1.09375 -0.8125 1.734375 -2.59375zm-9.234375 -4.546875l9.265625 0q-0.1875 -2.09375 -1.0625 -3.140625q-1.34375 -1.625 -3.484375 -1.625q-1.9375 0 -3.265625 1.296875q-1.3125 1.296875 -1.453125 3.46875zm26.5 3.8125l2.765625 0.359375q-0.453125 2.859375 -2.328125 4.484375q-1.859375 1.609375 -4.578125 1.609375q-3.40625 0 -5.484375 -2.21875q-2.0625 -2.234375 -2.0625 -6.390625q0 -2.6875 0.890625 -4.703125q0.890625 -2.015625 2.703125 -3.015625q1.828125 -1.015625 3.96875 -1.015625q2.703125 0 4.421875 1.375q1.71875 1.359375 2.203125 3.875l-2.734375 0.421875q-0.390625 -1.671875 -1.390625 -2.515625q-0.984375 -0.84375 -2.390625 -0.84375q-2.125 0 -3.453125 1.53125q-1.328125 1.515625 -1.328125 4.8125q0 3.34375 1.28125 4.859375q1.28125 1.515625 3.34375 1.515625q1.65625 0 2.765625 -1.015625q1.109375 -1.015625 1.40625 -3.125zm3.65625 -10.515625l13.484375 0l0 2.328125l-5.34375 0l0 14.265625l-2.796875 0l0 -14.265625l-5.34375 0l0 -2.328125zm27.53125 11.25l2.90625 0.359375q-0.6875 2.546875 -2.546875 3.953125q-1.859375 1.40625 -4.75 1.40625q-3.640625 0 -5.78125 -2.234375q-2.125 -2.25 -2.125 -6.296875q0 -4.1875 2.15625 -6.5q2.15625 -2.3125 5.59375 -2.3125q3.328125 0 5.4375 2.265625q2.109375 2.265625 2.109375 6.375q0 0.25 -0.015625 0.75l-12.375 0q0.15625 2.734375 1.546875 4.1875q1.390625 1.453125 3.46875 1.453125q1.546875 0 2.640625 -0.8125q1.09375 -0.8125 1.734375 -2.59375zm-9.234375 -4.546875l9.265625 0q-0.1875 -2.09375 -1.0625 -3.140625q-1.34375 -1.625 -3.484375 -1.625q-1.9375 0 -3.265625 1.296875q-1.3125 1.296875 -1.453125 3.46875z" fill-rule="nonzero"></path><path fill="#000000" fill-opacity="0.0" d="m164.55492 97.77606l210.17323 0l0 39.527557l-210.17323 0z" fill-rule="nonzero"></path><path fill="#000000" d="m211.54396 111.10231l8.828125 0l0 1.59375l-7.03125 0l0 4.203125l3.25 0q1.796875 0 2.859375 0.34375q1.0625 0.34375 1.703125 1.296875q0.640625 0.9375 0.640625 2.203125q0 1.03125 -0.46875 1.9375q-0.453125 0.890625 -1.359375 1.453125q-0.90625 0.5625 -3.09375 0.5625l-5.328125 0l0 -13.59375zm1.796875 12.0625l3.609375 0q1.453125 0 2.171875 -0.59375q0.734375 -0.59375 0.734375 -1.78125q0 -0.84375 -0.421875 -1.40625q-0.40625 -0.5625 -1.15625 -0.75q-0.734375 -0.1875 -2.53125 -0.1875l-2.40625 0l0 4.71875zm10.961914 -8.328125l7.765625 0l0 9.859375l-1.65625 0l0 -8.46875l-4.4375 0l0 4.90625q0 1.71875 -0.109375 2.265625q-0.109375 0.546875 -0.609375 0.953125q-0.5 0.40625 -1.453125 0.40625q-0.578125 0 -1.34375 -0.078125l0 -1.390625l0.734375 0q0.515625 0 0.734375 -0.09375q0.234375 -0.109375 0.296875 -0.34375q0.078125 -0.234375 0.078125 -1.515625l0 -6.5zm9.448349 4.9375q0 -2.734375 1.53125 -4.0625q1.265625 -1.09375 3.09375 -1.09375q2.03125 0 3.3125 1.34375q1.296875 1.328125 1.296875 3.671875q0 1.90625 -0.578125 3.0q-0.5625 1.078125 -1.65625 1.6875q-1.078125 0.59375 -2.375 0.59375q-2.0625 0 -3.34375 -1.328125q-1.28125 -1.328125 -1.28125 -3.8125zm1.71875 0q0 1.890625 0.828125 2.828125q0.828125 0.9375 2.078125 0.9375q1.25 0 2.0625 -0.9375q0.828125 -0.953125 0.828125 -2.890625q0 -1.828125 -0.828125 -2.765625q-0.828125 -0.9375 -2.0625 -0.9375q-1.25 0 -2.078125 0.9375q-0.828125 0.9375 -0.828125 2.828125zm9.297592 -4.9375l5.671875 0l0 1.390625l-4.0 0l0 8.46875l-1.671875 0l0 -9.859375zm12.238113 9.859375l0 -13.59375l1.8125 0l0 5.578125l7.0625 0l0 -5.578125l1.796875 0l0 13.59375l-1.796875 0l0 -6.40625l-7.0625 0l0 6.40625l-1.8125 0zm13.207306 -9.859375l1.671875 0l0 7.515625l4.625 -7.515625l1.8125 0l0 9.859375l-1.671875 0l0 -7.46875l-4.640625 7.46875l-1.796875 0l0 -9.859375zm10.421265 0l1.65625 0l0 4.265625q0.8125 0 1.125 -0.296875q0.3125 -0.3125 0.9375 -1.796875q0.5 -1.15625 0.796875 -1.53125q0.3125 -0.375 0.703125 -0.5q0.40625 -0.140625 1.28125 -0.140625l0.34375 0l0 1.390625l-0.46875 -0.015625q-0.65625 0 -0.84375 0.203125q-0.1875 0.203125 -0.59375 1.21875q-0.375 0.953125 -0.703125 1.328125q-0.3125 0.375 -0.96875 0.671875q1.078125 0.296875 2.125 2.015625l1.828125 3.046875l-1.84375 0l-1.78125 -3.046875q-0.546875 -0.921875 -0.953125 -1.21875q-0.40625 -0.296875 -0.984375 -0.296875l0 4.5625l-1.65625 0l0 -9.859375zm7.5371094 4.9375q0 -2.734375 1.53125 -4.0625q1.265625 -1.09375 3.09375 -1.09375q2.03125 0 3.3125 1.34375q1.296875 1.328125 1.296875 3.671875q0 1.90625 -0.578125 3.0q-0.5625 1.078125 -1.65625 1.6875q-1.078125 0.59375 -2.375 0.59375q-2.0625 0 -3.34375 -1.328125q-1.28125 -1.328125 -1.28125 -3.8125zm1.71875 0q0 1.890625 0.828125 2.828125q0.828125 0.9375 2.078125 0.9375q1.25 0 2.0625 -0.9375q0.828125 -0.953125 0.828125 -2.890625q0 -1.828125 -0.828125 -2.765625q-0.828125 -0.9375 -2.0625 -0.9375q-1.25 0 -2.078125 0.9375q-0.828125 0.9375 -0.828125 2.828125zm10.094452 -4.9375l7.765625 0l0 9.859375l-1.65625 0l0 -8.46875l-4.4375 0l0 4.90625q0 1.71875 -0.109375 2.265625q-0.109375 0.546875 -0.609375 0.953125q-0.5 0.40625 -1.453125 0.40625q-0.578125 0 -1.34375 -0.078125l0 -1.390625l0.734375 0q0.515625 0 0.734375 -0.09375q0.234375 -0.109375 0.296875 -0.34375q0.078125 -0.234375 0.078125 -1.515625l0 -6.5zm16.510864 8.640625q-0.9375 0.796875 -1.796875 1.125q-0.859375 0.3125 -1.84375 0.3125q-1.609375 0 -2.484375 -0.78125q-0.875 -0.796875 -0.875 -2.03125q0 -0.734375 0.328125 -1.328125q0.328125 -0.59375 0.859375 -0.953125q0.53125 -0.359375 1.203125 -0.546875q0.5 -0.140625 1.484375 -0.25q2.03125 -0.25 2.984375 -0.578125q0 -0.34375 0 -0.4375q0 -1.015625 -0.46875 -1.4375q-0.640625 -0.5625 -1.90625 -0.5625q-1.171875 0 -1.734375 0.40625q-0.5625 0.40625 -0.828125 1.46875l-1.640625 -0.234375q0.234375 -1.046875 0.734375 -1.6875q0.515625 -0.640625 1.46875 -0.984375q0.96875 -0.359375 2.25 -0.359375q1.265625 0 2.046875 0.296875q0.78125 0.296875 1.15625 0.75q0.375 0.453125 0.515625 1.140625q0.09375 0.421875 0.09375 1.53125l0 2.234375q0 2.328125 0.09375 2.953125q0.109375 0.609375 0.4375 1.171875l-1.75 0q-0.265625 -0.515625 -0.328125 -1.21875zm-0.140625 -3.71875q-0.90625 0.359375 -2.734375 0.625q-1.03125 0.140625 -1.453125 0.328125q-0.421875 0.1875 -0.65625 0.546875q-0.234375 0.359375 -0.234375 0.796875q0 0.671875 0.5 1.125q0.515625 0.4375 1.484375 0.4375q0.96875 0 1.71875 -0.421875q0.75 -0.4375 1.109375 -1.15625q0.265625 -0.578125 0.265625 -1.671875l0 -0.609375zm11.844452 -4.921875l0 9.859375l-1.671875 0l0 -3.84375l-0.953125 0q-0.890625 0 -1.328125 0.234375q-0.421875 0.21875 -1.25 1.453125l-1.453125 2.15625l-2.078125 0l1.8125 -2.65625q0.8125 -1.21875 1.640625 -1.375q-1.4375 -0.1875 -2.125 -1.015625q-0.6875 -0.84375 -0.6875 -1.9375q0 -1.265625 0.90625 -2.0625q0.90625 -0.8125 2.609375 -0.8125l4.578125 0zm-1.671875 1.390625l-2.375 0q-1.484375 0 -1.921875 0.46875q-0.4375 0.453125 -0.4375 1.078125q0 0.875 0.640625 1.296875q0.640625 0.40625 2.25 0.40625l1.84375 0l0 -3.25z" fill-rule="nonzero"></path><path fill="#d9ead3" d="m613.9639 149.65355c-7.333008 0 -13.277588 5.944565 -13.277588 13.277557l13.277588 0c-3.666504 0 -6.638794 2.9722748 -6.638794 6.6387787c0 3.666504 2.97229 6.6387787 6.638794 6.6387787l-13.277588 0l0 172.60826l0 0c0 7.333008 -5.94458 13.277557 -13.277527 13.277557l-191.86618 0c-7.3329773 0 -13.277557 -5.9445496 -13.277557 -13.277557c0 -7.3329773 5.94458 -13.277557 13.277557 -13.277557l13.277557 0l0 -172.60826c0 -7.3329926 5.94458 -13.277557 13.277557 -13.277557zm-39.832703 199.16338l0 0c0 -7.3329773 5.94458 -13.277557 13.277588 -13.277557c3.666504 0 6.638733 2.97229 6.638733 6.638794c0 3.6664734 -2.972229 6.6387634 -6.638733 6.6387634z" fill-rule="nonzero"></path><path fill="#adbba8" d="m574.1312 348.81693l0 0c0 -7.3329773 5.94458 -13.277557 13.277588 -13.277557c3.666504 0 6.638733 2.97229 6.638733 6.638794c0 3.6664734 -2.972229 6.6387634 -6.638733 6.6387634zm26.555115 -185.88582c0 -7.3329926 5.94458 -13.277557 13.277588 -13.277557c7.332947 0 13.277527 5.944565 13.277527 13.277557c0 7.3329926 -5.94458 13.277557 -13.277527 13.277557l0 0c-3.666504 0 -6.638794 -2.9722748 -6.638794 -6.6387787c0 -3.666504 2.97229 -6.6387787 6.638794 -6.6387787z" fill-rule="nonzero"></path><path fill="#000000" fill-opacity="0.0" d="m600.68634 176.20866l0 172.60826l0 0c0 7.333008 -5.94458 13.277557 -13.277527 13.277557l-191.86618 0c-7.3329773 0 -13.277557 -5.9445496 -13.277557 -13.277557c0 -7.3329773 5.94458 -13.277557 13.277557 -13.277557l13.277557 0l0 -172.60826c0 -7.3329926 5.94458 -13.277557 13.277557 -13.277557l191.86618 0c7.332947 0 13.277527 5.944565 13.277527 13.277557c0 7.3329926 -5.94458 13.277557 -13.277527 13.277557zm-13.277527 185.88582l0 0c-7.333008 0 -13.277588 -5.9445496 -13.277588 -13.277557c0 -7.3329773 5.94458 -13.277557 13.277588 -13.277557c3.666504 0 6.638733 2.97229 6.638733 6.638794c0 3.6664734 -2.972229 6.6387634 -6.638733 6.6387634l-13.277588 0m-165.31104 -13.277557l178.58862 0m26.555115 -159.3307l0 0c-3.666504 0 -6.638794 -2.9722748 -6.638794 -6.6387787c0 -3.666504 2.97229 -6.6387787 6.638794 -6.6387787l-13.277588 0m13.277588 -13.277557c-7.333008 0 -13.277588 5.944565 -13.277588 13.277557l0 13.277557" fill-rule="nonzero"></path><path stroke="#666666" stroke-width="2.0" stroke-linejoin="round" stroke-linecap="butt" d="m600.68634 176.20866l0 172.60826l0 0c0 7.333008 -5.94458 13.277557 -13.277527 13.277557l-191.86618 0c-7.3329773 0 -13.277557 -5.9445496 -13.277557 -13.277557c0 -7.3329773 5.94458 -13.277557 13.277557 -13.277557l13.277557 0l0 -172.60826c0 -7.3329926 5.94458 -13.277557 13.277557 -13.277557l191.86618 0c7.332947 0 13.277527 5.944565 13.277527 13.277557c0 7.3329926 -5.94458 13.277557 -13.277527 13.277557zm-13.277527 185.88582l0 0c-7.333008 0 -13.277588 -5.9445496 -13.277588 -13.277557c0 -7.3329773 5.94458 -13.277557 13.277588 -13.277557c3.666504 0 6.638733 2.97229 6.638733 6.638794c0 3.6664734 -2.972229 6.6387634 -6.638733 6.6387634l-13.277588 0m-165.31104 -13.277557l178.58862 0m26.555115 -159.3307l0 0c-3.666504 0 -6.638794 -2.9722748 -6.638794 -6.6387787c0 -3.666504 2.97229 -6.6387787 6.638794 -6.6387787l-13.277588 0m13.277588 -13.277557c-7.333008 0 -13.277588 5.944565 -13.277588 13.277557l0 13.277557" fill-rule="nonzero"></path><path fill="#000000" fill-opacity="0.0" d="m422.72733 96.76488l210.17325 0l0 39.527557l-210.17325 0z" fill-rule="nonzero"></path><path fill="#000000" d="m449.19724 110.091125l8.828125 0l0 1.59375l-7.03125 0l0 4.203125l3.25 0q1.796875 0 2.859375 0.34375q1.0625 0.34375 1.703125 1.296875q0.640625 0.9375 0.640625 2.203125q0 1.03125 -0.46875 1.9375q-0.453125 0.890625 -1.359375 1.453125q-0.90625 0.5625 -3.09375 0.5625l-5.328125 0l0 -13.59375zm1.796875 12.0625l3.609375 0q1.453125 0 2.171875 -0.59375q0.734375 -0.59375 0.734375 -1.78125q0 -0.84375 -0.421875 -1.40625q-0.40625 -0.5625 -1.15625 -0.75q-0.734375 -0.1875 -2.53125 -0.1875l-2.40625 0l0 4.71875zm10.961914 -8.328125l7.765625 0l0 9.859375l-1.65625 0l0 -8.46875l-4.4375 0l0 4.90625q0 1.71875 -0.109375 2.265625q-0.109375 0.546875 -0.609375 0.953125q-0.5 0.40625 -1.453125 0.40625q-0.578125 0 -1.34375 -0.078125l0 -1.390625l0.734375 0q0.515625 0 0.734375 -0.09375q0.234375 -0.109375 0.296875 -0.34375q0.078125 -0.234375 0.078125 -1.515625l0 -6.5zm9.448334 4.9375q0 -2.734375 1.53125 -4.0625q1.265625 -1.09375 3.09375 -1.09375q2.03125 0 3.3125 1.34375q1.296875 1.328125 1.296875 3.671875q0 1.90625 -0.578125 3.0q-0.5625 1.078125 -1.65625 1.6875q-1.078125 0.59375 -2.375 0.59375q-2.0625 0 -3.34375 -1.328125q-1.28125 -1.328125 -1.28125 -3.8125zm1.71875 0q0 1.890625 0.828125 2.828125q0.828125 0.9375 2.078125 0.9375q1.25 0 2.0625 -0.9375q0.828125 -0.953125 0.828125 -2.890625q0 -1.828125 -0.828125 -2.765625q-0.828125 -0.9375 -2.0625 -0.9375q-1.25 0 -2.078125 0.9375q-0.828125 0.9375 -0.828125 2.828125zm9.297607 -4.9375l5.671875 0l0 1.390625l-4.0 0l0 8.46875l-1.671875 0l0 -9.859375zm12.113098 9.859375l0 -13.59375l5.109375 0q1.546875 0 2.484375 0.40625q0.953125 0.40625 1.484375 1.265625q0.53125 0.859375 0.53125 1.796875q0 0.875 -0.46875 1.65625q-0.46875 0.765625 -1.4375 1.234375q1.234375 0.359375 1.890625 1.234375q0.671875 0.875 0.671875 2.0625q0 0.953125 -0.40625 1.78125q-0.390625 0.8125 -0.984375 1.265625q-0.59375 0.4375 -1.5 0.671875q-0.890625 0.21875 -2.1875 0.21875l-5.1875 0zm1.796875 -7.890625l2.9375 0q1.203125 0 1.71875 -0.15625q0.6875 -0.203125 1.03125 -0.671875q0.359375 -0.46875 0.359375 -1.1875q0 -0.671875 -0.328125 -1.1875q-0.328125 -0.515625 -0.9375 -0.703125q-0.59375 -0.203125 -2.0625 -0.203125l-2.71875 0l0 4.109375zm0 6.28125l3.390625 0q0.875 0 1.21875 -0.0625q0.625 -0.109375 1.046875 -0.359375q0.421875 -0.265625 0.6875 -0.765625q0.265625 -0.5 0.265625 -1.140625q0 -0.765625 -0.390625 -1.328125q-0.390625 -0.5625 -1.078125 -0.78125q-0.6875 -0.234375 -1.984375 -0.234375l-3.15625 0l0 4.671875zm10.974823 1.609375l0 -1.90625l1.90625 0l0 1.90625l-1.90625 0zm4.980194 0l0 -13.59375l1.8125 0l0 5.578125l7.0625 0l0 -5.578125l1.796875 0l0 13.59375l-1.796875 0l0 -6.40625l-7.0625 0l0 6.40625l-1.8125 0zm13.676025 0l0 -1.90625l1.90625 0l0 1.90625l-1.90625 0zm10.132263 -13.59375l10.703125 0l0 13.59375l-1.8125 0l0 -12.0l-7.09375 0l0 12.0l-1.796875 0l0 -13.59375zm19.924805 10.421875l1.71875 0.21875q-0.40625 1.5 -1.515625 2.34375q-1.09375 0.828125 -2.8125 0.828125q-2.15625 0 -3.421875 -1.328125q-1.265625 -1.328125 -1.265625 -3.734375q0 -2.484375 1.265625 -3.859375q1.28125 -1.375 3.328125 -1.375q1.984375 0 3.234375 1.34375q1.25 1.34375 1.25 3.796875q0 0.140625 -0.015625 0.4375l-7.34375 0q0.09375 1.625 0.921875 2.484375q0.828125 0.859375 2.0625 0.859375q0.90625 0 1.546875 -0.46875q0.65625 -0.484375 1.046875 -1.546875zm-5.484375 -2.703125l5.5 0q-0.109375 -1.234375 -0.625 -1.859375q-0.796875 -0.96875 -2.078125 -0.96875q-1.140625 0 -1.9375 0.78125q-0.78125 0.765625 -0.859375 2.046875zm8.219482 -3.984375l8.0 0l0 1.390625l-3.171875 0l0 8.46875l-1.65625 0l0 -8.46875l-3.171875 0l0 -1.390625zm9.435303 13.640625l0 -13.640625l1.53125 0l0 1.28125q0.53125 -0.75 1.203125 -1.125q0.6875 -0.375 1.640625 -0.375q1.265625 0 2.234375 0.65625q0.96875 0.640625 1.453125 1.828125q0.5 1.1875 0.5 2.59375q0 1.515625 -0.546875 2.734375q-0.546875 1.203125 -1.578125 1.84375q-1.03125 0.640625 -2.171875 0.640625q-0.84375 0 -1.515625 -0.34375q-0.65625 -0.359375 -1.078125 -0.890625l0 4.796875l-1.671875 0zm1.515625 -8.65625q0 1.90625 0.765625 2.8125q0.78125 0.90625 1.875 0.90625q1.109375 0 1.890625 -0.9375q0.796875 -0.9375 0.796875 -2.921875q0 -1.875 -0.78125 -2.8125q-0.765625 -0.9375 -1.84375 -0.9375q-1.0625 0 -1.890625 1.0q-0.8125 1.0 -0.8125 2.890625zm8.235107 -0.046875q0 -2.734375 1.53125 -4.0625q1.265625 -1.09375 3.09375 -1.09375q2.03125 0 3.3125 1.34375q1.296875 1.328125 1.296875 3.671875q0 1.90625 -0.578125 3.0q-0.5625 1.078125 -1.65625 1.6875q-1.078125 0.59375 -2.375 0.59375q-2.0625 0 -3.34375 -1.328125q-1.28125 -1.328125 -1.28125 -3.8125zm1.71875 0q0 1.890625 0.828125 2.828125q0.828125 0.9375 2.078125 0.9375q1.25 0 2.0625 -0.9375q0.828125 -0.953125 0.828125 -2.890625q0 -1.828125 -0.828125 -2.765625q-0.828125 -0.9375 -2.0625 -0.9375q-1.25 0 -2.078125 0.9375q-0.828125 0.9375 -0.828125 2.828125zm9.297607 -4.9375l3.84375 0q1.421875 0 2.109375 0.25q0.6875 0.234375 1.1875 0.859375q0.5 0.625 0.5 1.515625q0 0.703125 -0.296875 1.234375q-0.28125 0.515625 -0.875 0.875q0.703125 0.21875 1.15625 0.859375q0.46875 0.640625 0.46875 1.515625q-0.09375 1.390625 -1.015625 2.078125q-0.90625 0.671875 -2.640625 0.671875l-4.4375 0l0 -9.859375zm1.671875 4.15625l1.78125 0q1.0625 0 1.453125 -0.109375q0.40625 -0.109375 0.71875 -0.453125q0.3125 -0.34375 0.3125 -0.8125q0 -0.78125 -0.546875 -1.078125q-0.546875 -0.3125 -1.890625 -0.3125l-1.828125 0l0 2.765625zm0 4.328125l2.1875 0q1.421875 0 1.953125 -0.328125q0.53125 -0.328125 0.5625 -1.140625q0 -0.46875 -0.3125 -0.875q-0.3125 -0.40625 -0.796875 -0.5q-0.484375 -0.109375 -1.578125 -0.109375l-2.015625 0l0 2.953125zm14.661133 0.15625q-0.9375 0.796875 -1.796875 1.125q-0.859375 0.3125 -1.84375 0.3125q-1.609375 0 -2.484375 -0.78125q-0.875 -0.796875 -0.875 -2.03125q0 -0.734375 0.328125 -1.328125q0.328125 -0.59375 0.859375 -0.953125q0.53125 -0.359375 1.203125 -0.546875q0.5 -0.140625 1.484375 -0.25q2.03125 -0.25 2.984375 -0.578125q0 -0.34375 0 -0.4375q0 -1.015625 -0.46875 -1.4375q-0.640625 -0.5625 -1.90625 -0.5625q-1.171875 0 -1.734375 0.40625q-0.5625 0.40625 -0.828125 1.46875l-1.640625 -0.234375q0.234375 -1.046875 0.734375 -1.6875q0.515625 -0.640625 1.46875 -0.984375q0.96875 -0.359375 2.25 -0.359375q1.265625 0 2.046875 0.296875q0.78125 0.296875 1.15625 0.75q0.375 0.453125 0.515625 1.140625q0.09375 0.421875 0.09375 1.53125l0 2.234375q0 2.328125 0.09375 2.953125q0.109375 0.609375 0.4375 1.171875l-1.75 0q-0.265625 -0.515625 -0.328125 -1.21875zm-0.140625 -3.71875q-0.90625 0.359375 -2.734375 0.625q-1.03125 0.140625 -1.453125 0.328125q-0.421875 0.1875 -0.65625 0.546875q-0.234375 0.359375 -0.234375 0.796875q0 0.671875 0.5 1.125q0.515625 0.4375 1.484375 0.4375q0.96875 0 1.71875 -0.421875q0.75 -0.4375 1.109375 -1.15625q0.265625 -0.578125 0.265625 -1.671875l0 -0.609375z" fill-rule="nonzero"></path><path fill="#cccccc" d="m53.711285 411.69815l0 0c0 -8.61911 6.987179 -15.606293 15.606304 -15.606293c8.619118 0 15.606293 6.9871826 15.606293 15.606293c0 8.619141 -6.987175 15.606323 -15.606293 15.606323c-8.619125 0 -15.606304 -6.9871826 -15.606304 -15.606323z" fill-rule="nonzero"></path><path fill="#a3a3a3" d="m62.692135 407.03073c0 -0.89782715 0.727829 -1.6256714 1.6256523 -1.6256714c0.89782715 0 1.6256561 0.72784424 1.6256561 1.6256714c0 0.89782715 -0.727829 1.6256409 -1.6256561 1.6256409c-0.89782333 0 -1.6256523 -0.7278137 -1.6256523 -1.6256409m9.999592 0c0 -0.89782715 0.727829 -1.6256714 1.6256561 -1.6256714c0.89782715 0 1.6256561 0.72784424 1.6256561 1.6256714c0 0.89782715 -0.727829 1.6256409 -1.6256561 1.6256409c-0.89782715 0 -1.6256561 -0.7278137 -1.6256561 -1.6256409" fill-rule="nonzero"></path><path fill="#000000" fill-opacity="0.0" d="m60.858868 418.50418q8.458721 5.8092957 16.897678 0" fill-rule="nonzero"></path><path fill="#000000" fill-opacity="0.0" d="m53.711285 411.69815l0 0c0 -8.61911 6.987179 -15.606293 15.606304 -15.606293c8.619118 0 15.606293 6.9871826 15.606293 15.606293c0 8.619141 -6.987175 15.606323 -15.606293 15.606323c-8.619125 0 -15.606304 -6.9871826 -15.606304 -15.606323z" fill-rule="nonzero"></path><path stroke="#666666" stroke-width="2.0" stroke-linejoin="round" stroke-linecap="butt" d="m62.692135 407.03073c0 -0.89782715 0.727829 -1.6256714 1.6256523 -1.6256714c0.89782715 0 1.6256561 0.72784424 1.6256561 1.6256714c0 0.89782715 -0.727829 1.6256409 -1.6256561 1.6256409c-0.89782333 0 -1.6256523 -0.7278137 -1.6256523 -1.6256409m9.999592 0c0 -0.89782715 0.727829 -1.6256714 1.6256561 -1.6256714c0.89782715 0 1.6256561 0.72784424 1.6256561 1.6256714c0 0.89782715 -0.727829 1.6256409 -1.6256561 1.6256409c-0.89782715 0 -1.6256561 -0.7278137 -1.6256561 -1.6256409" fill-rule="nonzero"></path><path stroke="#666666" stroke-width="2.0" stroke-linejoin="round" stroke-linecap="butt" d="m60.858868 418.50418q8.458721 5.8092957 16.897678 0" fill-rule="nonzero"></path><path stroke="#666666" stroke-width="2.0" stroke-linejoin="round" stroke-linecap="butt" d="m53.711285 411.69815l0 0c0 -8.61911 6.987179 -15.606293 15.606304 -15.606293c8.619118 0 15.606293 6.9871826 15.606293 15.606293c0 8.619141 -6.987175 15.606323 -15.606293 15.606323c-8.619125 0 -15.606304 -6.9871826 -15.606304 -15.606323z" fill-rule="nonzero"></path><path fill="#cccccc" d="m78.03498 454.0326l0 0c0 -8.61911 6.9871826 -15.606293 15.6063 -15.606293c8.619118 0 15.6063 6.9871826 15.6063 15.606293c0 8.619141 -6.9871826 15.606323 -15.6063 15.606323c-8.619118 0 -15.6063 -6.9871826 -15.6063 -15.606323z" fill-rule="nonzero"></path><path fill="#a3a3a3" d="m87.01583 449.36517c0 -0.89782715 0.727829 -1.6256714 1.6256561 -1.6256714c0.89782715 0 1.6256561 0.72784424 1.6256561 1.6256714c0 0.89782715 -0.727829 1.6256409 -1.6256561 1.6256409c-0.89782715 0 -1.6256561 -0.7278137 -1.6256561 -1.6256409m9.999588 0c0 -0.89782715 0.7278366 -1.6256714 1.6256561 -1.6256714c0.89782715 0 1.6256561 0.72784424 1.6256561 1.6256714c0 0.89782715 -0.727829 1.6256409 -1.6256561 1.6256409c-0.8978195 0 -1.6256561 -0.7278137 -1.6256561 -1.6256409" fill-rule="nonzero"></path><path fill="#000000" fill-opacity="0.0" d="m85.18256 460.83862q8.458717 5.8092957 16.897682 0" fill-rule="nonzero"></path><path fill="#000000" fill-opacity="0.0" d="m78.03498 454.0326l0 0c0 -8.61911 6.9871826 -15.606293 15.6063 -15.606293c8.619118 0 15.6063 6.9871826 15.6063 15.606293c0 8.619141 -6.9871826 15.606323 -15.6063 15.606323c-8.619118 0 -15.6063 -6.9871826 -15.6063 -15.606323z" fill-rule="nonzero"></path><path stroke="#666666" stroke-width="2.0" stroke-linejoin="round" stroke-linecap="butt" d="m87.01583 449.36517c0 -0.89782715 0.727829 -1.6256714 1.6256561 -1.6256714c0.89782715 0 1.6256561 0.72784424 1.6256561 1.6256714c0 0.89782715 -0.727829 1.6256409 -1.6256561 1.6256409c-0.89782715 0 -1.6256561 -0.7278137 -1.6256561 -1.6256409m9.999588 0c0 -0.89782715 0.7278366 -1.6256714 1.6256561 -1.6256714c0.89782715 0 1.6256561 0.72784424 1.6256561 1.6256714c0 0.89782715 -0.727829 1.6256409 -1.6256561 1.6256409c-0.8978195 0 -1.6256561 -0.7278137 -1.6256561 -1.6256409" fill-rule="nonzero"></path><path stroke="#666666" stroke-width="2.0" stroke-linejoin="round" stroke-linecap="butt" d="m85.18256 460.83862q8.458717 5.8092957 16.897682 0" fill-rule="nonzero"></path><path stroke="#666666" stroke-width="2.0" stroke-linejoin="round" stroke-linecap="butt" d="m78.03498 454.0326l0 0c0 -8.61911 6.9871826 -15.606293 15.6063 -15.606293c8.619118 0 15.6063 6.9871826 15.6063 15.606293c0 8.619141 -6.9871826 15.606323 -15.6063 15.606323c-8.619118 0 -15.6063 -6.9871826 -15.6063 -15.606323z" fill-rule="nonzero"></path><path fill="#cccccc" d="m109.64042 411.69815l0 0c0 -8.61911 6.9871826 -15.606293 15.6063 -15.606293c8.619125 0 15.606293 6.9871826 15.606293 15.606293c0 8.619141 -6.9871674 15.606323 -15.606293 15.606323c-8.619118 0 -15.6063 -6.9871826 -15.6063 -15.606323z" fill-rule="nonzero"></path><path fill="#a3a3a3" d="m118.62127 407.03073c0 -0.89782715 0.727829 -1.6256714 1.6256561 -1.6256714c0.8978195 0 1.6256561 0.72784424 1.6256561 1.6256714c0 0.89782715 -0.7278366 1.6256409 -1.6256561 1.6256409c-0.89782715 0 -1.6256561 -0.7278137 -1.6256561 -1.6256409m9.999596 0c0 -0.89782715 0.727829 -1.6256714 1.6256561 -1.6256714c0.8978119 0 1.6256561 0.72784424 1.6256561 1.6256714c0 0.89782715 -0.72784424 1.6256409 -1.6256561 1.6256409c-0.89782715 0 -1.6256561 -0.7278137 -1.6256561 -1.6256409" fill-rule="nonzero"></path><path fill="#000000" fill-opacity="0.0" d="m116.788 418.50418q8.458717 5.8092957 16.897682 0" fill-rule="nonzero"></path><path fill="#000000" fill-opacity="0.0" d="m109.64042 411.69815l0 0c0 -8.61911 6.9871826 -15.606293 15.6063 -15.606293c8.619125 0 15.606293 6.9871826 15.606293 15.606293c0 8.619141 -6.9871674 15.606323 -15.606293 15.606323c-8.619118 0 -15.6063 -6.9871826 -15.6063 -15.606323z" fill-rule="nonzero"></path><path stroke="#666666" stroke-width="2.0" stroke-linejoin="round" stroke-linecap="butt" d="m118.62127 407.03073c0 -0.89782715 0.727829 -1.6256714 1.6256561 -1.6256714c0.8978195 0 1.6256561 0.72784424 1.6256561 1.6256714c0 0.89782715 -0.7278366 1.6256409 -1.6256561 1.6256409c-0.89782715 0 -1.6256561 -0.7278137 -1.6256561 -1.6256409m9.999596 0c0 -0.89782715 0.727829 -1.6256714 1.6256561 -1.6256714c0.8978119 0 1.6256561 0.72784424 1.6256561 1.6256714c0 0.89782715 -0.72784424 1.6256409 -1.6256561 1.6256409c-0.89782715 0 -1.6256561 -0.7278137 -1.6256561 -1.6256409" fill-rule="nonzero"></path><path stroke="#666666" stroke-width="2.0" stroke-linejoin="round" stroke-linecap="butt" d="m116.788 418.50418q8.458717 5.8092957 16.897682 0" fill-rule="nonzero"></path><path stroke="#666666" stroke-width="2.0" stroke-linejoin="round" stroke-linecap="butt" d="m109.64042 411.69815l0 0c0 -8.61911 6.9871826 -15.606293 15.6063 -15.606293c8.619125 0 15.606293 6.9871826 15.606293 15.606293c0 8.619141 -6.9871674 15.606323 -15.606293 15.606323c-8.619118 0 -15.6063 -6.9871826 -15.6063 -15.606323z" fill-rule="nonzero"></path><path fill="#000000" fill-opacity="0.0" d="m15.538057 488.69553l164.40945 0l0 39.527557l-164.40945 0z" fill-rule="nonzero"></path><path fill="#000000" d="m54.123775 508.99054q0 -3.390625 1.8125 -5.296875q1.828125 -1.921875 4.703125 -1.921875q1.875 0 3.3906212 0.90625q1.515625 0.890625 2.296875 2.5q0.796875 1.609375 0.796875 3.65625q0 2.0625 -0.84375 3.703125q-0.828125 1.625 -2.3593712 2.46875q-1.53125 0.84375 -3.296875 0.84375q-1.921875 0 -3.4375 -0.921875q-1.5 -0.9375 -2.28125 -2.53125q-0.78125 -1.609375 -0.78125 -3.40625zm1.859375 0.03125q0 2.453125 1.3125 3.875q1.328125 1.40625 3.3125 1.40625q2.03125 0 3.34375 -1.421875q1.3124962 -1.4375 1.3124962 -4.0625q0 -1.65625 -0.5625 -2.890625q-0.546875 -1.234375 -1.6406212 -1.921875q-1.078125 -0.6875 -2.421875 -0.6875q-1.90625 0 -3.28125 1.3125q-1.375 1.3125 -1.375 4.390625zm20.198925 -7.328125l1.484375 0.015625q-0.109375 0.984375 -0.453125 1.375q-0.328125 0.390625 -0.875 0.515625q-0.53125 0.109375 -2.078125 0.109375q-2.078125 0 -2.828125 0.40625q-0.75 0.390625 -1.078125 1.265625q-0.328125 0.875 -0.375 2.25q0.640625 -0.9375 1.484375 -1.40625q0.84375 -0.46875 1.90625 -0.46875q1.9375 0 3.203125 1.34375q1.265625 1.328125 1.265625 3.59375q0 1.734375 -0.640625 2.84375q-0.640625 1.09375 -1.515625 1.703125q-0.875 0.59375 -2.390625 0.59375q-1.75 0 -2.71875 -0.796875q-0.96875 -0.796875 -1.5 -2.046875q-0.515625 -1.265625 -0.515625 -4.375q0 -3.90625 1.3125 -5.25q1.328125 -1.359375 4.078125 -1.359375q1.703125 0 1.9375 -0.046875q0.234375 -0.0625 0.296875 -0.265625zm-0.078125 8.953125q0 -1.53125 -0.734375 -2.515625q-0.71875 -0.984375 -2.046875 -0.984375q-1.390625 0 -2.140625 1.046875q-0.75 1.03125 -0.75 2.765625q0 1.71875 0.828125 2.625q0.828125 0.90625 2.046875 0.90625q1.25 0 2.015625 -1.046875q0.78125 -1.0625 0.78125 -2.796875zm3.607315 -4.890625l1.671875 0l0 8.484375l3.796875 0l0 -8.484375l1.671875 0l0 8.484375l3.8125 0l0 -8.484375l1.65625 0l0 8.484375l1.109375 0l0 4.171875l-1.390625 0l0 -2.796875l-12.328125 0l0 -9.859375zm22.037003 6.6875l1.71875 0.21875q-0.40625 1.5 -1.515625 2.34375q-1.09375 0.828125 -2.8125 0.828125q-2.15625 0 -3.421875 -1.328125q-1.265625 -1.328125 -1.265625 -3.734375q0 -2.484375 1.265625 -3.859375q1.28125 -1.375 3.328125 -1.375q1.984375 0 3.234375 1.34375q1.25 1.34375 1.25 3.796875q0 0.140625 -0.015625 0.4375l-7.34375 0q0.09375 1.625 0.921875 2.484375q0.828125 0.859375 2.0625 0.859375q0.90625 0 1.546875 -0.46875q0.65625 -0.484375 1.046875 -1.546875zm-5.484375 -2.703125l5.5 0q-0.109375 -1.234375 -0.625 -1.859375q-0.796875 -0.96875 -2.078125 -0.96875q-1.140625 0 -1.9375 0.78125q-0.78125 0.765625 -0.859375 2.046875zm15.547592 2.265625l1.640625 0.21875q-0.265625 1.6875 -1.375 2.65625q-1.109375 0.953125 -2.734375 0.953125q-2.015625 0 -3.25 -1.3125q-1.21875 -1.328125 -1.21875 -3.796875q0 -1.59375 0.515625 -2.78125q0.53125 -1.203125 1.609375 -1.796875q1.09375 -0.609375 2.359375 -0.609375q1.609375 0 2.625 0.8125q1.015625 0.8125 1.3125 2.3125l-1.625 0.25q-0.234375 -1.0 -0.828125 -1.5q-0.59375 -0.5 -1.421875 -0.5q-1.265625 0 -2.0625 0.90625q-0.78125 0.90625 -0.78125 2.859375q0 1.984375 0.765625 2.890625q0.765625 0.890625 1.984375 0.890625q0.984375 0 1.640625 -0.59375q0.65625 -0.609375 0.84375 -1.859375zm2.0 -6.25l8.0 0l0 1.390625l-3.171875 0l0 8.46875l-1.65625 0l0 -8.46875l-3.171875 0l0 -1.390625zm9.450958 0l3.84375 0q1.4218826 0 2.1093826 0.25q0.6875 0.234375 1.1875 0.859375q0.5 0.625 0.5 1.515625q0 0.703125 -0.296875 1.234375q-0.28125 0.515625 -0.875 0.875q0.703125 0.21875 1.15625 0.859375q0.46875 0.640625 0.46875 1.515625q-0.09375 1.390625 -1.015625 2.078125q-0.90625 0.671875 -2.6406326 0.671875l-4.4375 0l0 -9.859375zm1.671875 4.15625l1.78125 0q1.0625 0 1.4531326 -0.109375q0.40625 -0.109375 0.71875 -0.453125q0.3125 -0.34375 0.3125 -0.8125q0 -0.78125 -0.546875 -1.078125q-0.546875 -0.3125 -1.8906326 -0.3125l-1.828125 0l0 2.765625zm0 4.328125l2.1875 0q1.4218826 0 1.9531326 -0.328125q0.53125 -0.328125 0.5625 -1.140625q0 -0.46875 -0.3125 -0.875q-0.3125 -0.40625 -0.796875 -0.5q-0.484375 -0.109375 -1.5781326 -0.109375l-2.015625 0l0 2.953125zm7.5986404 -3.546875q0 -2.734375 1.53125 -4.0625q1.265625 -1.09375 3.09375 -1.09375q2.03125 0 3.3125 1.34375q1.296875 1.328125 1.296875 3.671875q0 1.90625 -0.578125 3.0q-0.5625 1.078125 -1.65625 1.6875q-1.078125 0.59375 -2.375 0.59375q-2.0625 0 -3.34375 -1.328125q-1.28125 -1.328125 -1.28125 -3.8125zm1.71875 0q0 1.890625 0.828125 2.828125q0.828125 0.9375 2.078125 0.9375q1.25 0 2.0625 -0.9375q0.828125 -0.953125 0.828125 -2.890625q0 -1.828125 -0.828125 -2.765625q-0.828125 -0.9375 -2.0625 -0.9375q-1.25 0 -2.078125 0.9375q-0.828125 0.9375 -0.828125 2.828125z" fill-rule="nonzero"></path><path fill="#000000" fill-opacity="0.0" d="m6.889764 429.90814l0 0c0 -32.467377 38.743233 -58.787415 86.53543 -58.787415l0 0c47.7922 0 86.53544 26.320038 86.53544 58.787415l0 0c0 32.467377 -38.74324 58.787384 -86.53544 58.787384l0 0c-47.7922 0 -86.53543 -26.320007 -86.53543 -58.787384z" fill-rule="nonzero"></path><path stroke="#666666" stroke-width="2.0" stroke-linejoin="round" stroke-linecap="butt" d="m6.889764 429.90814l0 0c0 -32.467377 38.743233 -58.787415 86.53543 -58.787415l0 0c47.7922 0 86.53544 26.320038 86.53544 58.787415l0 0c0 32.467377 -38.74324 58.787384 -86.53544 58.787384l0 0c-47.7922 0 -86.53543 -26.320007 -86.53543 -58.787384z" fill-rule="nonzero"></path><path fill="#f4cccc" d="m359.56497 149.65092c-7.333008 0 -13.277557 5.944565 -13.277557 13.277557l13.277557 0c-3.666504 0 -6.638794 2.9722748 -6.638794 6.6387787c0 3.666504 2.97229 6.6387787 6.638794 6.6387787l-13.277557 0l0 172.60826l0 0c0 7.333008 -5.94458 13.277557 -13.277557 13.277557l-191.86617 0c-7.3329926 0 -13.277557 -5.9445496 -13.277557 -13.277557c0 -7.3329773 5.944565 -13.277557 13.277557 -13.277557l13.277557 0l0 -172.60826c0 -7.3329926 5.944565 -13.277557 13.277557 -13.277557zm-39.832703 199.16338l0 0c0 -7.3329773 5.94458 -13.277557 13.277588 -13.277557c3.6664734 0 6.6387634 2.97229 6.6387634 6.638794c0 3.6664734 -2.97229 6.6387634 -6.6387634 6.6387634z" fill-rule="nonzero"></path><path fill="#c3a3a3" d="m319.73227 348.8143l0 0c0 -7.3329773 5.94458 -13.277557 13.277588 -13.277557c3.6664734 0 6.6387634 2.97229 6.6387634 6.638794c0 3.6664734 -2.97229 6.6387634 -6.6387634 6.6387634zm26.555145 -185.88582c0 -7.3329926 5.9445496 -13.277557 13.277557 -13.277557c7.3329773 0 13.277557 5.944565 13.277557 13.277557c0 7.3329926 -5.94458 13.277557 -13.277557 13.277557l0 0c-3.666504 0 -6.638794 -2.9722748 -6.638794 -6.6387787c0 -3.666504 2.97229 -6.6387787 6.638794 -6.6387787z" fill-rule="nonzero"></path><path fill="#000000" fill-opacity="0.0" d="m346.2874 176.20604l0 172.60826l0 0c0 7.333008 -5.94458 13.277557 -13.277557 13.277557l-191.86617 0c-7.3329926 0 -13.277557 -5.9445496 -13.277557 -13.277557c0 -7.3329773 5.944565 -13.277557 13.277557 -13.277557l13.277557 0l0 -172.60826c0 -7.3329926 5.944565 -13.277557 13.277557 -13.277557l191.86617 0c7.3329773 0 13.277557 5.944565 13.277557 13.277557c0 7.3329926 -5.94458 13.277557 -13.277557 13.277557zm-13.277557 185.88582l0 0c-7.333008 0 -13.277588 -5.9445496 -13.277588 -13.277557c0 -7.3329773 5.94458 -13.277557 13.277588 -13.277557c3.6664734 0 6.6387634 2.97229 6.6387634 6.638794c0 3.6664734 -2.97229 6.6387634 -6.6387634 6.6387634l-13.277588 0m-165.31102 -13.277557l178.58861 0m26.555115 -159.3307l0 0c-3.666504 0 -6.638794 -2.9722748 -6.638794 -6.6387787c0 -3.666504 2.97229 -6.6387787 6.638794 -6.6387787l-13.277557 0m13.277557 -13.277557c-7.333008 0 -13.277557 5.944565 -13.277557 13.277557l0 13.277557" fill-rule="nonzero"></path><path stroke="#666666" stroke-width="2.0" stroke-linejoin="round" stroke-linecap="butt" d="m346.2874 176.20604l0 172.60826l0 0c0 7.333008 -5.94458 13.277557 -13.277557 13.277557l-191.86617 0c-7.3329926 0 -13.277557 -5.9445496 -13.277557 -13.277557c0 -7.3329773 5.944565 -13.277557 13.277557 -13.277557l13.277557 0l0 -172.60826c0 -7.3329926 5.944565 -13.277557 13.277557 -13.277557l191.86617 0c7.3329773 0 13.277557 5.944565 13.277557 13.277557c0 7.3329926 -5.94458 13.277557 -13.277557 13.277557zm-13.277557 185.88582l0 0c-7.333008 0 -13.277588 -5.9445496 -13.277588 -13.277557c0 -7.3329773 5.94458 -13.277557 13.277588 -13.277557c3.6664734 0 6.6387634 2.97229 6.6387634 6.638794c0 3.6664734 -2.97229 6.6387634 -6.6387634 6.6387634l-13.277588 0m-165.31102 -13.277557l178.58861 0m26.555115 -159.3307l0 0c-3.666504 0 -6.638794 -2.9722748 -6.638794 -6.6387787c0 -3.666504 2.97229 -6.6387787 6.638794 -6.6387787l-13.277557 0m13.277557 -13.277557c-7.333008 0 -13.277557 5.944565 -13.277557 13.277557l0 13.277557" fill-rule="nonzero"></path><path fill="#b6d7a8" d="m416.80054 168.28609l70.74014 0l0 65.6378l-70.74014 0z" fill-rule="nonzero"></path><path stroke="#666666" stroke-width="2.0" stroke-linejoin="round" stroke-linecap="butt" d="m416.80054 168.28609l70.74014 0l0 65.6378l-70.74014 0z" fill-rule="nonzero"></path><path fill="#b6d7a8" d="m416.80054 260.48495l70.74014 0l0 65.63779l-70.74014 0z" fill-rule="nonzero"></path><path stroke="#666666" stroke-width="2.0" stroke-linejoin="round" stroke-linecap="butt" d="m416.80054 260.48495l70.74014 0l0 65.63779l-70.74014 0z" fill-rule="nonzero"></path><path fill="#fff2cc" d="m938.3353 106.72703l0 0c-6.835083 0 -12.376038 5.5409164 -12.376038 12.375984l12.376038 0c-3.4175415 0 -6.1879883 2.7704544 -6.1879883 6.1879883c0 3.4175415 2.7704468 6.1879883 6.1879883 6.1879883l-12.376038 0l0 283.313l0 0c0 6.835083 -5.5408936 12.375977 -12.375977 12.375977l-148.51178 0c-6.835083 0 -12.375977 -5.5408936 -12.375977 -12.375977c0 -6.8350525 5.5408936 -12.375977 12.375977 -12.375977l12.375977 0l0 -283.313c0 -6.8350677 5.5408936 -12.375984 12.375977 -12.375984zm-37.12799 308.06497l0 0c0 -6.8350525 5.5409546 -12.375977 12.375977 -12.375977c3.4175415 0 6.1879883 2.7704468 6.1879883 6.1879883c0 3.4175415 -2.7704468 6.1879883 -6.1879883 6.1879883z" fill-rule="nonzero"></path><path fill="#cbc1a3" d="m901.20734 414.792l0 0c0 -6.8350525 5.5409546 -12.375977 12.375977 -12.375977c3.4175415 0 6.1879883 2.7704468 6.1879883 6.1879883c0 3.4175415 -2.7704468 6.1879883 -6.1879883 6.1879883zm24.751953 -295.68896c0 -6.8350677 5.5409546 -12.375984 12.376038 -12.375984c6.835022 0 12.375977 5.5409164 12.375977 12.375984c0 6.8350677 -5.5409546 12.375977 -12.375977 12.375977l0 0c-3.4175415 0 -6.1879883 -2.7704468 -6.1879883 -6.1879883c0 -3.4175339 2.7704468 -6.1879883 6.1879883 -6.1879883z" fill-rule="nonzero"></path><path fill="#000000" fill-opacity="0.0" d="m925.9593 131.47899l0 283.313l0 0c0 6.835083 -5.5408936 12.375977 -12.375977 12.375977l-148.51178 0c-6.835083 0 -12.375977 -5.5408936 -12.375977 -12.375977c0 -6.8350525 5.5408936 -12.375977 12.375977 -12.375977l12.375977 0l0 -283.313c0 -6.8350677 5.5408936 -12.375984 12.375977 -12.375984l148.51184 0l0 0c6.835022 0 12.375977 5.5409164 12.375977 12.375984c0 6.8350677 -5.5409546 12.375977 -12.375977 12.375977zm-12.375977 295.68896l0 0c-6.835022 0 -12.375977 -5.5408936 -12.375977 -12.375977c0 -6.8350525 5.5409546 -12.375977 12.375977 -12.375977c3.4175415 0 6.1879883 2.7704468 6.1879883 6.1879883c0 3.4175415 -2.7704468 6.1879883 -6.1879883 6.1879883l-12.375977 0m-123.75983 -12.375977l136.1358 0m24.752014 -270.937l0 0c-3.4175415 0 -6.1879883 -2.7704468 -6.1879883 -6.1879883c0 -3.4175339 2.7704468 -6.1879883 6.1879883 -6.1879883l-12.376038 0m12.376038 -12.375984l0 0c-6.835083 0 -12.376038 5.5409164 -12.376038 12.375984l0 12.375977" fill-rule="nonzero"></path><path stroke="#666666" stroke-width="2.0" stroke-linejoin="round" stroke-linecap="butt" d="m925.9593 131.47899l0 283.313l0 0c0 6.835083 -5.5408936 12.375977 -12.375977 12.375977l-148.51178 0c-6.835083 0 -12.375977 -5.5408936 -12.375977 -12.375977c0 -6.8350525 5.5408936 -12.375977 12.375977 -12.375977l12.375977 0l0 -283.313c0 -6.8350677 5.5408936 -12.375984 12.375977 -12.375984l148.51184 0l0 0c6.835022 0 12.375977 5.5409164 12.375977 12.375984c0 6.8350677 -5.5409546 12.375977 -12.375977 12.375977zm-12.375977 295.68896l0 0c-6.835022 0 -12.375977 -5.5408936 -12.375977 -12.375977c0 -6.8350525 5.5409546 -12.375977 12.375977 -12.375977c3.4175415 0 6.1879883 2.7704468 6.1879883 6.1879883c0 3.4175415 -2.7704468 6.1879883 -6.1879883 6.1879883l-12.375977 0m-123.75983 -12.375977l136.1358 0m24.752014 -270.937l0 0c-3.4175415 0 -6.1879883 -2.7704468 -6.1879883 -6.1879883c0 -3.4175339 2.7704468 -6.1879883 6.1879883 -6.1879883l-12.376038 0m12.376038 -12.375984l0 0c-6.835083 0 -12.376038 5.5409164 -12.376038 12.375984l0 12.375977" fill-rule="nonzero"></path><path fill="#ea9999" d="m795.35956 131.35432l110.92914 0l0 59.65355l-110.92914 0z" fill-rule="nonzero"></path><path stroke="#666666" stroke-width="2.0" stroke-linejoin="round" stroke-linecap="butt" d="m795.35956 131.35432l110.92914 0l0 59.65355l-110.92914 0z" fill-rule="nonzero"></path><path fill="#b6d7a8" d="m795.35956 215.35246l110.92914 0l0 59.65355l-110.92914 0z" fill-rule="nonzero"></path><path stroke="#666666" stroke-width="2.0" stroke-linejoin="round" stroke-linecap="butt" d="m795.35956 215.35246l110.92914 0l0 59.65355l-110.92914 0z" fill-rule="nonzero"></path><path fill="#ea9999" d="m796.79987 297.30292l110.92914 0l0 59.653534l-110.92914 0z" fill-rule="nonzero"></path><path stroke="#666666" stroke-width="2.0" stroke-linejoin="round" stroke-linecap="butt" d="m796.79987 297.30292l110.92914 0l0 59.653534l-110.92914 0z" fill-rule="nonzero"></path><path fill="#000000" fill-opacity="0.0" d="m714.07086 444.34647l258.04724 0l0 92.59842l-258.04724 0z" fill-rule="nonzero"></path><path fill="#000000" d="m737.0933 471.26645l0 -13.59375l9.84375 0l0 1.59375l-8.046875 0l0 4.171875l7.53125 0l0 1.59375l-7.53125 0l0 4.625l8.359375 0l0 1.609375l-10.15625 0zm13.5060425 -9.859375l6.875 0l0 8.484375l1.0625 0l0 4.171875l-1.375 0l0 -2.796875l-7.75 0l0 2.796875l-1.375 0l0 -4.171875l0.875 0q1.765625 -2.390625 1.6875 -8.484375zm1.40625 1.390625q-0.1875 4.796875 -1.484375 7.09375l5.296875 0l0 -7.09375l-3.8125 0zm8.167114 -1.390625l1.671875 0l0 7.515625l4.625 -7.515625l1.8125 0l0 9.859375l-1.671875 0l0 -7.46875l-4.640625 7.46875l-1.796875 0l0 -9.859375zm10.43689 0l1.671875 0l0 4.109375l4.625 0l0 -4.109375l1.671875 0l0 9.859375l-1.671875 0l0 -4.375l-4.625 0l0 4.375l-1.671875 0l0 -9.859375zm16.724731 8.640625q-0.9375 0.796875 -1.796875 1.125q-0.859375 0.3125 -1.84375 0.3125q-1.609375 0 -2.484375 -0.78125q-0.875 -0.796875 -0.875 -2.03125q0 -0.734375 0.328125 -1.328125q0.328125 -0.59375 0.859375 -0.953125q0.53125 -0.359375 1.203125 -0.546875q0.5 -0.140625 1.484375 -0.25q2.03125 -0.25 2.984375 -0.578125q0 -0.34375 0 -0.4375q0 -1.015625 -0.46875 -1.4375q-0.640625 -0.5625 -1.90625 -0.5625q-1.171875 0 -1.734375 0.40625q-0.5625 0.40625 -0.828125 1.46875l-1.640625 -0.234375q0.234375 -1.046875 0.734375 -1.6875q0.515625 -0.640625 1.46875 -0.984375q0.96875 -0.359375 2.25 -0.359375q1.265625 0 2.046875 0.296875q0.78125 0.296875 1.15625 0.75q0.375 0.453125 0.515625 1.140625q0.09375 0.421875 0.09375 1.53125l0 2.234375q0 2.328125 0.09375 2.953125q0.109375 0.609375 0.4375 1.171875l-1.75 0q-0.265625 -0.515625 -0.328125 -1.21875zm-0.140625 -3.71875q-0.90625 0.359375 -2.734375 0.625q-1.03125 0.140625 -1.453125 0.328125q-0.421875 0.1875 -0.65625 0.546875q-0.234375 0.359375 -0.234375 0.796875q0 0.671875 0.5 1.125q0.515625 0.4375 1.484375 0.4375q0.96875 0 1.71875 -0.421875q0.75 -0.4375 1.109375 -1.15625q0.265625 -0.578125 0.265625 -1.671875l0 -0.609375zm11.844482 -4.921875l0 9.859375l-1.671875 0l0 -3.84375l-0.953125 0q-0.890625 0 -1.328125 0.234375q-0.421875 0.21875 -1.25 1.453125l-1.453125 2.15625l-2.078125 0l1.8125 -2.65625q0.8125 -1.21875 1.640625 -1.375q-1.4375 -0.1875 -2.125 -1.015625q-0.6875 -0.84375 -0.6875 -1.9375q0 -1.265625 0.90625 -2.0625q0.90625 -0.8125 2.609375 -0.8125l4.578125 0zm-1.671875 1.390625l-2.375 0q-1.484375 0 -1.921875 0.46875q-0.4375 0.453125 -0.4375 1.078125q0 0.875 0.640625 1.296875q0.640625 0.40625 2.25 0.40625l1.84375 0l0 -3.25zm9.207581 -1.390625l1.671875 0l0 4.109375l4.625 0l0 -4.109375l1.671875 0l0 9.859375l-1.671875 0l0 -4.375l-4.625 0l0 4.375l-1.671875 0l0 -9.859375zm9.662231 4.9375q0 -2.734375 1.53125 -4.0625q1.265625 -1.09375 3.09375 -1.09375q2.03125 0 3.3125 1.34375q1.296875 1.328125 1.296875 3.671875q0 1.90625 -0.578125 3.0q-0.5625 1.078125 -1.65625 1.6875q-1.078125 0.59375 -2.375 0.59375q-2.0625 0 -3.34375 -1.328125q-1.28125 -1.328125 -1.28125 -3.8125zm1.71875 0q0 1.890625 0.828125 2.828125q0.828125 0.9375 2.078125 0.9375q1.25 0 2.0625 -0.9375q0.828125 -0.953125 0.828125 -2.890625q0 -1.828125 -0.828125 -2.765625q-0.828125 -0.9375 -2.0625 -0.9375q-1.25 0 -2.078125 0.9375q-0.828125 0.9375 -0.828125 2.828125zm9.297607 -4.9375l3.84375 0q1.421875 0 2.109375 0.25q0.6875 0.234375 1.1875 0.859375q0.5 0.625 0.5 1.515625q0 0.703125 -0.296875 1.234375q-0.28125 0.515625 -0.875 0.875q0.703125 0.21875 1.15625 0.859375q0.46875 0.640625 0.46875 1.515625q-0.09375 1.390625 -1.015625 2.078125q-0.90625 0.671875 -2.640625 0.671875l-4.4375 0l0 -9.859375zm1.671875 4.15625l1.78125 0q1.0625 0 1.453125 -0.109375q0.40625 -0.109375 0.71875 -0.453125q0.3125 -0.34375 0.3125 -0.8125q0 -0.78125 -0.546875 -1.078125q-0.546875 -0.3125 -1.890625 -0.3125l-1.828125 0l0 2.765625zm0 4.328125l2.1875 0q1.421875 0 1.953125 -0.328125q0.53125 -0.328125 0.5625 -1.140625q0 -0.46875 -0.3125 -0.875q-0.3125 -0.40625 -0.796875 -0.5q-0.484375 -0.109375 -1.578125 -0.109375l-2.015625 0l0 2.953125zm7.598633 -3.546875q0 -2.734375 1.53125 -4.0625q1.265625 -1.09375 3.09375 -1.09375q2.03125 0 3.3125 1.34375q1.296875 1.328125 1.296875 3.671875q0 1.90625 -0.578125 3.0q-0.5625 1.078125 -1.65625 1.6875q-1.078125 0.59375 -2.375 0.59375q-2.0625 0 -3.34375 -1.328125q-1.28125 -1.328125 -1.28125 -3.8125zm1.71875 0q0 1.890625 0.828125 2.828125q0.828125 0.9375 2.078125 0.9375q1.25 0 2.0625 -0.9375q0.828125 -0.953125 0.828125 -2.890625q0 -1.828125 -0.828125 -2.765625q-0.828125 -0.9375 -2.0625 -0.9375q-1.25 0 -2.078125 0.9375q-0.828125 0.9375 -0.828125 2.828125zm15.719421 1.3125l1.640625 0.21875q-0.265625 1.6875 -1.375 2.65625q-1.109375 0.953125 -2.734375 0.953125q-2.015625 0 -3.25 -1.3125q-1.21875 -1.328125 -1.21875 -3.796875q0 -1.59375 0.515625 -2.78125q0.53125 -1.203125 1.609375 -1.796875q1.09375 -0.609375 2.359375 -0.609375q1.609375 0 2.625 0.8125q1.015625 0.8125 1.3125 2.3125l-1.625 0.25q-0.234375 -1.0 -0.828125 -1.5q-0.59375 -0.5 -1.421875 -0.5q-1.265625 0 -2.0625 0.90625q-0.78125 0.90625 -0.78125 2.859375q0 1.984375 0.765625 2.890625q0.765625 0.890625 1.984375 0.890625q0.984375 0 1.640625 -0.59375q0.65625 -0.609375 0.84375 -1.859375zm2.0 -6.25l8.0 0l0 1.390625l-3.171875 0l0 8.46875l-1.65625 0l0 -8.46875l-3.171875 0l0 -1.390625zm9.450989 0l1.671875 0l0 4.109375l4.625 0l0 -4.109375l1.671875 0l0 9.859375l-1.671875 0l0 -4.375l-4.625 0l0 4.375l-1.671875 0l0 -9.859375zm16.724731 8.640625q-0.9375 0.796875 -1.796875 1.125q-0.859375 0.3125 -1.84375 0.3125q-1.609375 0 -2.484375 -0.78125q-0.875 -0.796875 -0.875 -2.03125q0 -0.734375 0.328125 -1.328125q0.328125 -0.59375 0.859375 -0.953125q0.53125 -0.359375 1.203125 -0.546875q0.5 -0.140625 1.484375 -0.25q2.03125 -0.25 2.984375 -0.578125q0 -0.34375 0 -0.4375q0 -1.015625 -0.46875 -1.4375q-0.640625 -0.5625 -1.90625 -0.5625q-1.171875 0 -1.734375 0.40625q-0.5625 0.40625 -0.828125 1.46875l-1.640625 -0.234375q0.234375 -1.046875 0.734375 -1.6875q0.515625 -0.640625 1.46875 -0.984375q0.96875 -0.359375 2.25 -0.359375q1.265625 0 2.046875 0.296875q0.78125 0.296875 1.15625 0.75q0.375 0.453125 0.515625 1.140625q0.09375 0.421875 0.09375 1.53125l0 2.234375q0 2.328125 0.09375 2.953125q0.109375 0.609375 0.4375 1.171875l-1.75 0q-0.265625 -0.515625 -0.328125 -1.21875zm-0.140625 -3.71875q-0.90625 0.359375 -2.734375 0.625q-1.03125 0.140625 -1.453125 0.328125q-0.421875 0.1875 -0.65625 0.546875q-0.234375 0.359375 -0.234375 0.796875q0 0.671875 0.5 1.125q0.515625 0.4375 1.484375 0.4375q0.96875 0 1.71875 -0.421875q0.75 -0.4375 1.109375 -1.15625q0.265625 -0.578125 0.265625 -1.671875l0 -0.609375zm11.844421 -4.921875l0 9.859375l-1.671875 0l0 -3.84375l-0.953125 0q-0.890625 0 -1.328125 0.234375q-0.421875 0.21875 -1.25 1.453125l-1.453125 2.15625l-2.078125 0l1.8125 -2.65625q0.8125 -1.21875 1.640625 -1.375q-1.4375 -0.1875 -2.125 -1.015625q-0.6875 -0.84375 -0.6875 -1.9375q0 -1.265625 0.90625 -2.0625q0.90625 -0.8125 2.609375 -0.8125l4.578125 0zm-1.671875 1.390625l-2.375 0q-1.484375 0 -1.921875 0.46875q-0.4375 0.453125 -0.4375 1.078125q0 0.875 0.640625 1.296875q0.640625 0.40625 2.25 0.40625l1.84375 0l0 -3.25zm10.004517 -1.390625l7.765625 0l0 9.859375l-1.65625 0l0 -8.46875l-4.4375 0l0 4.90625q0 1.71875 -0.109375 2.265625q-0.109375 0.546875 -0.609375 0.953125q-0.5 0.40625 -1.453125 0.40625q-0.578125 0 -1.34375 -0.078125l0 -1.390625l0.734375 0q0.515625 0 0.734375 -0.09375q0.234375 -0.109375 0.296875 -0.34375q0.078125 -0.234375 0.078125 -1.515625l0 -6.5zm16.823364 6.6875l1.71875 0.21875q-0.40625 1.5 -1.515625 2.34375q-1.09375 0.828125 -2.8125 0.828125q-2.15625 0 -3.421875 -1.328125q-1.265625 -1.328125 -1.265625 -3.734375q0 -2.484375 1.265625 -3.859375q1.28125 -1.375 3.328125 -1.375q1.984375 0 3.234375 1.34375q1.25 1.34375 1.25 3.796875q0 0.140625 -0.015625 0.4375l-7.34375 0q0.09375 1.625 0.921875 2.484375q0.828125 0.859375 2.0625 0.859375q0.90625 0 1.546875 -0.46875q0.65625 -0.484375 1.046875 -1.546875zm-5.484375 -2.703125l5.5 0q-0.109375 -1.234375 -0.625 -1.859375q-0.796875 -0.96875 -2.078125 -0.96875q-1.140625 0 -1.9375 0.78125q-0.78125 0.765625 -0.859375 2.046875zm9.125671 -3.984375l1.671875 0l0 4.109375l4.625 0l0 -4.109375l1.671875 0l0 9.859375l-1.671875 0l0 -4.375l-4.625 0l0 4.375l-1.671875 0l0 -9.859375zm9.396606 0l8.0 0l0 1.390625l-3.171875 0l0 8.46875l-1.65625 0l0 -8.46875l-3.171875 0l0 -1.390625zm15.872864 8.640625q-0.9375 0.796875 -1.796875 1.125q-0.859375 0.3125 -1.84375 0.3125q-1.609375 0 -2.484375 -0.78125q-0.875 -0.796875 -0.875 -2.03125q0 -0.734375 0.328125 -1.328125q0.328125 -0.59375 0.859375 -0.953125q0.53125 -0.359375 1.203125 -0.546875q0.5 -0.140625 1.484375 -0.25q2.03125 -0.25 2.984375 -0.578125q0 -0.34375 0 -0.4375q0 -1.015625 -0.46875 -1.4375q-0.640625 -0.5625 -1.90625 -0.5625q-1.171875 0 -1.734375 0.40625q-0.5625 0.40625 -0.828125 1.46875l-1.640625 -0.234375q0.234375 -1.046875 0.734375 -1.6875q0.515625 -0.640625 1.46875 -0.984375q0.96875 -0.359375 2.25 -0.359375q1.265625 0 2.046875 0.296875q0.78125 0.296875 1.15625 0.75q0.375 0.453125 0.515625 1.140625q0.09375 0.421875 0.09375 1.53125l0 2.234375q0 2.328125 0.09375 2.953125q0.109375 0.609375 0.4375 1.171875l-1.75 0q-0.265625 -0.515625 -0.328125 -1.21875zm-0.140625 -3.71875q-0.90625 0.359375 -2.734375 0.625q-1.03125 0.140625 -1.453125 0.328125q-0.421875 0.1875 -0.65625 0.546875q-0.234375 0.359375 -0.234375 0.796875q0 0.671875 0.5 1.125q0.515625 0.4375 1.484375 0.4375q0.96875 0 1.71875 -0.421875q0.75 -0.4375 1.109375 -1.15625q0.265625 -0.578125 0.265625 -1.671875l0 -0.609375z" fill-rule="nonzero"></path><path fill="#000000" d="m794.19354 493.26645l0 -13.59375l2.71875 0l3.21875 9.625q0.4375 1.34375 0.640625 2.015625q0.234375 -0.75 0.734375 -2.1875l3.25 -9.453125l2.421875 0l0 13.59375l-1.734375 0l0 -11.390625l-3.953125 11.390625l-1.625 0l-3.9375 -11.578125l0 11.578125l-1.734375 0zm21.822021 -1.21875q-0.9375 0.796875 -1.796875 1.125q-0.859375 0.3125 -1.84375 0.3125q-1.609375 0 -2.484375 -0.78125q-0.875 -0.796875 -0.875 -2.03125q0 -0.734375 0.328125 -1.328125q0.328125 -0.59375 0.859375 -0.953125q0.53125 -0.359375 1.203125 -0.546875q0.5 -0.140625 1.484375 -0.25q2.03125 -0.25 2.984375 -0.578125q0 -0.34375 0 -0.4375q0 -1.015625 -0.46875 -1.4375q-0.640625 -0.5625 -1.90625 -0.5625q-1.171875 0 -1.734375 0.40625q-0.5625 0.40625 -0.828125 1.46875l-1.640625 -0.234375q0.234375 -1.046875 0.734375 -1.6875q0.515625 -0.640625 1.46875 -0.984375q0.96875 -0.359375 2.25 -0.359375q1.265625 0 2.046875 0.296875q0.78125 0.296875 1.15625 0.75q0.375 0.453125 0.515625 1.140625q0.09375 0.421875 0.09375 1.53125l0 2.234375q0 2.328125 0.09375 2.953125q0.109375 0.609375 0.4375 1.171875l-1.75 0q-0.265625 -0.515625 -0.328125 -1.21875zm-0.140625 -3.71875q-0.90625 0.359375 -2.734375 0.625q-1.03125 0.140625 -1.453125 0.328125q-0.421875 0.1875 -0.65625 0.546875q-0.234375 0.359375 -0.234375 0.796875q0 0.671875 0.5 1.125q0.515625 0.4375 1.484375 0.4375q0.96875 0 1.71875 -0.421875q0.75 -0.4375 1.109375 -1.15625q0.265625 -0.578125 0.265625 -1.671875l0 -0.609375zm4.0944824 -4.921875l1.671875 0l0 4.109375l4.625 0l0 -4.109375l1.671875 0l0 9.859375l-1.671875 0l0 -4.375l-4.625 0l0 4.375l-1.671875 0l0 -9.859375zm10.287231 0l1.671875 0l0 7.515625l4.625 -7.515625l1.8125 0l0 9.859375l-1.671875 0l0 -7.46875l-4.640625 7.46875l-1.796875 0l0 -9.859375zm16.15564 -3.734375l1.671875 0l0 4.703125q0.515625 -0.59375 1.140625 -0.890625q0.625 -0.296875 1.34375 -0.296875q1.75 0 2.765625 1.46875q1.03125 1.453125 1.03125 3.671875q0 2.3125 -1.109375 3.734375q-1.09375 1.421875 -2.734375 1.421875q-0.546875 0 -1.109375 -0.171875q-0.546875 -0.15625 -1.328125 -0.90625l0 4.640625l-1.671875 0l0 -4.640625q-0.5 0.546875 -1.109375 0.8125q-0.609375 0.265625 -1.3125 0.265625q-1.546875 0 -2.703125 -1.359375q-1.15625 -1.359375 -1.15625 -3.890625q0 -2.140625 1.046875 -3.59375q1.046875 -1.453125 2.8125 -1.453125q0.75 0 1.34375 0.296875q0.609375 0.296875 1.078125 0.890625l0 -4.703125zm1.65625 8.703125q0 2.234375 0.609375 3.0q0.625 0.765625 1.546875 0.765625q1.015625 0 1.734375 -0.9375q0.71875 -0.953125 0.71875 -2.9375q0 -1.875 -0.671875 -2.796875q-0.65625 -0.921875 -1.703125 -0.921875q-1.109375 0 -1.671875 0.96875q-0.5625 0.953125 -0.5625 2.859375zm-6.25 -0.1875q0 2.09375 0.703125 3.015625q0.703125 0.90625 1.734375 0.90625q1.09375 0 1.625 -0.90625q0.546875 -0.921875 0.546875 -2.75q0 -1.9375 -0.578125 -2.90625q-0.5625 -0.984375 -1.703125 -0.984375q-1.03125 0 -1.6875 0.953125q-0.640625 0.953125 -0.640625 2.671875zm20.958862 1.90625l1.71875 0.21875q-0.40625 1.5 -1.515625 2.34375q-1.09375 0.828125 -2.8125 0.828125q-2.15625 0 -3.421875 -1.328125q-1.265625 -1.328125 -1.265625 -3.734375q0 -2.484375 1.265625 -3.859375q1.28125 -1.375 3.328125 -1.375q1.984375 0 3.234375 1.34375q1.25 1.34375 1.25 3.796875q0 0.140625 -0.015625 0.4375l-7.34375 0q0.09375 1.625 0.921875 2.484375q0.828125 0.859375 2.0625 0.859375q0.90625 0 1.546875 -0.46875q0.65625 -0.484375 1.046875 -1.546875zm-5.484375 -2.703125l5.5 0q-0.109375 -1.234375 -0.625 -1.859375q-0.796875 -0.96875 -2.078125 -0.96875q-1.140625 0 -1.9375 0.78125q-0.78125 0.765625 -0.859375 2.046875zm15.547607 2.265625l1.640625 0.21875q-0.265625 1.6875 -1.375 2.65625q-1.109375 0.953125 -2.734375 0.953125q-2.015625 0 -3.25 -1.3125q-1.21875 -1.328125 -1.21875 -3.796875q0 -1.59375 0.515625 -2.78125q0.53125 -1.203125 1.609375 -1.796875q1.09375 -0.609375 2.359375 -0.609375q1.609375 0 2.625 0.8125q1.015625 0.8125 1.3125 2.3125l-1.625 0.25q-0.234375 -1.0 -0.828125 -1.5q-0.59375 -0.5 -1.421875 -0.5q-1.265625 0 -2.0625 0.90625q-0.78125 0.90625 -0.78125 2.859375q0 1.984375 0.765625 2.890625q0.765625 0.890625 1.984375 0.890625q0.984375 0 1.640625 -0.59375q0.65625 -0.609375 0.84375 -1.859375zm2.0 -6.25l8.0 0l0 1.390625l-3.171875 0l0 8.46875l-1.65625 0l0 -8.46875l-3.171875 0l0 -1.390625zm15.872864 8.640625q-0.9375 0.796875 -1.796875 1.125q-0.859375 0.3125 -1.84375 0.3125q-1.609375 0 -2.484375 -0.78125q-0.875 -0.796875 -0.875 -2.03125q0 -0.734375 0.328125 -1.328125q0.328125 -0.59375 0.859375 -0.953125q0.53125 -0.359375 1.203125 -0.546875q0.5 -0.140625 1.484375 -0.25q2.03125 -0.25 2.984375 -0.578125q0 -0.34375 0 -0.4375q0 -1.015625 -0.46875 -1.4375q-0.640625 -0.5625 -1.90625 -0.5625q-1.171875 0 -1.734375 0.40625q-0.5625 0.40625 -0.828125 1.46875l-1.640625 -0.234375q0.234375 -1.046875 0.734375 -1.6875q0.515625 -0.640625 1.46875 -0.984375q0.96875 -0.359375 2.25 -0.359375q1.265625 0 2.046875 0.296875q0.78125 0.296875 1.15625 0.75q0.375 0.453125 0.515625 1.140625q0.09375 0.421875 0.09375 1.53125l0 2.234375q0 2.328125 0.09375 2.953125q0.109375 0.609375 0.4375 1.171875l-1.75 0q-0.265625 -0.515625 -0.328125 -1.21875zm-0.140625 -3.71875q-0.90625 0.359375 -2.734375 0.625q-1.03125 0.140625 -1.453125 0.328125q-0.421875 0.1875 -0.65625 0.546875q-0.234375 0.359375 -0.234375 0.796875q0 0.671875 0.5 1.125q0.515625 0.4375 1.484375 0.4375q0.96875 0 1.71875 -0.421875q0.75 -0.4375 1.109375 -1.15625q0.265625 -0.578125 0.265625 -1.671875l0 -0.609375z" fill-rule="nonzero"></path><path fill="#ea9999" d="m170.10585 118.963615l0 0c0 -8.619125 6.9871826 -15.6063 15.606293 -15.6063c8.619125 0 15.606308 6.987175 15.606308 15.6063c0 8.619118 -6.9871826 15.6063 -15.606308 15.6063c-8.61911 0 -15.606293 -6.9871826 -15.606293 -15.6063z" fill-rule="nonzero"></path><path fill="#bb7a7a" d="m179.0867 114.29617c0 -0.89782715 0.727829 -1.6256561 1.6256561 -1.6256561c0.89782715 0 1.6256561 0.727829 1.6256561 1.6256561c0 0.89782715 -0.727829 1.6256561 -1.6256561 1.6256561c-0.89782715 0 -1.6256561 -0.727829 -1.6256561 -1.6256561m9.999588 0c0 -0.89782715 0.727829 -1.6256561 1.6256561 -1.6256561c0.89782715 0 1.6256561 0.727829 1.6256561 1.6256561c0 0.89782715 -0.727829 1.6256561 -1.6256561 1.6256561c-0.89782715 0 -1.6256561 -0.727829 -1.6256561 -1.6256561" fill-rule="nonzero"></path><path fill="#000000" fill-opacity="0.0" d="m177.25343 125.76962q8.45871 5.8092957 16.897675 0" fill-rule="nonzero"></path><path fill="#000000" fill-opacity="0.0" d="m170.10585 118.963615l0 0c0 -8.619125 6.9871826 -15.6063 15.606293 -15.6063c8.619125 0 15.606308 6.987175 15.606308 15.6063c0 8.619118 -6.9871826 15.6063 -15.606308 15.6063c-8.61911 0 -15.606293 -6.9871826 -15.606293 -15.6063z" fill-rule="nonzero"></path><path stroke="#666666" stroke-width="2.0" stroke-linejoin="round" stroke-linecap="butt" d="m179.0867 114.29617c0 -0.89782715 0.727829 -1.6256561 1.6256561 -1.6256561c0.89782715 0 1.6256561 0.727829 1.6256561 1.6256561c0 0.89782715 -0.727829 1.6256561 -1.6256561 1.6256561c-0.89782715 0 -1.6256561 -0.727829 -1.6256561 -1.6256561m9.999588 0c0 -0.89782715 0.727829 -1.6256561 1.6256561 -1.6256561c0.89782715 0 1.6256561 0.727829 1.6256561 1.6256561c0 0.89782715 -0.727829 1.6256561 -1.6256561 1.6256561c-0.89782715 0 -1.6256561 -0.727829 -1.6256561 -1.6256561" fill-rule="nonzero"></path><path stroke="#666666" stroke-width="2.0" stroke-linejoin="round" stroke-linecap="butt" d="m177.25343 125.76962q8.45871 5.8092957 16.897675 0" fill-rule="nonzero"></path><path stroke="#666666" stroke-width="2.0" stroke-linejoin="round" stroke-linecap="butt" d="m170.10585 118.963615l0 0c0 -8.619125 6.9871826 -15.6063 15.606293 -15.6063c8.619125 0 15.606308 6.987175 15.606308 15.6063c0 8.619118 -6.9871826 15.6063 -15.606308 15.6063c-8.61911 0 -15.606293 -6.9871826 -15.606293 -15.6063z" fill-rule="nonzero"></path><path fill="#b6d7a8" d="m410.05692 117.95201l0 0c0 -8.619125 6.9871826 -15.6063 15.606293 -15.6063c8.619141 0 15.606323 6.987175 15.606323 15.6063c0 8.619118 -6.9871826 15.606293 -15.606323 15.606293c-8.61911 0 -15.606293 -6.987175 -15.606293 -15.606293z" fill-rule="nonzero"></path><path fill="#91ab86" d="m419.03778 113.28457c0 -0.89782715 0.7278137 -1.6256561 1.6256409 -1.6256561c0.89782715 0 1.6256714 0.727829 1.6256714 1.6256561c0 0.89782715 -0.72784424 1.6256561 -1.6256714 1.6256561c-0.89782715 0 -1.6256409 -0.727829 -1.6256409 -1.6256561m9.999573 0c0 -0.89782715 0.72784424 -1.6256561 1.6256714 -1.6256561c0.89782715 0 1.6256409 0.727829 1.6256409 1.6256561c0 0.89782715 -0.7278137 1.6256561 -1.6256409 1.6256561c-0.89782715 0 -1.6256714 -0.727829 -1.6256714 -1.6256561" fill-rule="nonzero"></path><path fill="#000000" fill-opacity="0.0" d="m417.2045 124.75802q8.45871 5.809288 16.897675 0" fill-rule="nonzero"></path><path fill="#000000" fill-opacity="0.0" d="m410.05692 117.95201l0 0c0 -8.619125 6.9871826 -15.6063 15.606293 -15.6063c8.619141 0 15.606323 6.987175 15.606323 15.6063c0 8.619118 -6.9871826 15.606293 -15.606323 15.606293c-8.61911 0 -15.606293 -6.987175 -15.606293 -15.606293z" fill-rule="nonzero"></path><path stroke="#666666" stroke-width="2.0" stroke-linejoin="round" stroke-linecap="butt" d="m419.03778 113.28457c0 -0.89782715 0.7278137 -1.6256561 1.6256409 -1.6256561c0.89782715 0 1.6256714 0.727829 1.6256714 1.6256561c0 0.89782715 -0.72784424 1.6256561 -1.6256714 1.6256561c-0.89782715 0 -1.6256409 -0.727829 -1.6256409 -1.6256561m9.999573 0c0 -0.89782715 0.72784424 -1.6256561 1.6256714 -1.6256561c0.89782715 0 1.6256409 0.727829 1.6256409 1.6256561c0 0.89782715 -0.7278137 1.6256561 -1.6256409 1.6256561c-0.89782715 0 -1.6256714 -0.727829 -1.6256714 -1.6256561" fill-rule="nonzero"></path><path stroke="#666666" stroke-width="2.0" stroke-linejoin="round" stroke-linecap="butt" d="m417.2045 124.75802q8.45871 5.809288 16.897675 0" fill-rule="nonzero"></path><path stroke="#666666" stroke-width="2.0" stroke-linejoin="round" stroke-linecap="butt" d="m410.05692 117.95201l0 0c0 -8.619125 6.9871826 -15.6063 15.606293 -15.6063c8.619141 0 15.606323 6.987175 15.606323 15.6063c0 8.619118 -6.9871826 15.606293 -15.606323 15.606293c-8.61911 0 -15.606293 -6.987175 -15.606293 -15.606293z" fill-rule="nonzero"></path><path fill="#ea9999" d="m163.13387 170.31233l70.74016 0l0 64.69292l-70.74016 0z" fill-rule="nonzero"></path><path stroke="#666666" stroke-width="2.0" stroke-linejoin="round" stroke-linecap="butt" d="m163.13387 170.31233l70.74016 0l0 64.69292l-70.74016 0z" fill-rule="nonzero"></path><path fill="#ea9999" d="m163.13387 261.42944l70.74016 0l0 64.6929l-70.74016 0z" fill-rule="nonzero"></path><path stroke="#666666" stroke-width="2.0" stroke-linejoin="round" stroke-linecap="butt" d="m163.13387 261.42944l70.74016 0l0 64.6929l-70.74016 0z" fill-rule="nonzero"></path><path fill="#00ff00" d="m247.49046 181.75038l9.875961 0l0 -9.875961l9.296875 0l0 9.875961l9.875977 0l0 9.296875l-9.875977 0l0 9.875961l-9.296875 0l0 -9.875961l-9.875961 0z" fill-rule="nonzero"></path><path stroke="#666666" stroke-width="2.0" stroke-linejoin="round" stroke-linecap="butt" d="m247.49046 181.75038l9.875961 0l0 -9.875961l9.296875 0l0 9.875961l9.875977 0l0 9.296875l-9.875977 0l0 9.875961l-9.296875 0l0 -9.875961l-9.875961 0z" fill-rule="nonzero"></path><path fill="#ff0000" d="m248.59485 214.4946l6.2995453 -6.4802704l7.120468 6.9218903l7.1204834 -6.9218903l6.29953 6.4802704l-6.937134 6.743698l6.937134 6.743683l-6.29953 6.4802704l-7.1204834 -6.9218903l-7.120468 6.9218903l-6.2995453 -6.4802704l6.937149 -6.743683z" fill-rule="nonzero"></path><path stroke="#666666" stroke-width="2.0" stroke-linejoin="round" stroke-linecap="butt" d="m248.59485 214.4946l6.2995453 -6.4802704l7.120468 6.9218903l7.1204834 -6.9218903l6.29953 6.4802704l-6.937134 6.743698l6.937134 6.743683l-6.29953 6.4802704l-7.1204834 -6.9218903l-7.120468 6.9218903l-6.2995453 -6.4802704l6.937149 -6.743683z" fill-rule="nonzero"></path><path fill="#000000" fill-opacity="0.0" d="m281.7774 163.79778l57.795288 0l0 31.2126l-57.795288 0z" fill-rule="nonzero"></path><path fill="#000000" d="m317.4752 184.01465q0 -2.421875 0.5 -3.890625q0.5 -1.46875 1.46875 -2.265625q0.984375 -0.796875 2.46875 -0.796875q1.09375 0 1.921875 0.4375q0.828125 0.4375 1.359375 1.28125q0.546875 0.828125 0.84375 2.015625q0.3125 1.1875 0.3125 3.21875q0 2.390625 -0.5 3.859375q-0.484375 1.46875 -1.46875 2.28125q-0.96875 0.796875 -2.46875 0.796875q-1.96875 0 -3.078125 -1.40625q-1.359375 -1.703125 -1.359375 -5.53125zm1.71875 0q0 3.34375 0.78125 4.453125q0.796875 1.109375 1.9375 1.109375q1.15625 0 1.9375 -1.109375q0.78125 -1.125 0.78125 -4.453125q0 -3.359375 -0.78125 -4.46875q-0.78125 -1.109375 -1.953125 -1.109375q-1.15625 0 -1.828125 0.984375q-0.875 1.234375 -0.875 4.59375z" fill-rule="nonzero"></path><path fill="#000000" fill-opacity="0.0" d="m283.8624 199.56487l59.433075 0l0 31.212585l-59.433075 0z" fill-rule="nonzero"></path><path fill="#000000" d="m300.34677 226.48486l-2.609375 0l0 -9.828125q-1.4375 1.34375 -3.375 1.984375l0 -2.375q1.03125 -0.328125 2.21875 -1.25q1.203125 -0.9375 1.640625 -2.1875l2.125 0l0 13.65625zm8.110107 -13.65625q1.96875 0 3.078125 1.40625q1.328125 1.671875 1.328125 5.546875q0 3.859375 -1.328125 5.546875q-1.109375 1.390625 -3.078125 1.390625q-1.984375 0 -3.203125 -1.53125q-1.21875 -1.53125 -1.21875 -5.4375q0 -3.84375 1.34375 -5.53125q1.09375 -1.390625 3.078125 -1.390625zm0 2.15625q-0.484375 0 -0.859375 0.3125q-0.359375 0.296875 -0.5625 1.078125q-0.265625 1.015625 -0.265625 3.40625q0 2.390625 0.234375 3.28125q0.25 0.890625 0.609375 1.1875q0.359375 0.296875 0.84375 0.296875q0.46875 0 0.828125 -0.296875q0.375 -0.296875 0.59375 -1.078125q0.265625 -1.0 0.265625 -3.390625q0 -2.390625 -0.25 -3.28125q-0.234375 -0.90625 -0.609375 -1.203125q-0.359375 -0.3125 -0.828125 -0.3125zm10.375702 -2.15625q1.96875 0 3.078125 1.40625q1.328125 1.671875 1.328125 5.546875q0 3.859375 -1.328125 5.546875q-1.109375 1.390625 -3.078125 1.390625q-1.984375 0 -3.203125 -1.53125q-1.21875 -1.53125 -1.21875 -5.4375q0 -3.84375 1.34375 -5.53125q1.09375 -1.390625 3.078125 -1.390625zm0 2.15625q-0.484375 0 -0.859375 0.3125q-0.359375 0.296875 -0.5625 1.078125q-0.265625 1.015625 -0.265625 3.40625q0 2.390625 0.234375 3.28125q0.25 0.890625 0.609375 1.1875q0.359375 0.296875 0.84375 0.296875q0.46875 0 0.828125 -0.296875q0.375 -0.296875 0.59375 -1.078125q0.265625 -1.0 0.265625 -3.390625q0 -2.390625 -0.25 -3.28125q-0.234375 -0.90625 -0.609375 -1.203125q-0.359375 -0.3125 -0.828125 -0.3125z" fill-rule="nonzero"></path><path fill="#00ff00" d="m247.49046 271.83533l9.875961 0l0 -9.875977l9.296875 0l0 9.875977l9.875977 0l0 9.296875l-9.875977 0l0 9.875946l-9.296875 0l0 -9.875946l-9.875961 0z" fill-rule="nonzero"></path><path stroke="#666666" stroke-width="2.0" stroke-linejoin="round" stroke-linecap="butt" d="m247.49046 271.83533l9.875961 0l0 -9.875977l9.296875 0l0 9.875977l9.875977 0l0 9.296875l-9.875977 0l0 9.875946l-9.296875 0l0 -9.875946l-9.875961 0z" fill-rule="nonzero"></path><path fill="#ff0000" d="m248.59485 304.57953l6.2995453 -6.480255l7.120468 6.921875l7.1204834 -6.921875l6.29953 6.480255l-6.937134 6.743683l6.937134 6.7437134l-6.29953 6.480255l-7.1204834 -6.921875l-7.120468 6.921875l-6.2995453 -6.480255l6.937149 -6.7437134z" fill-rule="nonzero"></path><path stroke="#666666" stroke-width="2.0" stroke-linejoin="round" stroke-linecap="butt" d="m248.59485 304.57953l6.2995453 -6.480255l7.120468 6.921875l7.1204834 -6.921875l6.29953 6.480255l-6.937134 6.743683l6.937134 6.7437134l-6.29953 6.480255l-7.1204834 -6.921875l-7.120468 6.921875l-6.2995453 -6.480255l6.937149 -6.7437134z" fill-rule="nonzero"></path><path fill="#000000" fill-opacity="0.0" d="m281.7774 253.8827l57.795288 0l0 31.2126l-57.795288 0z" fill-rule="nonzero"></path><path fill="#000000" d="m317.4752 274.09958q0 -2.421875 0.5 -3.890625q0.5 -1.46875 1.46875 -2.265625q0.984375 -0.796875 2.46875 -0.796875q1.09375 0 1.921875 0.4375q0.828125 0.4375 1.359375 1.28125q0.546875 0.828125 0.84375 2.015625q0.3125 1.1875 0.3125 3.21875q0 2.390625 -0.5 3.859375q-0.484375 1.46875 -1.46875 2.28125q-0.96875 0.796875 -2.46875 0.796875q-1.96875 0 -3.078125 -1.40625q-1.359375 -1.703125 -1.359375 -5.53125zm1.71875 0q0 3.34375 0.78125 4.453125q0.796875 1.109375 1.9375 1.109375q1.15625 0 1.9375 -1.109375q0.78125 -1.125 0.78125 -4.453125q0 -3.359375 -0.78125 -4.46875q-0.78125 -1.109375 -1.953125 -1.109375q-1.15625 0 -1.828125 0.984375q-0.875 1.234375 -0.875 4.59375z" fill-rule="nonzero"></path><path fill="#000000" fill-opacity="0.0" d="m283.8624 289.6498l59.433075 0l0 31.212585l-59.433075 0z" fill-rule="nonzero"></path><path fill="#000000" d="m300.34677 316.56982l-2.609375 0l0 -9.828125q-1.4375 1.34375 -3.375 1.984375l0 -2.375q1.03125 -0.328125 2.21875 -1.25q1.203125 -0.9375 1.640625 -2.1875l2.125 0l0 13.65625zm8.110107 -13.65625q1.96875 0 3.078125 1.40625q1.328125 1.671875 1.328125 5.546875q0 3.859375 -1.328125 5.546875q-1.109375 1.390625 -3.078125 1.390625q-1.984375 0 -3.203125 -1.53125q-1.21875 -1.53125 -1.21875 -5.4375q0 -3.84375 1.34375 -5.53125q1.09375 -1.390625 3.078125 -1.390625zm0 2.15625q-0.484375 0 -0.859375 0.3125q-0.359375 0.296875 -0.5625 1.078125q-0.265625 1.015625 -0.265625 3.40625q0 2.390625 0.234375 3.28125q0.25 0.890625 0.609375 1.1875q0.359375 0.296875 0.84375 0.296875q0.46875 0 0.828125 -0.296875q0.375 -0.296875 0.59375 -1.078125q0.265625 -1.0 0.265625 -3.390625q0 -2.390625 -0.25 -3.28125q-0.234375 -0.90625 -0.609375 -1.203125q-0.359375 -0.3125 -0.828125 -0.3125zm10.375702 -2.15625q1.96875 0 3.078125 1.40625q1.328125 1.671875 1.328125 5.546875q0 3.859375 -1.328125 5.546875q-1.109375 1.390625 -3.078125 1.390625q-1.984375 0 -3.203125 -1.53125q-1.21875 -1.53125 -1.21875 -5.4375q0 -3.84375 1.34375 -5.53125q1.09375 -1.390625 3.078125 -1.390625zm0 2.15625q-0.484375 0 -0.859375 0.3125q-0.359375 0.296875 -0.5625 1.078125q-0.265625 1.015625 -0.265625 3.40625q0 2.390625 0.234375 3.28125q0.25 0.890625 0.609375 1.1875q0.359375 0.296875 0.84375 0.296875q0.46875 0 0.828125 -0.296875q0.375 -0.296875 0.59375 -1.078125q0.265625 -1.0 0.265625 -3.390625q0 -2.390625 -0.25 -3.28125q-0.234375 -0.90625 -0.609375 -1.203125q-0.359375 -0.3125 -0.828125 -0.3125z" fill-rule="nonzero"></path><path fill="#00ff00" d="m497.5754 181.75038l9.875977 0l0 -9.875961l9.2968445 0l0 9.875961l9.875977 0l0 9.296875l-9.875977 0l0 9.875961l-9.2968445 0l0 -9.875961l-9.875977 0z" fill-rule="nonzero"></path><path stroke="#666666" stroke-width="2.0" stroke-linejoin="round" stroke-linecap="butt" d="m497.5754 181.75038l9.875977 0l0 -9.875961l9.2968445 0l0 9.875961l9.875977 0l0 9.296875l-9.875977 0l0 9.875961l-9.2968445 0l0 -9.875961l-9.875977 0z" fill-rule="nonzero"></path><path fill="#ff0000" d="m498.6798 214.4946l6.29953 -6.4802704l7.120453 6.9218903l7.1204834 -6.9218903l6.2995605 6.4802704l-6.937134 6.743698l6.937134 6.743683l-6.2995605 6.4802704l-7.1204834 -6.9218903l-7.120453 6.9218903l-6.29953 -6.4802704l6.937134 -6.743683z" fill-rule="nonzero"></path><path stroke="#666666" stroke-width="2.0" stroke-linejoin="round" stroke-linecap="butt" d="m498.6798 214.4946l6.29953 -6.4802704l7.120453 6.9218903l7.1204834 -6.9218903l6.2995605 6.4802704l-6.937134 6.743698l6.937134 6.743683l-6.2995605 6.4802704l-7.1204834 -6.9218903l-7.120453 6.9218903l-6.29953 -6.4802704l6.937134 -6.743683z" fill-rule="nonzero"></path><path fill="#000000" fill-opacity="0.0" d="m531.86237 163.79778l57.795288 0l0 31.2126l-57.795288 0z" fill-rule="nonzero"></path><path fill="#000000" d="m548.34674 190.71777l-2.609375 0l0 -9.828125q-1.4375 1.34375 -3.375 1.984375l0 -2.375q1.03125 -0.328125 2.21875 -1.25q1.203125 -0.9375 1.640625 -2.1875l2.125 0l0 13.65625zm8.110107 -13.65625q1.96875 0 3.078125 1.40625q1.328125 1.671875 1.328125 5.546875q0 3.859375 -1.328125 5.546875q-1.109375 1.390625 -3.078125 1.390625q-1.984375 0 -3.203125 -1.53125q-1.21875 -1.53125 -1.21875 -5.4375q0 -3.84375 1.34375 -5.53125q1.09375 -1.390625 3.078125 -1.390625zm0 2.15625q-0.484375 0 -0.859375 0.3125q-0.359375 0.296875 -0.5625 1.078125q-0.265625 1.015625 -0.265625 3.40625q0 2.390625 0.234375 3.28125q0.25 0.890625 0.609375 1.1875q0.359375 0.296875 0.84375 0.296875q0.46875 0 0.828125 -0.296875q0.375 -0.296875 0.59375 -1.078125q0.265625 -1.0 0.265625 -3.390625q0 -2.390625 -0.25 -3.28125q-0.234375 -0.90625 -0.609375 -1.203125q-0.359375 -0.3125 -0.828125 -0.3125zm10.375732 -2.15625q1.96875 0 3.078125 1.40625q1.328125 1.671875 1.328125 5.546875q0 3.859375 -1.328125 5.546875q-1.109375 1.390625 -3.078125 1.390625q-1.984375 0 -3.203125 -1.53125q-1.21875 -1.53125 -1.21875 -5.4375q0 -3.84375 1.34375 -5.53125q1.09375 -1.390625 3.078125 -1.390625zm0 2.15625q-0.484375 0 -0.859375 0.3125q-0.359375 0.296875 -0.5625 1.078125q-0.265625 1.015625 -0.265625 3.40625q0 2.390625 0.234375 3.28125q0.25 0.890625 0.609375 1.1875q0.359375 0.296875 0.84375 0.296875q0.46875 0 0.828125 -0.296875q0.375 -0.296875 0.59375 -1.078125q0.265625 -1.0 0.265625 -3.390625q0 -2.390625 -0.25 -3.28125q-0.234375 -0.90625 -0.609375 -1.203125q-0.359375 -0.3125 -0.828125 -0.3125z" fill-rule="nonzero"></path><path fill="#000000" fill-opacity="0.0" d="m533.9473 199.56487l59.433105 0l0 31.212585l-59.433105 0z" fill-rule="nonzero"></path><path fill="#000000" d="m564.4618 219.78174q0 -2.421875 0.5 -3.890625q0.5 -1.46875 1.46875 -2.265625q0.984375 -0.796875 2.46875 -0.796875q1.09375 0 1.921875 0.4375q0.828125 0.4375 1.359375 1.28125q0.546875 0.828125 0.84375 2.015625q0.3125 1.1875 0.3125 3.21875q0 2.390625 -0.5 3.859375q-0.484375 1.46875 -1.46875 2.28125q-0.96875 0.796875 -2.46875 0.796875q-1.96875 0 -3.078125 -1.40625q-1.359375 -1.703125 -1.359375 -5.53125zm1.71875 0q0 3.34375 0.78125 4.453125q0.796875 1.109375 1.9375 1.109375q1.15625 0 1.9375 -1.109375q0.78125 -1.125 0.78125 -4.453125q0 -3.359375 -0.78125 -4.46875q-0.78125 -1.109375 -1.953125 -1.109375q-1.15625 0 -1.828125 0.984375q-0.875 1.234375 -0.875 4.59375z" fill-rule="nonzero"></path><path fill="#00ff00" d="m497.5754 271.83533l9.875977 0l0 -9.875977l9.2968445 0l0 9.875977l9.875977 0l0 9.296875l-9.875977 0l0 9.875946l-9.2968445 0l0 -9.875946l-9.875977 0z" fill-rule="nonzero"></path><path stroke="#666666" stroke-width="2.0" stroke-linejoin="round" stroke-linecap="butt" d="m497.5754 271.83533l9.875977 0l0 -9.875977l9.2968445 0l0 9.875977l9.875977 0l0 9.296875l-9.875977 0l0 9.875946l-9.2968445 0l0 -9.875946l-9.875977 0z" fill-rule="nonzero"></path><path fill="#ff0000" d="m498.6798 304.57953l6.29953 -6.480255l7.120453 6.921875l7.1204834 -6.921875l6.2995605 6.480255l-6.937134 6.743683l6.937134 6.7437134l-6.2995605 6.480255l-7.1204834 -6.921875l-7.120453 6.921875l-6.29953 -6.480255l6.937134 -6.7437134z" fill-rule="nonzero"></path><path stroke="#666666" stroke-width="2.0" stroke-linejoin="round" stroke-linecap="butt" d="m498.6798 304.57953l6.29953 -6.480255l7.120453 6.921875l7.1204834 -6.921875l6.2995605 6.480255l-6.937134 6.743683l6.937134 6.7437134l-6.2995605 6.480255l-7.1204834 -6.921875l-7.120453 6.921875l-6.29953 -6.480255l6.937134 -6.7437134z" fill-rule="nonzero"></path><path fill="#000000" fill-opacity="0.0" d="m531.86237 253.8827l57.795288 0l0 31.2126l-57.795288 0z" fill-rule="nonzero"></path><path fill="#000000" d="m548.34674 280.8027l-2.609375 0l0 -9.828125q-1.4375 1.34375 -3.375 1.984375l0 -2.375q1.03125 -0.328125 2.21875 -1.25q1.203125 -0.9375 1.640625 -2.1875l2.125 0l0 13.65625zm8.110107 -13.65625q1.96875 0 3.078125 1.40625q1.328125 1.671875 1.328125 5.546875q0 3.859375 -1.328125 5.546875q-1.109375 1.390625 -3.078125 1.390625q-1.984375 0 -3.203125 -1.53125q-1.21875 -1.53125 -1.21875 -5.4375q0 -3.84375 1.34375 -5.53125q1.09375 -1.390625 3.078125 -1.390625zm0 2.15625q-0.484375 0 -0.859375 0.3125q-0.359375 0.296875 -0.5625 1.078125q-0.265625 1.015625 -0.265625 3.40625q0 2.390625 0.234375 3.28125q0.25 0.890625 0.609375 1.1875q0.359375 0.296875 0.84375 0.296875q0.46875 0 0.828125 -0.296875q0.375 -0.296875 0.59375 -1.078125q0.265625 -1.0 0.265625 -3.390625q0 -2.390625 -0.25 -3.28125q-0.234375 -0.90625 -0.609375 -1.203125q-0.359375 -0.3125 -0.828125 -0.3125zm10.375732 -2.15625q1.96875 0 3.078125 1.40625q1.328125 1.671875 1.328125 5.546875q0 3.859375 -1.328125 5.546875q-1.109375 1.390625 -3.078125 1.390625q-1.984375 0 -3.203125 -1.53125q-1.21875 -1.53125 -1.21875 -5.4375q0 -3.84375 1.34375 -5.53125q1.09375 -1.390625 3.078125 -1.390625zm0 2.15625q-0.484375 0 -0.859375 0.3125q-0.359375 0.296875 -0.5625 1.078125q-0.265625 1.015625 -0.265625 3.40625q0 2.390625 0.234375 3.28125q0.25 0.890625 0.609375 1.1875q0.359375 0.296875 0.84375 0.296875q0.46875 0 0.828125 -0.296875q0.375 -0.296875 0.59375 -1.078125q0.265625 -1.0 0.265625 -3.390625q0 -2.390625 -0.25 -3.28125q-0.234375 -0.90625 -0.609375 -1.203125q-0.359375 -0.3125 -0.828125 -0.3125z" fill-rule="nonzero"></path><path fill="#000000" fill-opacity="0.0" d="m533.9473 289.6498l59.433105 0l0 31.212585l-59.433105 0z" fill-rule="nonzero"></path><path fill="#000000" d="m564.4618 309.8667q0 -2.421875 0.5 -3.890625q0.5 -1.46875 1.46875 -2.265625q0.984375 -0.796875 2.46875 -0.796875q1.09375 0 1.921875 0.4375q0.828125 0.4375 1.359375 1.28125q0.546875 0.828125 0.84375 2.015625q0.3125 1.1875 0.3125 3.21875q0 2.390625 -0.5 3.859375q-0.484375 1.46875 -1.46875 2.28125q-0.96875 0.796875 -2.46875 0.796875q-1.96875 0 -3.078125 -1.40625q-1.359375 -1.703125 -1.359375 -5.53125zm1.71875 0q0 3.34375 0.78125 4.453125q0.796875 1.109375 1.9375 1.109375q1.15625 0 1.9375 -1.109375q0.78125 -1.125 0.78125 -4.453125q0 -3.359375 -0.78125 -4.46875q-0.78125 -1.109375 -1.953125 -1.109375q-1.15625 0 -1.828125 0.984375q-0.875 1.234375 -0.875 4.59375z" fill-rule="nonzero"></path><path fill="#cccccc" d="m185.56168 419.77798l66.19882 0l0 -52.679504l-14.854782 0l24.186264 -36.56305l24.186249 36.56305l-14.854797 0l0 71.34247l-84.861755 0z" fill-rule="nonzero"></path><path stroke="#666666" stroke-width="2.0" stroke-linejoin="round" stroke-linecap="butt" d="m185.56168 419.77798l66.19882 0l0 -52.679504l-14.854782 0l24.186264 -36.56305l24.186249 36.56305l-14.854797 0l0 71.34247l-84.861755 0z" fill-rule="nonzero"></path><path fill="#cccccc" d="m185.56168 419.77744l318.4471 0l0 -54.704865l-11.280426 0l20.605621 -34.550262l20.605652 34.550262l-11.280457 0l0 73.355255l-337.0975 0z" fill-rule="nonzero"></path><path stroke="#666666" stroke-width="2.0" stroke-linejoin="round" stroke-linecap="butt" d="m185.56168 419.77744l318.4471 0l0 -54.704865l-11.280426 0l20.605621 -34.550262l20.605652 34.550262l-11.280457 0l0 73.355255l-337.0975 0z" fill-rule="nonzero"></path><path fill="#cccccc" d="m621.9239 197.26859l112.290955 0l0 -10.956253l28.527954 67.03937l-28.527954 67.03938l0 -10.956238l-112.290955 0z" fill-rule="nonzero"></path><path stroke="#666666" stroke-width="2.0" stroke-linejoin="round" stroke-linecap="butt" d="m621.9239 197.26859l112.290955 0l0 -10.956253l28.527954 67.03937l-28.527954 67.03938l0 -10.956238l-112.290955 0z" fill-rule="nonzero"></path><path fill="#000000" d="m637.3145 215.30295l0 -1.75l1.6875 0l0 1.75q2.59375 0.140625 4.09375 1.5625q1.5 1.421875 1.5 3.546875q0 2.0625 -1.453125 3.515625q-1.453125 1.4375 -4.140625 1.59375l0 1.75l-1.6875 0l0 -1.75q-2.421875 -0.09375 -4.03125 -1.46875q-1.59375 -1.390625 -1.59375 -3.640625q0 -2.28125 1.59375 -3.640625q1.609375 -1.359375 4.03125 -1.46875zm1.6875 1.546875l0 7.125q1.734375 -0.09375 2.734375 -1.015625q1.0 -0.921875 1.0 -2.546875q0 -1.609375 -0.984375 -2.53125q-0.96875 -0.9375 -2.75 -1.03125zm-1.6875 0q-1.6875 0.078125 -2.734375 1.0q-1.03125 0.921875 -1.03125 2.5625q0 1.625 1.015625 2.546875q1.03125 0.921875 2.75 1.0l0 -7.109375zm9.042847 0.5625l1.671875 0l0 7.515625l4.625 -7.515625l1.8125 0l0 9.859375l-1.671875 0l0 -7.46875l-4.640625 7.46875l-1.796875 0l0 -9.859375zm11.233765 0l7.765625 0l0 9.859375l-1.65625 0l0 -8.46875l-4.4375 0l0 4.90625q0 1.71875 -0.109375 2.265625q-0.109375 0.546875 -0.609375 0.953125q-0.5 0.40625 -1.453125 0.40625q-0.578125 0 -1.34375 -0.078125l0 -1.390625l0.734375 0q0.515625 0 0.734375 -0.09375q0.234375 -0.109375 0.296875 -0.34375q0.078125 -0.234375 0.078125 -1.515625l0 -6.5zm10.042114 0l1.671875 0l0 3.859375l2.125 0q2.0625 0 3.171875 0.8125q1.125 0.796875 1.125 2.203125q0 1.234375 -0.9375 2.109375q-0.921875 0.875 -2.96875 0.875l-4.1875 0l0 -9.859375zm1.671875 8.484375l1.75 0q1.59375 0 2.265625 -0.390625q0.6875 -0.390625 0.6875 -1.21875q0 -0.640625 -0.5 -1.140625q-0.5 -0.5 -2.21875 -0.5l-1.984375 0l0 3.25zm7.1885986 -8.484375l8.0 0l0 1.390625l-3.171875 0l0 8.46875l-1.65625 0l0 -8.46875l-3.171875 0l0 -1.390625zm9.435303 13.640625l0 -13.640625l1.53125 0l0 1.28125q0.53125 -0.75 1.203125 -1.125q0.6875 -0.375 1.640625 -0.375q1.265625 0 2.234375 0.65625q0.96875 0.640625 1.453125 1.828125q0.5 1.1875 0.5 2.59375q0 1.515625 -0.546875 2.734375q-0.546875 1.203125 -1.578125 1.84375q-1.03125 0.640625 -2.171875 0.640625q-0.84375 0 -1.515625 -0.34375q-0.65625 -0.359375 -1.078125 -0.890625l0 4.796875l-1.671875 0zm1.515625 -8.65625q0 1.90625 0.765625 2.8125q0.78125 0.90625 1.875 0.90625q1.109375 0 1.890625 -0.9375q0.796875 -0.9375 0.796875 -2.921875q0 -1.875 -0.78125 -2.8125q-0.765625 -0.9375 -1.84375 -0.9375q-1.0625 0 -1.890625 1.0q-0.8125 1.0 -0.8125 2.890625z" fill-rule="nonzero"></path><path fill="#000000" d="m632.1895 239.41232l7.765625 0l0 9.859375l-1.671875 0l0 -8.46875l-4.421875 0l0 8.46875l-1.671875 0l0 -9.859375zm9.461792 4.9375q0 -2.734375 1.53125 -4.0625q1.265625 -1.09375 3.09375 -1.09375q2.03125 0 3.3125 1.34375q1.296875 1.328125 1.296875 3.671875q0 1.90625 -0.578125 3.0q-0.5625 1.078125 -1.65625 1.6875q-1.078125 0.59375 -2.375 0.59375q-2.0625 0 -3.34375 -1.328125q-1.28125 -1.328125 -1.28125 -3.8125zm1.71875 0q0 1.890625 0.828125 2.828125q0.828125 0.9375 2.078125 0.9375q1.25 0 2.0625 -0.9375q0.828125 -0.953125 0.828125 -2.890625q0 -1.828125 -0.828125 -2.765625q-0.828125 -0.9375 -2.0625 -0.9375q-1.25 0 -2.078125 0.9375q-0.828125 0.9375 -0.828125 2.828125zm15.719482 1.3125l1.640625 0.21875q-0.265625 1.6875 -1.375 2.65625q-1.109375 0.953125 -2.734375 0.953125q-2.015625 0 -3.25 -1.3125q-1.21875 -1.328125 -1.21875 -3.796875q0 -1.59375 0.515625 -2.78125q0.53125 -1.203125 1.609375 -1.796875q1.09375 -0.609375 2.359375 -0.609375q1.609375 0 2.625 0.8125q1.015625 0.8125 1.3125 2.3125l-1.625 0.25q-0.234375 -1.0 -0.828125 -1.5q-0.59375 -0.5 -1.421875 -0.5q-1.265625 0 -2.0625 0.90625q-0.78125 0.90625 -0.78125 2.859375q0 1.984375 0.765625 2.890625q0.765625 0.890625 1.984375 0.890625q0.984375 0 1.640625 -0.59375q0.65625 -0.609375 0.84375 -1.859375zm2.0 -6.25l8.0 0l0 1.390625l-3.171875 0l0 8.46875l-1.65625 0l0 -8.46875l-3.171875 0l0 -1.390625zm8.810303 4.9375q0 -2.734375 1.53125 -4.0625q1.265625 -1.09375 3.09375 -1.09375q2.03125 0 3.3125 1.34375q1.296875 1.328125 1.296875 3.671875q0 1.90625 -0.578125 3.0q-0.5625 1.078125 -1.65625 1.6875q-1.078125 0.59375 -2.375 0.59375q-2.0625 0 -3.34375 -1.328125q-1.28125 -1.328125 -1.28125 -3.8125zm1.71875 0q0 1.890625 0.828125 2.828125q0.828125 0.9375 2.078125 0.9375q1.25 0 2.0625 -0.9375q0.828125 -0.953125 0.828125 -2.890625q0 -1.828125 -0.828125 -2.765625q-0.828125 -0.9375 -2.0625 -0.9375q-1.25 0 -2.078125 0.9375q-0.828125 0.9375 -0.828125 2.828125zm9.297607 -4.9375l3.84375 0q1.421875 0 2.109375 0.25q0.6875 0.234375 1.1875 0.859375q0.5 0.625 0.5 1.515625q0 0.703125 -0.296875 1.234375q-0.28125 0.515625 -0.875 0.875q0.703125 0.21875 1.15625 0.859375q0.46875 0.640625 0.46875 1.515625q-0.09375 1.390625 -1.015625 2.078125q-0.90625 0.671875 -2.640625 0.671875l-4.4375 0l0 -9.859375zm1.671875 4.15625l1.78125 0q1.0625 0 1.453125 -0.109375q0.40625 -0.109375 0.71875 -0.453125q0.3125 -0.34375 0.3125 -0.8125q0 -0.78125 -0.546875 -1.078125q-0.546875 -0.3125 -1.890625 -0.3125l-1.828125 0l0 2.765625zm0 4.328125l2.1875 0q1.421875 0 1.953125 -0.328125q0.53125 -0.328125 0.5625 -1.140625q0 -0.46875 -0.3125 -0.875q-0.3125 -0.40625 -0.796875 -0.5q-0.484375 -0.109375 -1.578125 -0.109375l-2.015625 0l0 2.953125zm16.594421 5.375q-1.375 -1.75 -2.328125 -4.078125q-0.953125 -2.34375 -0.953125 -4.84375q0 -2.21875 0.703125 -4.234375q0.84375 -2.34375 2.578125 -4.671875l1.203125 0q-1.125 1.921875 -1.484375 2.75q-0.5625 1.28125 -0.890625 2.671875q-0.40625 1.734375 -0.40625 3.484375q0 4.46875 2.78125 8.921875l-1.203125 0zm3.0408325 -13.859375l7.765625 0l0 9.859375l-1.671875 0l0 -8.46875l-4.421875 0l0 8.46875l-1.671875 0l0 -9.859375zm9.461792 4.9375q0 -2.734375 1.53125 -4.0625q1.265625 -1.09375 3.09375 -1.09375q2.03125 0 3.3125 1.34375q1.296875 1.328125 1.296875 3.671875q0 1.90625 -0.578125 3.0q-0.5625 1.078125 -1.65625 1.6875q-1.078125 0.59375 -2.375 0.59375q-2.0625 0 -3.34375 -1.328125q-1.28125 -1.328125 -1.28125 -3.8125zm1.71875 0q0 1.890625 0.828125 2.828125q0.828125 0.9375 2.078125 0.9375q1.25 0 2.0625 -0.9375q0.828125 -0.953125 0.828125 -2.890625q0 -1.828125 -0.828125 -2.765625q-0.828125 -0.9375 -2.0625 -0.9375q-1.25 0 -2.078125 0.9375q-0.828125 0.9375 -0.828125 2.828125z" fill-rule="nonzero"></path><path fill="#000000" d="m632.1739 275.05295l0 -13.640625l1.53125 0l0 1.28125q0.53125 -0.75 1.203125 -1.125q0.6875 -0.375 1.640625 -0.375q1.265625 0 2.234375 0.65625q0.96875 0.640625 1.453125 1.828125q0.5 1.1875 0.5 2.59375q0 1.515625 -0.546875 2.734375q-0.546875 1.203125 -1.578125 1.84375q-1.03125 0.640625 -2.171875 0.640625q-0.84375 0 -1.515625 -0.34375q-0.65625 -0.359375 -1.078125 -0.890625l0 4.796875l-1.671875 0zm1.515625 -8.65625q0 1.90625 0.765625 2.8125q0.78125 0.90625 1.875 0.90625q1.109375 0 1.890625 -0.9375q0.796875 -0.9375 0.796875 -2.921875q0 -1.875 -0.78125 -2.8125q-0.765625 -0.9375 -1.84375 -0.9375q-1.0625 0 -1.890625 1.0q-0.8125 1.0 -0.8125 2.890625zm15.610107 1.703125l1.71875 0.21875q-0.40625 1.5 -1.515625 2.34375q-1.09375 0.828125 -2.8125 0.828125q-2.15625 0 -3.421875 -1.328125q-1.265625 -1.328125 -1.265625 -3.734375q0 -2.484375 1.265625 -3.859375q1.28125 -1.375 3.328125 -1.375q1.984375 0 3.234375 1.34375q1.25 1.34375 1.25 3.796875q0 0.140625 -0.015625 0.4375l-7.34375 0q0.09375 1.625 0.921875 2.484375q0.828125 0.859375 2.0625 0.859375q0.90625 0 1.546875 -0.46875q0.65625 -0.484375 1.046875 -1.546875zm-5.484375 -2.703125l5.5 0q-0.109375 -1.234375 -0.625 -1.859375q-0.796875 -0.96875 -2.078125 -0.96875q-1.140625 0 -1.9375 0.78125q-0.78125 0.765625 -0.859375 2.046875zm9.110046 -3.984375l1.671875 0l0 7.515625l4.625 -7.515625l1.8125 0l0 9.859375l-1.671875 0l0 -7.46875l-4.640625 7.46875l-1.796875 0l0 -9.859375zm5.515625 -3.71875l1.140625 0q-0.140625 1.15625 -0.859375 1.78125q-0.703125 0.625 -1.875 0.625q-1.1875 0 -1.90625 -0.609375q-0.703125 -0.625 -0.84375 -1.796875l1.140625 0q0.140625 0.625 0.515625 0.9375q0.390625 0.3125 1.046875 0.3125q0.75 0 1.125 -0.296875q0.390625 -0.3125 0.515625 -0.953125zm4.0150146 3.71875l8.0 0l0 1.390625l-3.171875 0l0 8.46875l-1.65625 0l0 -8.46875l-3.171875 0l0 -1.390625zm9.435364 0l1.671875 0l0 7.515625l4.625 -7.515625l1.8125 0l0 9.859375l-1.671875 0l0 -7.46875l-4.640625 7.46875l-1.796875 0l0 -9.859375zm10.43689 0l1.671875 0l0 4.109375l4.625 0l0 -4.109375l1.671875 0l0 9.859375l-1.671875 0l0 -4.375l-4.625 0l0 4.375l-1.671875 0l0 -9.859375zm10.302856 0l5.671875 0l0 1.390625l-4.0 0l0 8.46875l-1.671875 0l0 -9.859375zm6.7109985 13.65625l-0.171875 -1.5625q0.546875 0.140625 0.953125 0.140625q0.546875 0 0.875 -0.1875q0.34375 -0.1875 0.5625 -0.515625q0.15625 -0.25 0.5 -1.25q0.046875 -0.140625 0.15625 -0.40625l-3.734375 -9.875l1.796875 0l2.046875 5.71875q0.40625 1.078125 0.71875 2.28125q0.28125 -1.15625 0.6875 -2.25l2.09375 -5.75l1.671875 0l-3.75 10.03125q-0.59375 1.625 -0.9375 2.234375q-0.4375 0.828125 -1.015625 1.203125q-0.578125 0.390625 -1.375 0.390625q-0.484375 0 -1.078125 -0.203125zm14.5896 -13.65625l1.671875 0l0 7.515625l4.625 -7.515625l1.8125 0l0 9.859375l-1.671875 0l0 -7.46875l-4.640625 7.46875l-1.796875 0l0 -9.859375z" fill-rule="nonzero"></path><path fill="#000000" d="m632.1739 283.41232l1.65625 0l0 4.265625q0.8125 0 1.125 -0.296875q0.3125 -0.3125 0.9375 -1.796875q0.5 -1.15625 0.796875 -1.53125q0.3125 -0.375 0.703125 -0.5q0.40625 -0.140625 1.28125 -0.140625l0.34375 0l0 1.390625l-0.46875 -0.015625q-0.65625 0 -0.84375 0.203125q-0.1875 0.203125 -0.59375 1.21875q-0.375 0.953125 -0.703125 1.328125q-0.3125 0.375 -0.96875 0.671875q1.078125 0.296875 2.125 2.015625l1.828125 3.046875l-1.84375 0l-1.78125 -3.046875q-0.546875 -0.921875 -0.953125 -1.21875q-0.40625 -0.296875 -0.984375 -0.296875l0 4.5625l-1.65625 0l0 -9.859375zm8.177734 0l3.84375 0q1.421875 0 2.109375 0.25q0.6875 0.234375 1.1875 0.859375q0.5 0.625 0.5 1.515625q0 0.703125 -0.296875 1.234375q-0.28125 0.515625 -0.875 0.875q0.703125 0.21875 1.15625 0.859375q0.46875 0.640625 0.46875 1.515625q-0.09375 1.390625 -1.015625 2.078125q-0.90625 0.671875 -2.640625 0.671875l-4.4375 0l0 -9.859375zm1.671875 4.15625l1.78125 0q1.0625 0 1.453125 -0.109375q0.40625 -0.109375 0.71875 -0.453125q0.3125 -0.34375 0.3125 -0.8125q0 -0.78125 -0.546875 -1.078125q-0.546875 -0.3125 -1.890625 -0.3125l-1.828125 0l0 2.765625zm0 4.328125l2.1875 0q1.421875 0 1.953125 -0.328125q0.53125 -0.328125 0.5625 -1.140625q0 -0.46875 -0.3125 -0.875q-0.3125 -0.40625 -0.796875 -0.5q-0.484375 -0.109375 -1.578125 -0.109375l-2.015625 0l0 2.953125zm7.598633 -3.546875q0 -2.734375 1.53125 -4.0625q1.265625 -1.09375 3.09375 -1.09375q2.03125 0 3.3125 1.34375q1.296875 1.328125 1.296875 3.671875q0 1.90625 -0.578125 3.0q-0.5625 1.078125 -1.65625 1.6875q-1.078125 0.59375 -2.375 0.59375q-2.0625 0 -3.34375 -1.328125q-1.28125 -1.328125 -1.28125 -3.8125zm1.71875 0q0 1.890625 0.828125 2.828125q0.828125 0.9375 2.078125 0.9375q1.25 0 2.0625 -0.9375q0.828125 -0.953125 0.828125 -2.890625q0 -1.828125 -0.828125 -2.765625q-0.828125 -0.9375 -2.0625 -0.9375q-1.25 0 -2.078125 0.9375q-0.828125 0.9375 -0.828125 2.828125zm9.281982 8.703125l0 -13.640625l1.53125 0l0 1.28125q0.53125 -0.75 1.203125 -1.125q0.6875 -0.375 1.640625 -0.375q1.265625 0 2.234375 0.65625q0.96875 0.640625 1.453125 1.828125q0.5 1.1875 0.5 2.59375q0 1.515625 -0.546875 2.734375q-0.546875 1.203125 -1.578125 1.84375q-1.03125 0.640625 -2.171875 0.640625q-0.84375 0 -1.515625 -0.34375q-0.65625 -0.359375 -1.078125 -0.890625l0 4.796875l-1.671875 0zm1.515625 -8.65625q0 1.90625 0.765625 2.8125q0.78125 0.90625 1.875 0.90625q1.109375 0 1.890625 -0.9375q0.796875 -0.9375 0.796875 -2.921875q0 -1.875 -0.78125 -2.8125q-0.765625 -0.9375 -1.84375 -0.9375q-1.0625 0 -1.890625 1.0q-0.8125 1.0 -0.8125 2.890625zm8.781921 8.671875l-0.171875 -1.5625q0.546875 0.140625 0.953125 0.140625q0.546875 0 0.875 -0.1875q0.34375 -0.1875 0.5625 -0.515625q0.15625 -0.25 0.5 -1.25q0.046875 -0.140625 0.15625 -0.40625l-3.734375 -9.875l1.796875 0l2.046875 5.71875q0.40625 1.078125 0.71875 2.28125q0.28125 -1.15625 0.6875 -2.25l2.09375 -5.75l1.671875 0l-3.75 10.03125q-0.59375 1.625 -0.9375 2.234375q-0.4375 0.828125 -1.015625 1.203125q-0.578125 0.390625 -1.375 0.390625q-0.484375 0 -1.078125 -0.203125zm9.453125 -13.65625l2.59375 0l2.59375 7.890625l2.875 -7.890625l2.40625 0l0 9.859375l-1.671875 0l0 -7.9375l-2.90625 7.9375l-1.5 0l-2.75 -8.3125l0 8.3125l-1.640625 0l0 -9.859375zm12.701172 13.65625l-0.171875 -1.5625q0.546875 0.140625 0.953125 0.140625q0.546875 0 0.875 -0.1875q0.34375 -0.1875 0.5625 -0.515625q0.15625 -0.25 0.5 -1.25q0.046875 -0.140625 0.15625 -0.40625l-3.734375 -9.875l1.796875 0l2.046875 5.71875q0.40625 1.078125 0.71875 2.28125q0.28125 -1.15625 0.6875 -2.25l2.09375 -5.75l1.671875 0l-3.75 10.03125q-0.59375 1.625 -0.9375 2.234375q-0.4375 0.828125 -1.015625 1.203125q-0.578125 0.390625 -1.375 0.390625q-0.484375 0 -1.078125 -0.203125zm10.5 0.203125l-1.1875 0q2.765625 -4.453125 2.765625 -8.921875q0 -1.734375 -0.390625 -3.453125q-0.328125 -1.390625 -0.890625 -2.671875q-0.359375 -0.84375 -1.484375 -2.78125l1.1875 0q1.75 2.328125 2.578125 4.671875q0.71875 2.015625 0.71875 4.234375q0 2.5 -0.96875 4.84375q-0.953125 2.328125 -2.328125 4.078125z" fill-rule="nonzero"></path></g></svg>

